<?xml version="1.0" encoding="utf-8"?>
<!-- Generator: Adobe Illustrator 27.5.0, SVG Export Plug-In . SVG Version: 6.00 Build 0)  -->
<svg version="1.1" id="Layer_1" xmlns="http://www.w3.org/2000/svg" xmlns:xlink="http://www.w3.org/1999/xlink" x="0px" y="0px"
	 viewBox="0 0 4000 4000" style="enable-background:new 0 0 4000 4000;" xml:space="preserve">
<rect id="bg" style="fill:none;" width="4000" height="4000"/>
<g>
	<g>
		<g>
			
				<polyline style="fill:none;stroke:#000000;stroke-width:19.6298;stroke-linecap:round;stroke-linejoin:round;stroke-miterlimit:10;" points="
				1623.501,3262.8 1621.932,3506.139 1846.344,3635.343 1771.408,3741.918 			"/>
			<path d="M1764.408,3749.854c-25.44,4.888-23.348-114.939,85.781-117.178C1800.481,3692.349,1782.786,3730.998,1764.408,3749.854z
				"/>
		</g>
		<g>
			
				<polyline style="fill:none;stroke:#000000;stroke-width:19.6298;stroke-linecap:round;stroke-linejoin:round;stroke-miterlimit:10;" points="
				1766.365,3275.36 1650.084,3728.71 1506.197,3735.893 			"/>
			<path d="M1499.986,3741.956c-20.708-15.565,69.477-94.494,144.43-15.144C1566.818,3730.06,1526.299,3742.907,1499.986,3741.956z"
				/>
		</g>
	</g>
	
		<polyline style="fill:none;stroke:#000000;stroke-width:19.6298;stroke-linecap:round;stroke-linejoin:round;stroke-miterlimit:10;" points="
		1852.711,2827.93 2022.264,3110.517 1798.288,3254.072 	"/>
	<g>
		
			<polyline style="fill:none;stroke:#000000;stroke-width:19.6298;stroke-linecap:round;stroke-linejoin:round;stroke-miterlimit:10;" points="
			1765.58,2844.414 1464.154,2705.476 1475.464,2337.525 		"/>
		<path d="M1488.706,2331.261c0.482-13.192-7.086-22.586-17.974-28.394c-13.068-11.464-25.14-31.099-29.186-40.47
			c-1.83-4.237-6.743-6.218-10.976-4.43c-4.232,1.79-6.18,6.676-4.35,10.913c2.573,5.959,8.378,16.427,16.083,26.898
			c-8.413-0.299-15.579,0.865-21.293,3.628c-7.312-3.793-16.604-9.056-23.227-12.81c-5.52-3.129-10.734-6.084-14.991-8.375
			c-4.072-2.192-9.126-0.69-11.29,3.352c-2.164,4.044-0.617,9.099,3.454,11.29c4.096,2.205,9.233,5.116,14.67,8.198
			c7.749,4.391,14.022,7.898,19.178,10.67c-0.429,0.903-0.816,1.849-1.169,2.831c-16.693-3.196-36.929-6.938-48.682-8.64
			c-4.597-0.655-8.778,2.492-9.404,7.044c-0.625,4.552,2.571,8.778,7.139,9.44c11.503,1.665,31.941,5.455,48.644,8.656
			c0.157,3.053,0.669,5.887,1.507,8.498c-12.409-0.987-26.329-1.802-36.178-1.516c-4.608,0.133-8.204,3.969-8.032,8.566
			c0.157,4.195,3.396,7.574,7.461,8.033c0.391,0.044,0.789,0.062,1.193,0.05c14.028-0.406,37.972,1.664,51.719,3.014
			c6.449,3.266,14.245,5.075,22.696,5.451C1468.731,2364.184,1487.867,2354.23,1488.706,2331.261z"/>
	</g>
	<g>
		<g>
			<path style="fill:#EF9B3F;" d="M1683.333,3319.63c-48.028-13.125-81.583-36.813-78.771-53.745
				c20.556-123.768,109.733-301.208,128.499-470.221c82.134-300.556,328.535-1202.226,328.535-1202.226
				c4.525-16.557,47.128-19.34,95.156-6.216c48.028,13.125,83.295,37.188,78.771,53.745c0,0-245.781,899.398-327.708,1199.197
				c-64.778,123.89-89.831,382.325-129.326,473.25C1771.651,3329.158,1731.362,3332.755,1683.333,3319.63z"/>
		</g>
		<g>
			<g>
				<path style="fill:#EF9B3F;" d="M2476.541,250c-86.825,312.199-137.454,632.754-195.946,949.862c0,0-29.352-3.469-29.352-3.469
					C2319.597,879.961,2380.185,559.894,2476.541,250L2476.541,250z"/>
			</g>
			<g>
				<g>
					<path style="fill:#FFAE4A;" d="M2289.249,1568.412c-39.272,138.76-162.219,278.557-211.564,334.783
						c-8.814,10.04-19.77,6.811-22.016-6.487c-12.241-72.637-68.308-254.721-29.233-393.386
						c39.222-139.206,196.901-315.416,243.181-364.638c8.549-9.102,18.821-6.073,21.324,6.284
						C2305.372,1211.255,2327.398,1439.576,2289.249,1568.412z"/>
				</g>
				<g>
					<path style="fill:#FFC663;" d="M2255.478,1240.739c-9.517,52.695-22.262,105.201-32.053,157.7
						c-20.8,99.833-26.137,214.041-84.352,297.277C2162.681,1533.548,2153.697,1378.92,2255.478,1240.739L2255.478,1240.739z"/>
				</g>
				<g>
					<path style="fill:#EF9B3F;" d="M2305.497,1480.034c-44.645,137.949-138.618,217.322-198.296,320.924
						c-3.24,5.626-8.628,4.574-9.027-1.726c-52.745-308.235,6.712-435.496,191.469-658.482
						c-12.73-50.342-248.038,270.687-263.208,362.567c-39.073,138.677,16.992,320.753,29.237,393.391
						c2.274,13.87,14.139,16.506,22.817,5.556c0,0.01-0.001,0.02-0.002,0.03C2142.015,1833.09,2299.671,1643.371,2305.497,1480.034z
						"/>
				</g>
			</g>
		</g>
		<g>
			<g>
				<g>
					<path style="fill:#EF9B3F;" d="M2174.249,565.245c-128.274,303.894-228.371,628.961-249.536,958.708
						c0.004,0.001-35.794-0.637-35.794-0.637C1922.218,1190.167,2034.03,866.912,2174.249,565.245L2174.249,565.245z"/>
				</g>
				<g>
					<g>
						<path style="fill:#FFAE4A;" d="M2058.19,1745.276c15.232,133.146-16.111,327.418-44.441,405.195
							c-5.185,14.235-18.002,20.251-25.749,12.087c-42.33-44.606-175.079-136.92-190.311-270.066
							c-15.289-133.651,78.815-385.865,107.44-458.026C1943.701,1359.348,2052.044,1647.319,2058.19,1745.276z"/>
					</g>
					<g>
						<path style="fill:#EF9B3F;" d="M2026.004,2106.635c-69.992-129.34-156.119-156.51-171.351-289.656
							c-13.063-114.192,34.765-295.324,72.346-396.367c-7.491-3.578-17.246,2.196-21.871,13.854
							c-110.299,299.411-200.52,518.652,82.884,728.08c24.985,17.112,31.718-33.318,38.734-55.185
							C2026.495,2107.134,2026.187,2106.974,2026.004,2106.635z"/>
					</g>
					<g>
						<path style="fill:#FFC663;" d="M1931.689,1521.222c11.385,46.499,19.303,95.338,30.321,141.901
							c18.661,90.222,59.392,179.252,32.028,285.884C1953.036,1810.272,1880.865,1702.191,1931.689,1521.222L1931.689,1521.222z"/>
					</g>
				</g>
			</g>
			<g>
				<g>
					<path style="fill:#EF9B3F;" d="M1896.741,909.366c-88.516,299.406-164.645,608.62-176.312,918.48
						c-0.03,1.693-0.044,5.099-0.021,6.781l-33.751,3.677C1707.603,1522.632,1796.444,1210.211,1896.741,909.366L1896.741,909.366z"
						/>
				</g>
				<g>
					<g>
						<path style="fill:#FFAE4A;" d="M1906.652,2045.766c41.521,119.007,47.766,316.481,34.257,402.56
							c-2.473,15.755-14.296,27.14-23.753,22.875c-51.674-23.307-204.409-51.458-245.93-170.465
							c-41.679-119.458,4.396-399.591,19.305-480.497C1712.946,1732.104,1880.499,1953.285,1906.652,2045.766z"/>
					</g>
					<g>
						<path style="fill:#EF9B3F;" d="M1944.758,2401.462c-96.325-91.048-189.012-78.399-230.533-197.406
							c-35.61-102.066-22.56-294.461-4.221-406.635c-8.3-0.047-17.064,9.747-19.473,22.818
							c-47.651,321.201-112.788,573.962,226.632,650.946c28.052,5.409,25.77-44.224,28.492-69.368
							C1945.354,2401.714,1945.01,2401.7,1944.758,2401.462z"/>
					</g>
					<g>
						<path style="fill:#FFC663;" d="M1734.459,1890.381c20.654,38.862,38.248,81.478,58.542,120.565
							c36.595,76.931,95.345,142.916,88.466,255.826C1812.711,2153.949,1718.338,2083.954,1734.459,1890.381L1734.459,1890.381z"/>
					</g>
				</g>
			</g>
			<g>
				<g>
					<path style="fill:#FFAE4A;" d="M1799.802,2394.88c44.056,116.506,54.131,312.39,42.193,398.439
						c-2.185,15.749-13.86,27.541-23.457,23.69c-343.731-62.966-281.871-317.014-240.487-637.316
						C1598.823,2091.29,1771.608,2303.855,1799.802,2394.88z"/>
				</g>
				<g>
					<path style="fill:#EF9B3F;" d="M1844.968,2746.615c-98.653-86.499-191.655-70.149-235.711-186.656
						c-37.785-99.921-28.35-291.548-12.055-403.713c-8.351,0.292-16.98,10.378-19.152,23.459
						c-41.571,321.64-102.874,574.166,240.496,637.289c28.229,4.281,25.1-44.799,27.332-70.063
						C1845.572,2746.841,1845.226,2746.841,1844.968,2746.615z"/>
				</g>
				<g>
					<path style="fill:#FFC663;" d="M1623.589,2247.579c21.524,37.756,40.043,79.365,61.21,117.359
						c38.293,74.917,98.664,138.056,93.911,250.483C1707.373,2506.169,1611.088,2440.501,1623.589,2247.579L1623.589,2247.579z"/>
				</g>
			</g>
		</g>
		<g>
			<g>
				<g>
					<path style="fill:#EF9B3F;" d="M2632.271,557.792c-82.526,364.706-60.24,750.924-202.829,1102.776
						c-0.002,0-32.183-15.443-32.183-15.443C2548.555,1301.723,2538.646,916.507,2632.271,557.792L2632.271,557.792z"/>
				</g>
				<g>
					<g>
						<path style="fill:#FFAE4A;" d="M2160.201,1773.153c-55.013,62.927-216.762,396.23-152.464,394.804
							c354.162-34.773,388.828-266.26,445.998-583.584C2458.177,1500.071,2215.924,1692.071,2160.201,1773.153z"/>
					</g>
					<g>
						<path style="fill:#EF9B3F;" d="M2003.109,2100.379c127.672-75.323,217.095-54.521,298.721-161.198
							c70.007-91.491,120.969-271.767,139.844-377.922c8.401,0.765,13.99,10.732,12.065,23.128
							c-57.42,318.703-92.232,548.61-446.002,583.55c-30.554,1.991-10.834-44.691-5.652-67.314
							C2002.423,2100.555,2002.775,2100.576,2003.109,2100.379z"/>
					</g>
					<g>
						<path style="fill:#FFC663;" d="M2385.972,1645.365c-33.823,34.145-65.808,72.079-99.343,106.468
							c-62.621,68.01-143.976,123.677-174.672,229.398C2219.038,1882.963,2337.719,1827.036,2385.972,1645.365L2385.972,1645.365z"
							/>
					</g>
				</g>
			</g>
			<g>
				<g>
					<path style="fill:#EF9B3F;" d="M2650.528,1225.87c-28.638,281.572-106.61,563.715-228.71,818.945
						c-1.594,3.167-4.628,9.267-6.324,12.464c0,0-26.727-19.291-26.727-19.291
						C2522.365,1788.787,2610.773,1508.263,2650.528,1225.87L2650.528,1225.87z"/>
				</g>
				<g>
					<g>
						<path style="fill:#FFAE4A;" d="M2134.852,2108.126c-95.328,81.61-200.364,248.674-232.382,329.695
							c-5.86,14.829-1.582,30.615,8.595,31.715c55.604,6.009,199.38,58.887,294.708-22.723
							c95.689-81.92,198.094-346.659,226.312-423.928C2457.256,1935.482,2203.673,2041.791,2134.852,2108.126z"/>
					</g>
					<g>
						<path style="fill:#EF9B3F;" d="M1922.875,2395.482c127.694-29.83,199.927,27.887,295.255-53.723
							c81.758-69.992,167.861-242.424,208.962-348.378c7.064,4.151,9.552,17.021,4.993,29.504
							c-123.336,306.558-196.93,550.731-521.018,446.634c-26.463-9.404,0.367-51.004,10.868-74.184
							C1922.243,2395.399,1922.542,2395.56,1922.875,2395.482z"/>
					</g>
					<g>
						<path style="fill:#FFC663;" d="M2359.396,2061.159c-37.148,23.067-73.597,50.914-110.553,74.356
							c-69.898,47.829-153.061,75.034-204.253,175.834C2159.897,2248.826,2275.302,2236.156,2359.396,2061.159L2359.396,2061.159z"
							/>
					</g>
				</g>
			</g>
			<g>
				<g>
					<path style="fill:#FFAE4A;" d="M2049.158,2463.022c-96.215,78.174-203.697,241.932-237.032,322.134
						c-6.101,14.679-2.153,30.74,7.932,32.268c55.102,8.347,196.87,67.503,293.085-10.671
						c96.58-78.471,203.307-340.622,232.798-417.205C2372.646,2302.713,2118.956,2398.981,2049.158,2463.022z"/>
				</g>
				<g>
					<path style="fill:#EF9B3F;" d="M1833.194,2743.398c127.371-24.733,198.002,36.333,294.217-41.841
						c82.519-67.046,171.302-236.989,214.132-341.902c6.936,4.469,9.161,17.522,4.397,29.894
						c-128.799,303.858-205.452,545.783-525.88,427.859c-26.049-10.469,1.229-51.172,12.203-74.196
						C1832.567,2743.287,1832.861,2743.462,1833.194,2743.398z"/>
				</g>
				<g>
					<path style="fill:#FFC663;" d="M2273.029,2425.053c-37.327,21.674-74.052,48.186-111.196,70.245
						c-70.32,45.236-153.42,69.169-206.173,168.478C2071.352,2605.635,2186.193,2597.662,2273.029,2425.053L2273.029,2425.053z"/>
				</g>
			</g>
		</g>
	</g>
	<g>
		<g>
			<g>
				<path style="fill:#FFFFFF;stroke:#000000;stroke-width:8.2004;stroke-miterlimit:10;" d="M1932.097,2482.116
					c-31.365,102.869,120.816,152.107,155.656,50.376C2119.116,2429.626,1966.936,2380.389,1932.097,2482.116z"/>
				<g>
					<path d="M1951.595,2506.469c-10.225,46.358,58.454,62.733,70.248,16.755
						C2032.067,2476.867,1963.388,2460.493,1951.595,2506.469z"/>
					<path style="fill:#FFFFFF;" d="M1953.552,2509.858c-2.986,12.773,16.414,17.4,19.513,4.654
						C1976.052,2501.739,1956.651,2497.113,1953.552,2509.858z"/>
					<path style="fill:#FFFFFF;" d="M1975.303,2496.485c-1.923,7.569,10.008,10.415,11.708,2.792
						C1988.934,2491.709,1977.003,2488.863,1975.303,2496.485z"/>
				</g>
			</g>
			<g>
				<path style="fill:#FFFFFF;stroke:#000000;stroke-width:8.2004;stroke-miterlimit:10;" d="M1719.793,2392.834
					c-31.365,102.869,120.816,152.106,155.656,50.376C1906.812,2340.344,1754.632,2291.107,1719.793,2392.834z"/>
				<g>
					<path d="M1739.291,2417.187c-10.225,46.358,58.454,62.733,70.248,16.755
						C1819.763,2387.585,1751.084,2371.211,1739.291,2417.187z"/>
					<path style="fill:#FFFFFF;" d="M1741.249,2420.576c-2.986,12.773,16.414,17.4,19.513,4.654
						C1763.748,2412.458,1744.348,2407.831,1741.249,2420.576z"/>
					<path style="fill:#FFFFFF;" d="M1763,2407.203c-1.923,7.569,10.008,10.415,11.708,2.792
						C1776.63,2402.427,1764.7,2399.581,1763,2407.203z"/>
				</g>
			</g>
			<path style="fill:#EB8334;" d="M1968.822,2586.404c-5.011,22.884,89.494,40.418,93.015,17.26
				C2066.847,2580.783,1972.343,2563.249,1968.822,2586.404z"/>
			<path style="fill:#EB8334;" d="M1783.953,2506.002c-9.348,21.48-96.204-19.685-85.488-40.515
				C1707.812,2444.01,1794.668,2485.175,1783.953,2506.002z"/>
			<g>
				<path style="fill:#521919;" d="M1952.076,2640.579c-0.712-2.055-2.621-3.502-4.861-3.595
					c-119.676-3.559-167.484-65.199-195.823-96.363c-23.911,47.116-6.902,153.302,80.747,155.541
					c20.378,0.845,39.167-2.653,59.738-9.732C1920.406,2674.622,1954.08,2646.676,1952.076,2640.579z"/>
				<path style="fill:#C13D3D;" d="M1855.736,2685.492c-34.591,5.816-76.867-11.2-92.531-43.974
					C1797.449,2626.259,1848.317,2648.37,1855.736,2685.492z"/>
				<path style="fill:#FFFFFF;" d="M1874.251,2683.573c-43.769,14.357-93.852,1.168-116.311-42.068
					c0.823-1.171-0.804,1.012,0.279-0.957c0.776-1.348-3.496-6.96-1.747-7.747c7.827-3.697,16.852,1.586,20.893,8.556
					c2.363-1.681,17.252,8.002,16.062,11.455c1.431-1.968,20.699,8.677,19.062,11.523c2.874-3.779,21.795,4.815,20.231,8.052
					c1.789-3.108,18.59,1.277,18.432,3.978C1862.747,2671.677,1869.52,2678.548,1874.251,2683.573z"/>
				<path style="fill:#FFFFFF;" d="M1784.871,2584.96c0,0,65.549,44.421,110.033,52.741c0,0-11.026,16.13-24.517,13.53
					c-3.091-0.596-16.612-3.184-18.638-6.403c-3.884,1.96-21.737-6.496-23.786-10.205c-3.608,0.986-22.547-8.208-26.592-13.571
					C1780.6,2612.009,1776.279,2603.723,1784.871,2584.96z"/>
				<path d="M1952.076,2640.579c-0.712-2.055-2.621-3.502-4.861-3.595c-119.676-3.559-167.484-65.199-195.823-96.363
					c-23.911,47.116-6.902,153.302,80.747,155.541c20.378,0.845,39.167-2.653,59.738-9.732
					C1920.406,2674.622,1954.08,2646.676,1952.076,2640.579z M1867.42,2683.021c-83.844,21.854-128.976-48.847-112.824-122.901
					c40.924,50.643,107.656,79.975,175.89,85.58C1923.2,2659.878,1888.167,2678.412,1867.42,2683.021z"/>
			</g>
			<path d="M2060.702,2371.196c49.87,26.933,86.125,70.653,92.254,128.305c2.543-14.519,1.398-29.622-1.401-44.075
				c-5.899-37.82-27.452-76.499-66.315-88.235C2080.454,2365.099,2050.029,2359.098,2060.702,2371.196z"/>
			<path d="M1888.258,2281.811c-12.393-24.999-40.015-39.65-67.034-42.653c-33.74-1.609-68.59,8.388-95.584,28.304
				c38.259-16.052,82.659-15.871,120.787,0.218c10.801,4.479,21.492,10.044,31.633,16.065c1.452,0.847,3.599,2.187,5.058,2.935
				C1886.133,2288.374,1889.769,2284.872,1888.258,2281.811z"/>
			<path d="M1754.798,2705.131c-3.191-3.514-5.978-7.261-8.226-11.002c-2.71-4.209,4.849-9.197,7.427-4.716
				c7.63,12.622,22.712,26.236,37.837,26.235c2.323,0,3.991,1.836,3.727,4.104
				C1790.416,2732.72,1760.407,2713.115,1754.798,2705.131z"/>
		</g>
		<g>
			<path style="opacity:0.5;fill:#FDFF5E;" d="M1920.479,2528.556c-1.681,53.083,49.562,118.461,79.139,124.913
				c9.485,2.137,29.097,6.635,50.333,10.727c22.03,3.758,57.773,11.757,76.852,6.577c5.953-2.617,11.762-5.891,16.733-9.53
				c31.496-25.239,74.095-69.913,93.857-108.326c5.854-11.787,0.04-26.028-12.391-30.332c-22.38-7.748-57.492-19.658-89.935-29.603
				c-48.738-14.815-90.499-26.353-146.621-22.021C1955.182,2473.69,1920.432,2490.09,1920.479,2528.556z"/>
			<path style="opacity:0.5;fill:#FDFF5E;" d="M1605.119,2275.671c-15.495,48.704-23.056,115.322-11.749,160.756
				c6.253,18.702,79.282,68.464,99.152,82.16c24.901,17.164,106.773,11.069,145.461-26.581
				c57.142-55.61-44.994-134.296-76.638-155.481c-34.36-22.938-93.714-55.23-125.534-72.323
				C1624.211,2257.987,1609.806,2263.38,1605.119,2275.671z"/>
			<path style="fill:#1A0E26;" d="M1600.221,2273.804c-16.829,53.816-23.158,118.232-11.84,164.232
				c8.807,26.321,76.269,74.39,102.148,85.401c43.054,16.597,129.989,3.938,158.106-35.516c20.392-2.482,46.556,15.93,61.317,22.322
				c2.263,1.137,5.064,3.66,6.587,6.314c-11.024,47.915,39.104,121.002,80.87,141.661c25.627,11.549,106.733,28.512,132.034,17.125
				c41.489-22.813,84.565-71.292,112.646-120.101l-0.001,0.003c7.349-14.036-0.269-32.773-15.371-37.616
				c-34.326-11.894-100.418-34.166-138.789-43.327c-17.444-4.184-105.517-23.199-148.835,7.428
				c-9.574,1.418-21.941,1.948-29.179-2.847c-8.597-5.696-18.052-9.922-28.062-12.404c-11.057-2.742-17.297-7.906-21.679-15.338
				c-21.379-101.511-152.979-148.858-221.88-191.563C1624.512,2251.789,1605.51,2258.863,1600.221,2273.804z M1943.51,2491.492
				c71.343-37.946,149.358-3.144,203.006,10.53c58.754,28.475,50.475,130.024-21.484,163.81
				c-20.181,9.342-99.968-6.348-123.206-17.12c-11.7-5.44-31.187-21.562-48.347-45.316
				C1928.175,2566.346,1910.046,2520.938,1943.51,2491.492z M1598.363,2434.82c-24.211-75.383,46.315-148.931,107.321-126.01
				c34.428,18.876,192.834,111.251,128.646,179.44c-23.846,28.93-109.548,39.673-139.815,25.487
				C1670.828,2504.02,1605.187,2455.988,1598.363,2434.82z"/>
		</g>
	</g>
	<g>
		<path d="M1805.254,3240.226c13.058-1.936,23.231,4.547,30.206,14.726c12.838,11.722,33.686,21.55,43.447,24.537
			c4.413,1.351,6.925,6.015,5.615,10.419c-1.312,4.404-5.952,6.88-10.366,5.529c-6.207-1.899-17.251-6.511-28.51-13.013
			c1.226,8.329,0.861,15.579-1.253,21.563c4.578,6.848,10.835,15.501,15.297,21.67c3.719,5.14,7.232,9.996,9.98,13.973
			c2.629,3.805,1.694,8.994-2.084,11.591c-3.78,2.598-8.975,1.619-11.603-2.185c-2.644-3.827-6.105-8.611-9.769-13.675
			c-5.22-7.216-9.399-13.064-12.723-17.882c-0.85,0.526-1.747,1.016-2.685,1.474c5.021,16.238,10.976,35.936,13.966,47.43
			c1.159,4.496-1.508,9-5.962,10.125c-4.455,1.124-9.009-1.586-10.171-6.052c-2.926-11.248-8.95-31.142-13.977-47.39
			c-3.052,0.181-5.925-0.014-8.613-0.559c2.352,12.224,4.7,25.969,5.504,35.79c0.377,4.594-3.038,8.592-7.626,8.929
			c-4.186,0.308-7.903-2.538-8.808-6.528c-0.087-0.384-0.148-0.778-0.181-1.18c-1.146-13.987-5.849-37.556-8.71-51.07
			c-3.958-6.049-6.617-13.597-7.925-21.955C1774.739,3263.716,1782.519,3243.597,1805.254,3240.226z"/>
		
			<line style="fill:none;stroke:#000000;stroke-width:19.6298;stroke-linecap:round;stroke-linejoin:round;stroke-miterlimit:10;" x1="2022.264" y1="3110.517" x2="1798.288" y2="3254.072"/>
	</g>
</g>
</svg>
