<?xml version="1.0" encoding="utf-8"?>
<!-- Generator: Adobe Illustrator 27.5.0, SVG Export Plug-In . SVG Version: 6.00 Build 0)  -->
<svg version="1.1" id="Layer_1" xmlns="http://www.w3.org/2000/svg" xmlns:xlink="http://www.w3.org/1999/xlink" x="0px" y="0px"
	 viewBox="0 0 500 500" style="enable-background:new 0 0 500 500;" xml:space="preserve">
<g>
	<rect style="fill:#FFFFFF;" width="500" height="500"/>
	<g>
		<defs>
			<circle id="SVGID_1_" cx="250" cy="250" r="200"/>
		</defs>
		<clipPath id="SVGID_00000013909294964482554440000017532647923792992912_">
			<use xlink:href="#SVGID_1_"  style="overflow:visible;"/>
		</clipPath>
		
			<circle style="clip-path:url(#SVGID_00000013909294964482554440000017532647923792992912_);fill:#FCBF49;" cx="250" cy="250" r="200"/>
		<path style="clip-path:url(#SVGID_00000013909294964482554440000017532647923792992912_);fill:#FFFFFF;" d="M328.855,455
			c-1.028,0-2.001-0.273-2.845-0.753H173.342c-0.844,0.479-1.817,0.753-2.845,0.753l-0.432-0.016
			c-0.872-0.065-1.689-0.326-2.41-0.737h-2.033l0.009-0.045l-67.69-0.037l1.442-6.141c1.049-4.465,25.882-109.6,43.243-131.21
			c0.527-0.659,1.066-1.266,1.598-1.8c0.202-0.204,0.415-0.407,0.625-0.6c3.987-3.633,10.107-7.923,18.191-12.752l0.816-0.485
			c1.228-0.728,2.487-1.462,3.765-2.192l1.361-0.775l1.446-0.815l1.575-0.874c0.829-0.46,1.711-0.943,2.595-1.425
			c1.13-0.614,2.265-1.225,3.4-1.83c1.545-0.821,3.088-1.632,4.62-2.428l0.92-0.477c16.788-8.671,32.392-15.608,32.547-15.678
			l2.972-1.319l1.268,1.148c0.609-0.999,1.035-2.089,1.265-3.225c-1.948,0.069-3.869,0.104-5.745,0.104
			c-3.902,0-7.708-0.15-11.312-0.447c-2.742-0.225-5.301-1.058-7.547-2.359l0.128,1.757l-6.557-1.455
			c-3.46-0.768-6.71-1.716-9.66-2.818l-1.253-0.469l-0.852-1.031c-0.193-0.233-0.382-0.47-0.567-0.709l-5.776-2.038l-1.004-0.359
			l-0.77-0.737c-4.257-4.075-7.507-8.767-9.659-13.941c-2.282-5.488-2.993-10.8-2.867-16.552l-1.264-1.629
			c-9.087-11.707-10.274-31.165-3.548-57.89c-2.862-0.153-5.732-0.419-8.578-0.795l-13.331-1.762l11.641-7.637
			c10.01-6.581,18.121-15.828,23.456-26.743l0.542-1.084c0.264-0.529,0.532-1.065,0.803-1.591l0.552-1.056
			c0.251-0.479,0.503-0.957,0.757-1.428c0.195-0.361,0.389-0.714,0.583-1.066c0.251-0.456,0.505-0.912,0.76-1.362l0.586-1.025
			c0.262-0.454,0.524-0.899,0.787-1.341l0.58-0.971c0.283-0.466,0.565-0.923,0.849-1.379l0.532-0.853
			c0.355-0.56,0.711-1.106,1.068-1.649l0.342-0.525c0.461-0.695,0.93-1.384,1.402-2.063l0.476-0.672
			c0.322-0.455,0.646-0.913,0.972-1.362l0.58-0.785c0.295-0.398,0.589-0.794,0.886-1.183l0.616-0.799
			c0.287-0.37,0.58-0.744,0.873-1.112l0.623-0.774c0.295-0.364,0.597-0.729,0.898-1.09l0.606-0.723
			c0.319-0.376,0.639-0.744,0.96-1.11l0.554-0.634c0.395-0.444,0.792-0.88,1.189-1.311l0.33-0.362
			c0.515-0.554,1.026-1.092,1.54-1.621l0.423-0.427c0.375-0.381,0.751-0.761,1.129-1.132l0.577-0.558
			c0.326-0.315,0.656-0.632,0.987-0.943l0.62-0.575c0.32-0.295,0.641-0.588,0.963-0.877l0.631-0.561
			c0.324-0.285,1.055-0.914,1.055-0.914l0.529-0.45c0.346-0.291,0.692-0.576,1.039-0.858l0.554-0.452
			c0.408-0.328,0.824-0.653,1.24-0.975l0.342-0.267c0.536-0.411,1.071-0.811,1.605-1.201l0.342-0.246
			c0.424-0.306,0.836-0.601,1.249-0.889l0.561-0.384c0.345-0.236,0.695-0.474,1.044-0.706l0.62-0.406
			c0.327-0.213,0.66-0.428,0.992-0.638l0.625-0.391c0.334-0.207,0.666-0.408,0.996-0.607l0.616-0.368
			c0.346-0.204,0.696-0.405,1.046-0.605l0.547-0.312c0.412-0.23,0.825-0.456,1.239-0.679l0.36-0.195
			c0.526-0.28,1.061-0.558,1.594-0.827l0.191-0.095c0.517-0.258,0.953-0.472,1.387-0.68c0,0,1.228-0.576,1.578-0.734
			c0,0,1.251-0.554,1.585-0.697l0.587-0.248c0.336-0.14,1.564-0.637,1.564-0.637c0.348-0.137,1.567-0.601,1.567-0.601
			c0.379-0.141,0.771-0.282,1.163-0.421l0.339-0.122c0.531-0.185,1.042-0.358,1.551-0.525l0.143-0.046
			c0.472-0.153,0.917-0.294,1.36-0.43c0,0,1.153-0.344,1.493-0.441c0,0,1.176-0.327,1.491-0.411l0.544-0.143l1.452-0.362
			c0.339-0.081,1.435-0.331,1.435-0.331c0.379-0.083,1.413-0.3,1.413-0.3c0.491-0.099,0.962-0.191,1.43-0.277
			c0.48-0.088,0.925-0.166,1.366-0.24c0,0,1.039-0.167,1.354-0.214l1.33-0.19l1.314-0.165l1.743-0.188l1.237-0.111
			c0.816-0.066,1.615-0.12,2.395-0.162l1.568-0.067l1.109-0.03l1.774-0.017l1.388,0.013c0.251,0.005,0.504,0.011,0.755,0.018
			c1.365-0.066,2.751-0.099,4.124-0.099l0.366,0c1.595,0.005,3.237,0.057,4.876,0.154l0.671,0.042l0.613,0.051
			c12.33,0.888,23.634,4.221,33.57,9.907l0.066,0.031l0.717,0.414l0.088,0.033l0.456,0.294c0.214,0.131,0.496,0.308,0.81,0.511
			c13.52,8.358,24.469,21.159,32.544,38.044l0.13,0.271c0.324,0.683,0.655,1.395,0.977,2.107l0.15,0.336
			c0.275,0.616,0.535,1.21,0.791,1.802l0.222,0.517c0.285,0.672,0.564,1.339,0.833,2.005l0.046,0.111
			c0.281,0.696,0.553,1.39,0.819,2.083l0.19,0.496c0.219,0.576,0.426,1.131,0.628,1.684l0.169,0.463
			c0.245,0.677,0.485,1.356,0.719,2.033l0.105,0.311c0.202,0.591,0.391,1.157,0.576,1.72l0.184,0.563
			c0.183,0.567,0.631,1.994,0.631,1.994c0.203,0.661,0.396,1.304,0.582,1.944c0,0,0.429,1.489,0.563,1.971l0.155,0.559
			c0.166,0.604,0.332,1.217,0.49,1.822l0.605,2.388c0.117,0.478,0.438,1.835,0.438,1.835c0.128,0.547,0.256,1.109,0.379,1.664
			l0.479,2.237c0.112,0.536,0.222,1.076,0.324,1.602l0.222,1.148c1.427,6.511,6.32,12.261,14.535,17.036l9.765,5.675l-10.767,3.414
			c-2.487,0.789-5.049,1.444-7.66,1.962c1.791,7.433,3.764,14.793,5.873,21.917c4.74,16.009,6.998,27.879,3.613,37.581l-4.022-0.496
			c-0.485,2.306-1.225,4.566-2.215,6.738c-2.119,4.655-6.147,8.059-11.053,9.338l-0.076,0.02c-1.703,0.436-3.423,0.648-5.257,0.648
			c-2.669,0-5.33-0.451-8.506-1.129c-0.664-0.142-1.349-0.292-2.058-0.448c-5.448-1.2-12.229-2.693-22.401-2.808
			c-0.386-0.005-0.78-0.007-1.18-0.007c-2.023,0-4.137,0.056-6.281,0.163c-4.73,0.239-9.844,0.757-15.227,1.54v5.886
			c0,2.042,0.61,3.996,1.727,5.64l0.908-0.829l2.986,1.325c0.143,0.064,14.423,6.411,30.336,14.544
			c1.032,0.527,2.075,1.063,3.121,1.606c1.529,0.794,3.072,1.604,4.613,2.424c1.748,0.93,3.493,1.881,5.228,2.836l0.732,0.396
			c0.3,0.165,1.896,1.058,1.896,1.058c0.845,0.473,1.691,0.951,2.529,1.432c1.451,0.828,2.883,1.664,4.285,2.5
			c8.243,4.912,14.466,9.264,18.494,12.934c3.963,3.611,8.098,10.952,13.014,23.105c0.456,1.128,0.913,2.291,1.371,3.473
			l0.444,1.165c0.312,0.814,0.628,1.649,0.944,2.499l0.49,1.325c0.313,0.852,0.626,1.716,0.939,2.588l0.448,1.251
			c0.423,1.19,0.847,2.401,1.271,3.631l0.088,0.252c0.453,1.317,0.903,2.651,1.354,3.995l0.43,1.298
			c0.315,0.947,0.628,1.897,0.94,2.855l0.471,1.448c0.313,0.974,1.35,4.226,1.35,4.226c0.435,1.379,0.87,2.766,1.301,4.16
			l0.03,0.098c0.441,1.432,0.88,2.87,1.316,4.312c0,0,0.987,3.285,1.326,4.426c0,0,1.038,3.517,1.387,4.713l0.216,0.741
			c0.8,2.751,1.589,5.507,2.358,8.232c0.924,3.282,1.819,6.515,2.682,9.674l1.658,6.126l0.602,2.252
			c0.428,1.607,1.854,7.032,1.854,7.032l0.042,0.168c3.706,14.198,6.27,24.885,6.966,27.819l1.664,6.89l-70.402,0.001
			c-0.722,0.411-1.539,0.671-2.41,0.737l-0.259,0.014L328.855,455z"/>
		<g style="clip-path:url(#SVGID_00000013909294964482554440000017532647923792992912_);">
			<g>
				<g>
					<path style="fill:#1B1464;" d="M351.846,247.535c-0.277-3.065-1.081-6.137-2.46-9.087c-0.632-1.35-1.361-2.624-2.175-3.819
						c0.002,0.005,0.003,0.008,0.003,0.013c1.801,6.344,1.185,12.962-1.433,18.708c-1.475,3.239-4.322,5.676-7.766,6.574
						c-0.018,0.003-0.035,0.008-0.053,0.013c-3.663,0.938-7.102,0.408-11.48-0.526c-5.868-1.253-13.42-3.231-25.446-3.366
						c-2.403-0.025-4.986,0.022-7.77,0.163c-5.215,0.264-11.136,0.86-17.91,1.921c-0.002,0-0.002,0.002-0.003,0.002
						c-0.002,0-0.002,0-0.002,0c-4.812,0.753-10.053,1.742-15.778,3.014c-21.672,4.815-40.039,6.018-54.627,4.817
						c-6.52-0.537-11.65-5.841-11.878-12.378c0-0.04-0.002-0.08-0.003-0.119c-1.226,3.452-1.677,7.039-1.422,10.542
						c-3.296-0.731-6.296-1.613-8.992-2.621c-4.425-5.359-6.47-12.232-5.843-19.006c-2.339,4.68-3.145,9.824-2.538,14.781
						c-0.041-0.014-0.088-0.03-0.134-0.046c-2.398-2.296-6.042-6.338-8.501-12.251c-3.809-9.163-2.65-17.724-0.583-31.73
						c0.71-4.808,1.954-11.728,4.25-19.987c-1.747,3.874-4.422,10.286-6.211,17.198c-0.876,3.387-1.312,6.01-1.4,6.559
						c-0.411,2.54-0.731,5.424-0.855,8.633c-7.762-10.001-10.644-29.314,0.809-65.781c22.606-71.977,69.189-78.831,89.305-78.203
						c1.446-0.073,2.919-0.108,4.419-0.102c1.507,0.005,3.04,0.053,4.602,0.145c53.927,3.151,70.893,53.274,76.108,79.815
						c0.075,0.387,0.15,0.768,0.22,1.143c0.078,0.408,0.151,0.811,0.223,1.206c0.016,0.084,0.03,0.167,0.046,0.252
						c1.311,7.228,2.777,14.428,4.416,21.584c0.212,0.93,0.428,1.858,0.646,2.787c1.944,8.271,4.115,16.488,6.529,24.638
						C352.153,226.51,354.932,238.686,351.846,247.535z"/>
					<polygon style="fill:#1B1464;" points="174.271,257.243 174.281,257.251 174.28,257.244 					"/>
				</g>
				<g>
					<path style="fill:#FFD8CC;" d="M315.793,199.912c-2.064,4.809-3.605,7.642-5.501,8.719c-0.737,0.418-2.968,1.384-4.169,1.718
						c-0.427,0.119-0.847,0.221-1.266,0.306c-0.387,0.085-0.773,0.153-1.151,0.213c-2.714,0.425-5.263,0.357-7.031,0.204
						c0.066-0.136,0.132-0.272,0.189-0.408c0.206-0.425,0.411-0.859,0.6-1.285h0.008c4.161-8.948,6.208-17.846,7.121-25.646
						c0.049-0.383,0.09-0.766,0.132-1.148c0.025-0.017,0.049-0.034,0.074-0.051c0.058-0.051,0.115-0.094,0.181-0.136
						c0.312-0.23,0.658-0.476,1.028-0.74c0.847-0.578,1.858-1.225,2.935-1.82c0.304-0.179,0.617-0.349,0.938-0.51
						c0.206-0.111,0.419-0.213,0.633-0.306c1.233-0.595,2.516-1.063,3.708-1.267c1.875-0.332,3.569-0.026,4.662,1.454
						c0.229,0.31,0.439,0.638,0.621,1.019c1.06,2.231,0.741,4.611,0.622,5.441C319.239,191.884,315.793,199.912,315.793,199.912z"/>
					<path style="fill:#FF8888;" d="M307.381,199.258c-1.719,3.896-3.865,7.128-6.134,8.489c-1.201,0.715-2.475,1.25-3.774,1.633
						c4.161-8.948,6.208-17.846,7.121-25.646c0.049-0.383,0.09-0.766,0.132-1.148c0.025-0.017,0.049-0.034,0.074-0.051
						c0.058-0.051,0.115-0.094,0.181-0.136c0.312-0.23,0.658-0.476,1.028-0.74c1.094-0.749,2.442-1.599,3.873-2.331
						c0.206-0.111,0.419-0.213,0.633-0.306C312.068,183.394,310.407,192.367,307.381,199.258z"/>
					<path style="fill:#FFD8CC;" d="M184.286,199.865c2.064,4.809,3.605,7.642,5.501,8.719c0.737,0.418,2.968,1.384,4.169,1.718
						c0.428,0.119,0.847,0.221,1.266,0.306c0.386,0.085,0.773,0.153,1.151,0.213c2.714,0.425,5.263,0.357,7.031,0.204
						c-0.066-0.136-0.132-0.272-0.189-0.408c-0.206-0.425-0.411-0.859-0.6-1.284h-0.008c-4.161-8.948-6.208-17.846-7.121-25.646
						c-0.049-0.383-0.09-0.765-0.132-1.148c-0.025-0.017-0.049-0.034-0.074-0.051c-0.057-0.051-0.115-0.094-0.181-0.136
						c-0.313-0.23-0.658-0.476-1.028-0.74c-0.847-0.578-1.858-1.225-2.936-1.82c-0.304-0.178-0.617-0.349-0.937-0.51
						c-0.206-0.111-0.419-0.213-0.633-0.306c-1.233-0.595-2.516-1.063-3.708-1.267c-1.875-0.332-3.569-0.026-4.662,1.454
						c-0.229,0.31-0.439,0.638-0.62,1.02c-1.06,2.231-0.741,4.61-0.622,5.441C180.839,191.837,184.286,199.865,184.286,199.865z"/>
					<path style="fill:#FF8888;" d="M192.698,199.21c1.719,3.896,3.865,7.128,6.134,8.489c1.201,0.715,2.475,1.25,3.774,1.633
						c-4.161-8.948-6.208-17.846-7.121-25.646c-0.049-0.383-0.09-0.765-0.132-1.148c-0.025-0.017-0.049-0.034-0.074-0.051
						c-0.057-0.051-0.115-0.094-0.181-0.136c-0.313-0.23-0.658-0.476-1.028-0.74c-1.093-0.749-2.442-1.599-3.873-2.331
						c-0.206-0.111-0.419-0.213-0.633-0.306C188.011,183.347,189.672,192.321,192.698,199.21z"/>
				</g>
				<path style="fill:#FFD8CC;" d="M281.673,282.599l-2.811-2.279c-3.524-2.86-5.57-7.156-5.57-11.693v-48.25h-46.499v48.907
					c0,3.925-1.53,7.668-4.226,10.458c-0.425,0.444-0.884,0.865-1.371,1.258l-2.502,2.021l-2.096,1.691
					c4.009,2.932,16.022,13.174,33.365,13.318c17.92,0.148,30.359-10.425,34.314-13.318L281.673,282.599z"/>
				<path style="fill:#FF6C6C;" d="M273.292,220.378v26.944c-1.941,3.239-5.051,7.86-9.663,12.705c0,0-4.381,4.597-9.238,8.163
					c-10.087,7.407-23.931,10.386-31.825,11.553c2.696-2.79,4.226-6.532,4.226-10.458v-48.907H273.292z"/>
				<path style="fill:#FFD8CC;" d="M306.511,179.719c-0.042,0.465-0.086,0.933-0.135,1.406c-0.153,1.481-0.347,3.002-0.586,4.558
					c-1.182,7.703-3.489,16.23-7.699,24.761c-2.225,4.526-4.992,9.061-8.419,13.464c-12.263,15.767-27.412,22.866-36.112,25.975
					c-2.277,0.814-4.747,0.814-7.024,0c-8.7-3.109-23.848-10.208-36.112-25.975c-16.558-21.286-17.84-45.487-17.058-58.564
					c0.164-2.747,0.419-5.002,0.643-6.637c0.131-0.957,0.252-1.702,0.336-2.209c4.596-24.033,25.212-42.194,49.493-44.612
					c28.267-2.815,56.099,16.24,61.913,44.612C306.181,159.1,307.552,168.026,306.511,179.719z"/>
				<path style="fill:#FFE7E1;" d="M305.75,156.498c-5.814-28.373-33.645-47.428-61.913-44.612
					c-0.009,0.001-0.018,0.002-0.027,0.003c24.11,2.378,45.746,19.982,50.793,44.609c0.432,2.602,1.803,11.528,0.761,23.221
					c-0.041,0.465-0.086,0.933-0.135,1.406c-0.153,1.481-0.347,3.002-0.586,4.558c-1.182,7.703-3.489,16.23-7.699,24.761
					c-2.225,4.526-4.992,9.061-8.419,13.464c-11.344,14.585-25.157,21.753-34.051,25.206c0.721,0.28,1.41,0.536,2.061,0.769
					c2.277,0.814,4.747,0.814,7.024,0c8.699-3.109,23.848-10.208,36.112-25.975c3.427-4.403,6.195-8.938,8.419-13.464
					c4.21-8.531,6.518-17.058,7.699-24.761c0.239-1.556,0.433-3.077,0.586-4.558c0.049-0.473,0.094-0.941,0.135-1.406
					C307.552,168.026,306.181,159.1,305.75,156.498z"/>
				<g>
					<path style="fill:#FF9797;" d="M214.625,144.356c-4.422,5.921-10.491,10.399-17.386,13.059
						c-1.096,0.423-2.174,0.854-3.232,1.291c-0.225,1.635-0.479,3.89-0.643,6.637c1.268-0.531,2.565-1.054,3.889-1.564
						c6.815-2.628,12.823-7.041,17.23-12.866c0.12-0.158,0.238-0.317,0.354-0.475c1.253-5.453,1.525-8.649,1.525-8.649
						C215.848,142.644,215.264,143.501,214.625,144.356z"/>
					<path style="fill:#FF9797;" d="M284.917,160.82c-8.051-11.109-10.564-22.049-11.466-27.709c0,0-5.733,5.892-5.733,17.995
						c-4.871-1.03-10.067-1.814-15.566-2.229c-13.103-0.991-25.299,0.299-36.286,2.819c-0.29,1.697-0.734,3.96-1.408,6.699
						c11.349-2.734,24.028-4.182,37.693-3.148c5.499,0.416,10.695,1.199,15.566,2.229c0-12.103,5.733-17.995,5.733-17.995
						c0.901,5.66,3.414,16.6,11.466,27.709c1.87,2.581,8.649,11.534,20.872,18.493c0.239-1.556,0.433-3.077,0.586-4.558
						c0.049-0.473,0.094-0.941,0.135-1.406C293.832,172.706,286.823,163.451,284.917,160.82z"/>
				</g>
				<path style="fill:#1B1464;" d="M202.439,153.5c-1.797,4.181-3.596,9.249-4.948,15.125c-2.008,8.727-2.388,16.453-2.219,22.44
					l-9.887-24.352l8.929-9.396L202.439,153.5z"/>
				<path style="fill:#1B1464;" d="M336.299,162.554c-0.002-0.005-0.003-0.011-0.003-0.017c-0.041-0.183-0.078-0.37-0.115-0.556
					c-0.051-0.26-0.08-0.435-0.096-0.533c-0.003-0.013-0.005-0.025-0.006-0.037c-1.809-9.209-5.034-21.256-10.725-33.195
					c-11.717-23.439-27.755-34.276-31.613-36.636c-0.003-0.002-0.005-0.003-0.008-0.005c-0.264-0.158-0.53-0.314-0.796-0.47
					c-0.037-0.021-0.056-0.03-0.056-0.03c-8.163-4.417-20.199-8.609-32.279-9.44c-0.21-0.014-0.42-0.027-0.631-0.04
					c-1.562-0.092-3.096-0.14-4.602-0.145c-1.5-0.006-2.973,0.029-4.419,0.102c-17.632-0.55-55.602,4.648-79.932,54.42
					c-5.696,11.652-14.361,21.598-25.198,28.723c-0.134,0.088-0.269,0.177-0.404,0.265c4.035,0.534,8.905,0.943,14.399,0.908
					c8.013-0.049,17.356-1.046,27.387-3.984c2.721-0.797,5.294-1.679,7.716-2.614c7.467-2.88,14.101-7.619,19.062-13.9
					c0.899-1.138,1.708-2.283,2.394-3.421c0,0-0.325,3.819-1.903,10.235c11.349-2.734,24.028-4.182,37.693-3.148
					c5.499,0.416,10.695,1.199,15.566,2.23c0-12.103,5.733-17.995,5.733-17.995c0.901,5.66,3.414,16.6,11.466,27.709
					c9.018,12.442,19.879,18.058,21.976,19.109c2.019,1.013,4.037,1.868,6.04,2.589c-0.371-3.572-0.742-7.144-1.115-10.716
					c1.481,4.513,3.852,8.773,7.082,12.496c8.241,1.971,15.951,1.879,22.073,1.137c5.82-0.706,10.206-1.994,12.246-2.64
					C345.766,178.617,338.383,172.179,336.299,162.554z"/>
				<defs>
					<filter id="Adobe_OpacityMaskFilter" filterUnits="userSpaceOnUse" x="288.481" y="111.272" width="51.372" height="66.341">
						<feFlood  style="flood-color:white;flood-opacity:1" result="back"/>
						<feBlend  in="SourceGraphic" in2="back" mode="normal"/>
					</filter>
				</defs>
				
					<mask maskUnits="userSpaceOnUse" x="288.481" y="111.272" width="51.372" height="66.341" id="SVGID_00000085232926302005661170000013789273499462106755_">
					<g style="filter:url(#Adobe_OpacityMaskFilter);">
						<defs>
							
								<filter id="Adobe_OpacityMaskFilter_00000087413067252223557140000008102265155301119915_" filterUnits="userSpaceOnUse" x="288.481" y="111.272" width="51.372" height="66.341">
								<feFlood  style="flood-color:white;flood-opacity:1" result="back"/>
								<feBlend  in="SourceGraphic" in2="back" mode="normal"/>
							</filter>
						</defs>
						
							<mask maskUnits="userSpaceOnUse" x="288.481" y="111.272" width="51.372" height="66.341" id="SVGID_00000085232926302005661170000013789273499462106755_">
							<g style="filter:url(#Adobe_OpacityMaskFilter_00000087413067252223557140000008102265155301119915_);">
							</g>
						</mask>
						
							<linearGradient id="SVGID_00000176734902973950287560000005136553801134271136_" gradientUnits="userSpaceOnUse" x1="303.296" y1="136.6405" x2="334.4514" y2="190.6033">
							<stop  offset="0" style="stop-color:#000000"/>
							<stop  offset="1" style="stop-color:#FFFFFF"/>
						</linearGradient>
						
							<path style="mask:url(#SVGID_00000085232926302005661170000013789273499462106755_);fill:url(#SVGID_00000176734902973950287560000005136553801134271136_);" d="
							M288.603,136.997c0.513,8.732,4.293,14.822,6.173,17.775c1.437,2.258,5.441,8.373,13.07,12.771
							c1.228,0.708,2.461,1.317,3.689,1.842c-0.102-2.251-0.205-4.502-0.308-6.753c0.763,2.881,2.094,5.636,3.981,8.086
							c2.383,1.884,7.087,5.067,13.816,6.345c4.448,0.845,8.249,0.566,10.829,0.159c-2.834-2.608-6.347-6.445-9.359-11.726
							c-1.609-2.821-2.761-5.503-3.595-7.867c-0.001-0.003-0.002-0.007-0.001-0.011c-0.019-0.116-0.035-0.234-0.052-0.352
							c-0.022-0.164-0.034-0.275-0.04-0.338c-0.001-0.008-0.002-0.016-0.003-0.023c-0.798-5.835-2.379-13.499-5.509-21.185
							c-6.486-15.11-16.138-22.482-18.469-24.101c-0.002-0.001-0.003-0.002-0.005-0.003c-0.16-0.108-0.321-0.216-0.482-0.323
							c-0.022-0.014-0.034-0.021-0.034-0.021c-2.311,1.07-6.393,3.362-9.568,7.848C287.951,125.883,288.379,133.177,288.603,136.997
							z"/>
					</g>
				</mask>
				
					<linearGradient id="SVGID_00000160192620606022696670000008735977563353696653_" gradientUnits="userSpaceOnUse" x1="303.296" y1="136.6405" x2="334.4514" y2="190.6033">
					<stop  offset="0" style="stop-color:#FFFFFF"/>
					<stop  offset="1" style="stop-color:#0B0042"/>
				</linearGradient>
				<path style="opacity:0.35;fill:url(#SVGID_00000160192620606022696670000008735977563353696653_);" d="M288.603,136.997
					c0.513,8.732,4.293,14.822,6.173,17.775c1.437,2.258,5.441,8.373,13.07,12.771c1.228,0.708,2.461,1.317,3.689,1.842
					c-0.102-2.251-0.205-4.502-0.308-6.753c0.763,2.881,2.094,5.636,3.981,8.086c2.383,1.884,7.087,5.067,13.816,6.345
					c4.448,0.845,8.249,0.566,10.829,0.159c-2.834-2.608-6.347-6.445-9.359-11.726c-1.609-2.821-2.761-5.503-3.595-7.867
					c-0.001-0.003-0.002-0.007-0.001-0.011c-0.019-0.116-0.035-0.234-0.052-0.352c-0.022-0.164-0.034-0.275-0.04-0.338
					c-0.001-0.008-0.002-0.016-0.003-0.023c-0.798-5.835-2.379-13.499-5.509-21.185c-6.486-15.11-16.138-22.482-18.469-24.101
					c-0.002-0.001-0.003-0.002-0.005-0.003c-0.16-0.108-0.321-0.216-0.482-0.323c-0.022-0.014-0.034-0.021-0.034-0.021
					c-2.311,1.07-6.393,3.362-9.568,7.848C287.951,125.883,288.379,133.177,288.603,136.997z"/>
				<defs>
					
						<filter id="Adobe_OpacityMaskFilter_00000041264442224666726150000010827428257675569301_" filterUnits="userSpaceOnUse" x="145.415" y="81.45" width="122.918" height="84.42">
						<feFlood  style="flood-color:white;flood-opacity:1" result="back"/>
						<feBlend  in="SourceGraphic" in2="back" mode="normal"/>
					</filter>
				</defs>
				
					<mask maskUnits="userSpaceOnUse" x="145.415" y="81.45" width="122.918" height="84.42" id="SVGID_00000129894484360185899940000012228182913747541666_">
					<g style="filter:url(#Adobe_OpacityMaskFilter_00000041264442224666726150000010827428257675569301_);">
						<defs>
							
								<filter id="Adobe_OpacityMaskFilter_00000013897275451848223460000002697548935998216832_" filterUnits="userSpaceOnUse" x="145.415" y="81.45" width="122.918" height="84.42">
								<feFlood  style="flood-color:white;flood-opacity:1" result="back"/>
								<feBlend  in="SourceGraphic" in2="back" mode="normal"/>
							</filter>
						</defs>
						
							<mask maskUnits="userSpaceOnUse" x="145.415" y="81.45" width="122.918" height="84.42" id="SVGID_00000129894484360185899940000012228182913747541666_">
							<g style="filter:url(#Adobe_OpacityMaskFilter_00000013897275451848223460000002697548935998216832_);">
							</g>
						</mask>
						
							<linearGradient id="SVGID_00000068679020560111814040000004812280334978710922_" gradientUnits="userSpaceOnUse" x1="145.4155" y1="123.66" x2="268.3339" y2="123.66">
							<stop  offset="0" style="stop-color:#FFFFFF"/>
							<stop  offset="0.0239" style="stop-color:#EDEDED"/>
							<stop  offset="0.0943" style="stop-color:#BBBBBB"/>
							<stop  offset="0.1703" style="stop-color:#8F8F8F"/>
							<stop  offset="0.2502" style="stop-color:#686868"/>
							<stop  offset="0.3348" style="stop-color:#484848"/>
							<stop  offset="0.4256" style="stop-color:#2E2E2E"/>
							<stop  offset="0.525" style="stop-color:#191919"/>
							<stop  offset="0.6374" style="stop-color:#0B0B0B"/>
							<stop  offset="0.7736" style="stop-color:#030303"/>
							<stop  offset="1" style="stop-color:#000000"/>
						</linearGradient>
						
							<path style="mask:url(#SVGID_00000129894484360185899940000012228182913747541666_);fill:url(#SVGID_00000068679020560111814040000004812280334978710922_);" d="
							M260.602,81.635c-0.21-0.014-0.42-0.027-0.631-0.04c-1.562-0.092-3.096-0.14-4.602-0.145c-1.5-0.006-2.973,0.029-4.419,0.102
							c-17.632-0.55-55.602,4.648-79.932,54.42c-5.696,11.652-14.361,21.598-25.198,28.723c-0.134,0.088-0.269,0.177-0.404,0.265
							c4.035,0.534,8.905,0.943,14.399,0.908c0.06,0,0.121-0.001,0.181-0.001c14.825-0.117,28.731-7.307,37.373-19.353
							c2.38-3.318,4.487-6.844,6.295-10.541c18.644-38.14,45.297-50.105,64.671-53.368
							C265.784,82.148,263.194,81.814,260.602,81.635z"/>
					</g>
				</mask>
				
					<linearGradient id="SVGID_00000042003182877286234650000016675452041607977137_" gradientUnits="userSpaceOnUse" x1="145.4155" y1="123.66" x2="268.3339" y2="123.66">
					<stop  offset="0" style="stop-color:#0B0042"/>
					<stop  offset="0.0239" style="stop-color:#1D1250"/>
					<stop  offset="0.0943" style="stop-color:#4C4474"/>
					<stop  offset="0.1703" style="stop-color:#767095"/>
					<stop  offset="0.2502" style="stop-color:#9B97B2"/>
					<stop  offset="0.3348" style="stop-color:#BAB7CA"/>
					<stop  offset="0.4256" style="stop-color:#D3D1DD"/>
					<stop  offset="0.525" style="stop-color:#E7E6EC"/>
					<stop  offset="0.6374" style="stop-color:#F5F4F7"/>
					<stop  offset="0.7736" style="stop-color:#FDFCFD"/>
					<stop  offset="1" style="stop-color:#FFFFFF"/>
				</linearGradient>
				<path style="opacity:0.35;fill:url(#SVGID_00000042003182877286234650000016675452041607977137_);" d="M260.602,81.635
					c-0.21-0.014-0.42-0.027-0.631-0.04c-1.562-0.092-3.096-0.14-4.602-0.145c-1.5-0.006-2.973,0.029-4.419,0.102
					c-17.632-0.55-55.602,4.648-79.932,54.42c-5.696,11.652-14.361,21.598-25.198,28.723c-0.134,0.088-0.269,0.177-0.404,0.265
					c4.035,0.534,8.905,0.943,14.399,0.908c0.06,0,0.121-0.001,0.181-0.001c14.825-0.117,28.731-7.307,37.373-19.353
					c2.38-3.318,4.487-6.844,6.295-10.541c18.644-38.14,45.297-50.105,64.671-53.368C265.784,82.148,263.194,81.814,260.602,81.635z
					"/>
				<defs>
					
						<filter id="Adobe_OpacityMaskFilter_00000003092257066260714300000003762608703803021492_" filterUnits="userSpaceOnUse" x="166.295" y="92.979" width="60.499" height="64.341">
						<feFlood  style="flood-color:white;flood-opacity:1" result="back"/>
						<feBlend  in="SourceGraphic" in2="back" mode="normal"/>
					</filter>
				</defs>
				
					<mask maskUnits="userSpaceOnUse" x="166.295" y="92.979" width="60.499" height="64.341" id="SVGID_00000069372058559721708010000015338196446157300633_">
					<g style="filter:url(#Adobe_OpacityMaskFilter_00000003092257066260714300000003762608703803021492_);">
						<defs>
							
								<filter id="Adobe_OpacityMaskFilter_00000041294876781955498730000005712829207770448774_" filterUnits="userSpaceOnUse" x="166.295" y="92.979" width="60.499" height="64.341">
								<feFlood  style="flood-color:white;flood-opacity:1" result="back"/>
								<feBlend  in="SourceGraphic" in2="back" mode="normal"/>
							</filter>
						</defs>
						
							<mask maskUnits="userSpaceOnUse" x="166.295" y="92.979" width="60.499" height="64.341" id="SVGID_00000069372058559721708010000015338196446157300633_">
							<g style="filter:url(#Adobe_OpacityMaskFilter_00000041294876781955498730000005712829207770448774_);">
							</g>
						</mask>
						
							<linearGradient id="SVGID_00000054988605536079820940000012064180795429289403_" gradientUnits="userSpaceOnUse" x1="166.2951" y1="125.1499" x2="226.7942" y2="125.1499">
							<stop  offset="0" style="stop-color:#FFFFFF"/>
							<stop  offset="0.0239" style="stop-color:#EDEDED"/>
							<stop  offset="0.0943" style="stop-color:#BBBBBB"/>
							<stop  offset="0.1703" style="stop-color:#8F8F8F"/>
							<stop  offset="0.2502" style="stop-color:#686868"/>
							<stop  offset="0.3348" style="stop-color:#484848"/>
							<stop  offset="0.4256" style="stop-color:#2E2E2E"/>
							<stop  offset="0.525" style="stop-color:#191919"/>
							<stop  offset="0.6374" style="stop-color:#0B0B0B"/>
							<stop  offset="0.7736" style="stop-color:#030303"/>
							<stop  offset="1" style="stop-color:#000000"/>
						</linearGradient>
						
							<path style="mask:url(#SVGID_00000069372058559721708010000015338196446157300633_);fill:url(#SVGID_00000054988605536079820940000012064180795429289403_);" d="
							M166.295,157.321c4.7-5.359,8.702-11.359,11.876-17.851c9.472-19.377,22.004-33.373,37.249-41.601
							c3.875-2.091,7.7-3.684,11.374-4.889c-10.867,8.788-21.449,21.422-30.284,39.496c-1.604,3.281-3.492,6.443-5.611,9.397
							C185.017,150.072,176.112,155.585,166.295,157.321z"/>
					</g>
				</mask>
				
					<linearGradient id="SVGID_00000120560934589584505320000008616302558579605661_" gradientUnits="userSpaceOnUse" x1="166.2951" y1="125.1499" x2="226.7942" y2="125.1499">
					<stop  offset="0" style="stop-color:#0B0042"/>
					<stop  offset="0.0239" style="stop-color:#1D1250"/>
					<stop  offset="0.0943" style="stop-color:#4C4474"/>
					<stop  offset="0.1703" style="stop-color:#767095"/>
					<stop  offset="0.2502" style="stop-color:#9B97B2"/>
					<stop  offset="0.3348" style="stop-color:#BAB7CA"/>
					<stop  offset="0.4256" style="stop-color:#D3D1DD"/>
					<stop  offset="0.525" style="stop-color:#E7E6EC"/>
					<stop  offset="0.6374" style="stop-color:#F5F4F7"/>
					<stop  offset="0.7736" style="stop-color:#FDFCFD"/>
					<stop  offset="1" style="stop-color:#FFFFFF"/>
				</linearGradient>
				<path style="opacity:0.35;fill:url(#SVGID_00000120560934589584505320000008616302558579605661_);" d="M166.295,157.321
					c4.7-5.359,8.702-11.359,11.876-17.851c9.472-19.377,22.004-33.373,37.249-41.601c3.875-2.091,7.7-3.684,11.374-4.889
					c-10.867,8.788-21.449,21.422-30.284,39.496c-1.604,3.281-3.492,6.443-5.611,9.397
					C185.017,150.072,176.112,155.585,166.295,157.321z"/>
				<defs>
					
						<filter id="Adobe_OpacityMaskFilter_00000067926385202275486820000005040607942406755223_" filterUnits="userSpaceOnUse" x="220.909" y="101.262" width="54.45" height="42.853">
						<feFlood  style="flood-color:white;flood-opacity:1" result="back"/>
						<feBlend  in="SourceGraphic" in2="back" mode="normal"/>
					</filter>
				</defs>
				
					<mask maskUnits="userSpaceOnUse" x="220.909" y="101.262" width="54.45" height="42.853" id="SVGID_00000093884852205931257890000007055417379386349219_">
					<g style="filter:url(#Adobe_OpacityMaskFilter_00000067926385202275486820000005040607942406755223_);">
						<defs>
							
								<filter id="Adobe_OpacityMaskFilter_00000052101802426843293800000003723029342815682970_" filterUnits="userSpaceOnUse" x="220.909" y="101.262" width="54.45" height="42.853">
								<feFlood  style="flood-color:white;flood-opacity:1" result="back"/>
								<feBlend  in="SourceGraphic" in2="back" mode="normal"/>
							</filter>
						</defs>
						
							<mask maskUnits="userSpaceOnUse" x="220.909" y="101.262" width="54.45" height="42.853" id="SVGID_00000093884852205931257890000007055417379386349219_">
							<g style="filter:url(#Adobe_OpacityMaskFilter_00000052101802426843293800000003723029342815682970_);">
							</g>
						</mask>
						
							<linearGradient id="SVGID_00000176012333039319132870000009375373843217808027_" gradientUnits="userSpaceOnUse" x1="256.9854" y1="102.3782" x2="240.4001" y2="147.9461">
							<stop  offset="0" style="stop-color:#000000"/>
							<stop  offset="0.2264" style="stop-color:#030303"/>
							<stop  offset="0.3626" style="stop-color:#0B0B0B"/>
							<stop  offset="0.475" style="stop-color:#191919"/>
							<stop  offset="0.5744" style="stop-color:#2E2E2E"/>
							<stop  offset="0.6652" style="stop-color:#484848"/>
							<stop  offset="0.7498" style="stop-color:#686868"/>
							<stop  offset="0.8297" style="stop-color:#8F8F8F"/>
							<stop  offset="0.9057" style="stop-color:#BBBBBB"/>
							<stop  offset="0.9761" style="stop-color:#EDEDED"/>
							<stop  offset="1" style="stop-color:#FFFFFF"/>
						</linearGradient>
						
							<path style="mask:url(#SVGID_00000093884852205931257890000007055417379386349219_);fill:url(#SVGID_00000176012333039319132870000009375373843217808027_);" d="
							M237.14,101.262c-7.012,10.386-13.631,31.04-16.139,39.392c-0.406,1.351,0.579,2.723,1.767,2.451
							c9.075-2.081,33.834,0.309,40.441,1.003c0.843,0.088,1.588-0.63,1.695-1.624c0.983-9.154,10.454-41.221,10.454-41.221H237.14z
							"/>
					</g>
				</mask>
				
					<linearGradient id="SVGID_00000144312568430154041310000014111289322660963490_" gradientUnits="userSpaceOnUse" x1="256.9854" y1="102.3782" x2="240.4001" y2="147.9461">
					<stop  offset="0" style="stop-color:#FFFFFF"/>
					<stop  offset="0.2264" style="stop-color:#FDFCFD"/>
					<stop  offset="0.3626" style="stop-color:#F5F4F7"/>
					<stop  offset="0.475" style="stop-color:#E7E6EC"/>
					<stop  offset="0.5744" style="stop-color:#D3D1DD"/>
					<stop  offset="0.6652" style="stop-color:#BAB7CA"/>
					<stop  offset="0.7498" style="stop-color:#9B97B2"/>
					<stop  offset="0.8297" style="stop-color:#767095"/>
					<stop  offset="0.9057" style="stop-color:#4C4474"/>
					<stop  offset="0.9761" style="stop-color:#1D1250"/>
					<stop  offset="1" style="stop-color:#0B0042"/>
				</linearGradient>
				<path style="opacity:0.35;fill:url(#SVGID_00000144312568430154041310000014111289322660963490_);" d="M237.14,101.262
					c-7.012,10.386-13.631,31.04-16.139,39.392c-0.406,1.351,0.579,2.723,1.767,2.451c9.075-2.081,33.834,0.309,40.441,1.003
					c0.843,0.088,1.588-0.63,1.695-1.624c0.983-9.154,10.454-41.221,10.454-41.221H237.14z"/>
				<polygon style="fill:#FF8888;" points="250.039,198.083 250.039,209.39 246.058,202.383 				"/>
				<path style="fill:#FF5555;" d="M264.007,222.389c-0.079-0.016-0.157,0.001-0.22,0.047c-3.513,2.587-8.606,5.201-14.768,4.775
					c-4.925-0.34-9.043-2.52-12.097-4.775c-0.08-0.059-0.187-0.071-0.287-0.026c-0.174,0.079-0.202,0.319-0.066,0.453
					c2.78,2.729,7.13,6.031,12.599,6.456c6.671,0.519,11.932-3.48,14.958-6.44C264.321,222.691,264.273,222.443,264.007,222.389z"/>
				<path style="fill:#1B1464;" d="M202.651,164.96c2.416-1.401,5.015-2.498,7.707-3.313c2.694-0.807,5.494-1.311,8.322-1.444
					c2.826-0.134,5.681,0.117,8.425,0.802c0.685,0.174,1.365,0.367,2.033,0.594c0.337,0.104,0.663,0.24,0.995,0.358
					c0.331,0.12,0.658,0.25,0.981,0.388c1.29,0.561,2.54,1.206,3.705,1.978c-1.296-0.521-2.594-1.004-3.918-1.39
					c-1.321-0.392-2.658-0.709-4.005-0.949c-2.694-0.482-5.431-0.635-8.158-0.509c-2.728,0.127-5.445,0.527-8.126,1.137
					C207.928,163.216,205.288,164.042,202.651,164.96z"/>
				<path style="fill:#1B1464;" d="M265.075,164.96c2.416-1.401,5.015-2.498,7.707-3.313c2.694-0.807,5.494-1.311,8.322-1.444
					c2.826-0.134,5.681,0.117,8.425,0.802c0.685,0.174,1.365,0.367,2.033,0.594c0.337,0.104,0.664,0.24,0.995,0.358
					c0.331,0.12,0.658,0.25,0.981,0.388c1.29,0.561,2.54,1.206,3.705,1.978c-1.296-0.521-2.594-1.004-3.918-1.39
					c-1.321-0.392-2.658-0.709-4.004-0.949c-2.694-0.482-5.431-0.635-8.158-0.509c-2.728,0.127-5.445,0.527-8.126,1.137
					C270.352,163.216,267.711,164.042,265.075,164.96z"/>
				<path style="fill:#0A0935;" d="M273.292,257.193v10.225c-15.244,4.803-31.259,4.803-46.503,0.002v-10.225
					C241.946,262.888,258.137,262.889,273.292,257.193z"/>
				<path d="M263.629,260.026c-3.472,3.65-7.796,7.424-13.113,10.832c-0.084,0.054-0.169,0.108-0.253,0.161
					c-7.888,0.024-15.779-1.175-23.473-3.599v-10.225C238.764,261.692,251.385,262.638,263.629,260.026z"/>
				<g>
					<path style="fill:#FFFFFF;" d="M293.875,179.775c-0.113,0.668-0.346,1.595-0.758,2.642c-0.423,1.071-1.033,2.266-1.883,3.431
						c-1.413,1.928-3.492,3.78-6.503,4.86c-1.069,0.385-2.212,0.518-3.339,0.391c-7.477-0.828-10.006-1.512-13.271-1.631
						c-2.191-1.031-2.943-2.693-2.855-5.096c0.007-0.178,0.018-0.36,0.034-0.547c0.052-0.626,0.2-1.298,0.398-1.964
						c0.394-1.325,0.981-2.619,1.388-3.443l0.079-0.027l0.297-0.097l0.299-0.094l0.598-0.187c0.801-0.236,1.598-0.466,2.403-0.664
						c0.803-0.205,1.611-0.378,2.419-0.536c0.808-0.158,1.62-0.286,2.432-0.4c0.812-0.104,1.627-0.191,2.443-0.25
						c0.203-0.016,0.407-0.025,0.612-0.038c0.101-0.007,0.203-0.014,0.306-0.018l0.306-0.011c0.407-0.02,0.817-0.025,1.226-0.031
						c1.634-0.009,3.269,0.072,4.896,0.266c1.627,0.191,3.249,0.481,4.858,0.864c1.226,0.297,2.443,0.641,3.654,1.042
						C293.987,178.576,293.992,179.066,293.875,179.775z"/>
					<path style="fill:#CCCCCC;" d="M293.875,179.775c-0.113,0.668-0.346,1.595-0.758,2.642c-0.423,1.071-1.033,2.266-1.883,3.431
						c-0.02,0-0.04,0.002-0.059,0.002c-7.609,0.387-10.024-5.681-15.525-4.05c-3.321,0.983-4.828,3.904-8.325,3.375
						c-0.788-0.119-0.943-0.301-2.059-0.803c0.007-0.178,0.018-0.36,0.034-0.547c0.052-0.626,0.2-1.298,0.398-1.964
						c0.394-1.325,0.981-2.619,1.388-3.443l0.079-0.027l0.297-0.097l0.299-0.094l0.598-0.187c0.801-0.236,1.598-0.466,2.403-0.664
						c0.803-0.205,1.611-0.378,2.419-0.536c0.808-0.158,1.62-0.286,2.432-0.4c0.812-0.104,1.627-0.191,2.443-0.25
						c0.203-0.016,0.407-0.025,0.612-0.038c0.101-0.007,0.203-0.014,0.306-0.018l0.306-0.011c0.407-0.02,0.817-0.025,1.226-0.031
						c1.634-0.009,3.269,0.072,4.896,0.266c1.627,0.191,3.249,0.481,4.858,0.864c1.226,0.297,2.443,0.641,3.654,1.042
						C293.987,178.576,293.992,179.066,293.875,179.775z"/>
					<path style="fill:#999999;" d="M293.875,179.775c-0.113,0.668-0.346,1.595-0.758,2.642c-0.308,0.027-0.585,0.045-0.817,0.059
						c-7.875,0.49-11.203-5.015-16.65-2.925c-1.843,0.706-2.38,1.69-4.95,2.25c-1.782,0.389-3.319,0.306-5.002,0.061
						c0.394-1.325,0.981-2.619,1.388-3.443l0.079-0.027l0.297-0.097l0.299-0.094l0.598-0.187c0.801-0.236,1.598-0.466,2.403-0.664
						c0.803-0.205,1.611-0.378,2.419-0.536c0.808-0.158,1.62-0.286,2.432-0.4c0.812-0.104,1.627-0.191,2.443-0.25
						c0.203-0.016,0.407-0.025,0.612-0.038c0.101-0.007,0.203-0.014,0.306-0.018l0.306-0.011c0.407-0.02,0.817-0.025,1.226-0.031
						c1.634-0.009,3.269,0.072,4.896,0.266c1.627,0.191,3.249,0.481,4.858,0.864c1.226,0.297,2.443,0.641,3.654,1.042
						C293.987,178.576,293.992,179.066,293.875,179.775z"/>
					<path style="fill:#070719;" d="M291.175,179.325c0,2.025-0.693,3.904-1.881,5.456c-1.944,2.547-5.213,4.219-8.919,4.219
						c-3.706,0-6.975-1.672-8.919-4.219c-1.188-1.553-1.881-3.431-1.881-5.456c0-0.583,0.058-1.154,0.169-1.708
						c0.34-0.094,0.677-0.185,1.019-0.268c0.803-0.205,1.611-0.378,2.419-0.536c0.808-0.158,1.62-0.286,2.432-0.4
						c0.812-0.104,1.627-0.191,2.443-0.25c0.203-0.016,0.407-0.025,0.612-0.038c0.101-0.007,0.203-0.014,0.306-0.018l0.306-0.011
						c0.407-0.02,0.817-0.025,1.226-0.031c1.634-0.009,3.269,0.072,4.896,0.266c1.627,0.191,3.249,0.481,4.858,0.864
						c0.232,0.056,0.464,0.115,0.693,0.173C291.098,178,291.175,178.654,291.175,179.325z"/>
					<path style="fill:#1B1464;" d="M299.714,180.617c-1.024-0.518-2.057-0.977-3.098-1.393
						c-2.209,10.024-11.515,12.701-13.54,12.476c-1.611-0.18-10.773-1.498-14.45-2.029c-0.943-0.135-1.525-0.221-1.525-0.221
						c0.353,0,0.691,0.007,1.021,0.018c3.265,0.119,5.794,0.803,13.271,1.631c1.127,0.126,2.27-0.007,3.339-0.391
						c6.611-2.374,8.73-8.453,9.144-10.933c0.117-0.709,0.112-1.199,0.04-1.539c-0.981-0.324-1.969-0.612-2.961-0.868
						c-0.229-0.058-0.461-0.117-0.693-0.173c-1.609-0.382-3.231-0.673-4.858-0.864c-1.627-0.194-3.262-0.275-4.896-0.266
						c-0.409,0.007-0.819,0.011-1.226,0.031l-0.306,0.011c-0.103,0.005-0.205,0.011-0.306,0.018
						c-0.205,0.014-0.409,0.022-0.612,0.038c-0.817,0.058-1.631,0.146-2.443,0.25c-0.812,0.115-1.625,0.243-2.432,0.4
						c-0.808,0.158-1.616,0.331-2.419,0.536c-0.342,0.083-0.68,0.173-1.019,0.268c-0.461,0.126-0.922,0.259-1.384,0.396
						l-0.598,0.187l-0.299,0.094l-0.297,0.097l-0.079,0.027l-0.52,0.171c-0.198,0.065-0.394,0.142-0.594,0.209
						c-0.198,0.07-0.398,0.135-0.596,0.207c-0.196,0.074-0.394,0.151-0.592,0.223c-0.401,0.137-0.79,0.304-1.188,0.45
						c-0.2,0.074-0.396,0.157-0.594,0.234l-0.596,0.236c-0.396,0.16-0.79,0.329-1.195,0.479c0.326-0.279,0.661-0.551,0.999-0.819
						l0.518-0.389c0.173-0.13,0.346-0.257,0.524-0.378c0.355-0.247,0.711-0.493,1.076-0.725c0.182-0.117,0.367-0.23,0.549-0.344
						c0.184-0.115,0.373-0.223,0.56-0.333c0.747-0.439,1.519-0.842,2.304-1.22c0.196-0.092,0.396-0.182,0.594-0.272
						c0.198-0.088,0.396-0.182,0.599-0.263l0.378-0.155l-0.506,0.16l-0.263,0.083l-0.263,0.09l-0.529,0.178
						c-0.176,0.059-0.349,0.128-0.524,0.191c-0.176,0.063-0.351,0.124-0.524,0.189l-0.522,0.202
						c-0.351,0.128-0.693,0.277-1.042,0.414c-0.176,0.068-0.346,0.144-0.52,0.216l-0.52,0.22c-0.346,0.146-0.686,0.304-1.037,0.45
						c0.151-0.115,0.304-0.225,0.457-0.335c0.155-0.11,0.306-0.223,0.464-0.331l0.47-0.315c0.157-0.106,0.317-0.209,0.479-0.308
						c0.322-0.198,0.643-0.4,0.974-0.585l0.495-0.281c0.167-0.092,0.335-0.178,0.504-0.268c0.673-0.356,1.363-0.675,2.063-0.981
						c0.178-0.074,0.353-0.146,0.531-0.218c0.178-0.07,0.353-0.144,0.533-0.209l0.538-0.198c0.167-0.065,0.338-0.117,0.506-0.173
						c0.013-0.005,0.025-0.009,0.038-0.014c0.139-0.047,0.279-0.092,0.418-0.135c1.321-0.423,2.68-0.736,4.055-0.958
						c0.191-0.029,0.38-0.056,0.571-0.081c0.191-0.029,0.383-0.049,0.574-0.07c0.383-0.045,0.767-0.077,1.152-0.108
						c0.77-0.047,1.541-0.068,2.313-0.059c0.772,0.018,1.543,0.063,2.311,0.142c0.765,0.083,1.53,0.191,2.286,0.34
						c0.756,0.149,1.507,0.324,2.245,0.535c0.185,0.054,0.369,0.106,0.553,0.164c0.182,0.058,0.367,0.11,0.549,0.175
						c0,0,0.538,0.178,1.085,0.385c0.153,0.058,0.304,0.117,0.454,0.178c3.087,1.238,5.902,3.062,5.902,3.062
						C296.73,178.223,298.166,179.249,299.714,180.617z"/>
					<path style="fill:#FFFFFF;" d="M289.294,184.781c-1.944,2.547-5.213,4.219-8.919,4.219c-3.706,0-6.975-1.672-8.919-4.219
						c1.944-2.545,5.213-4.216,8.919-4.216C284.081,180.565,287.35,182.236,289.294,184.781z"/>
				</g>
				<g>
					<path style="fill:#FFFFFF;" d="M206.076,179.775c0.113,0.668,0.346,1.595,0.758,2.642c0.423,1.071,1.033,2.266,1.883,3.431
						c1.413,1.928,3.492,3.78,6.503,4.86c1.069,0.385,2.212,0.518,3.339,0.391c7.477-0.828,10.006-1.512,13.271-1.631
						c2.191-1.031,2.943-2.693,2.855-5.096c-0.007-0.178-0.018-0.36-0.034-0.547c-0.052-0.626-0.2-1.298-0.398-1.964
						c-0.394-1.325-0.981-2.619-1.388-3.443l-0.079-0.027l-0.297-0.097l-0.299-0.094l-0.598-0.187
						c-0.801-0.236-1.598-0.466-2.403-0.664c-0.803-0.205-1.611-0.378-2.419-0.536c-0.808-0.158-1.62-0.286-2.432-0.4
						c-0.812-0.104-1.627-0.191-2.443-0.25c-0.203-0.016-0.407-0.025-0.612-0.038c-0.101-0.007-0.203-0.014-0.306-0.018
						l-0.306-0.011c-0.407-0.02-0.817-0.025-1.226-0.031c-1.634-0.009-3.269,0.072-4.896,0.266
						c-1.627,0.191-3.249,0.481-4.858,0.864c-1.226,0.297-2.443,0.641-3.654,1.042C205.963,178.576,205.958,179.066,206.076,179.775
						z"/>
					<path style="fill:#CCCCCC;" d="M206.076,179.775c0.113,0.668,0.346,1.595,0.758,2.642c0.423,1.071,1.033,2.266,1.883,3.431
						c0.02,0,0.04,0.002,0.059,0.002c7.609,0.387,10.024-5.681,15.525-4.05c3.321,0.983,4.829,3.904,8.325,3.375
						c0.788-0.119,0.943-0.301,2.059-0.803c-0.007-0.178-0.018-0.36-0.034-0.547c-0.052-0.626-0.2-1.298-0.398-1.964
						c-0.394-1.325-0.981-2.619-1.388-3.443l-0.079-0.027l-0.297-0.097l-0.299-0.094l-0.598-0.187
						c-0.801-0.236-1.598-0.466-2.403-0.664c-0.803-0.205-1.611-0.378-2.419-0.536c-0.808-0.158-1.62-0.286-2.432-0.4
						c-0.812-0.104-1.627-0.191-2.443-0.25c-0.203-0.016-0.407-0.025-0.612-0.038c-0.101-0.007-0.203-0.014-0.306-0.018
						l-0.306-0.011c-0.407-0.02-0.817-0.025-1.226-0.031c-1.634-0.009-3.269,0.072-4.896,0.266
						c-1.627,0.191-3.249,0.481-4.858,0.864c-1.226,0.297-2.443,0.641-3.654,1.042C205.963,178.576,205.958,179.066,206.076,179.775
						z"/>
					<path style="fill:#999999;" d="M206.076,179.775c0.113,0.668,0.346,1.595,0.758,2.642c0.308,0.027,0.585,0.045,0.817,0.059
						c7.875,0.49,11.203-5.015,16.65-2.925c1.843,0.706,2.381,1.69,4.95,2.25c1.782,0.389,3.319,0.306,5.002,0.061
						c-0.394-1.325-0.981-2.619-1.388-3.443l-0.079-0.027l-0.297-0.097l-0.299-0.094l-0.598-0.187
						c-0.801-0.236-1.598-0.466-2.403-0.664c-0.803-0.205-1.611-0.378-2.419-0.536c-0.808-0.158-1.62-0.286-2.432-0.4
						c-0.812-0.104-1.627-0.191-2.443-0.25c-0.203-0.016-0.407-0.025-0.612-0.038c-0.101-0.007-0.203-0.014-0.306-0.018
						l-0.306-0.011c-0.407-0.02-0.817-0.025-1.226-0.031c-1.634-0.009-3.269,0.072-4.896,0.266
						c-1.627,0.191-3.249,0.481-4.858,0.864c-1.226,0.297-2.443,0.641-3.654,1.042C205.963,178.576,205.958,179.066,206.076,179.775
						z"/>
					<path style="fill:#070719;" d="M208.775,179.325c0,2.025,0.693,3.904,1.881,5.456c1.944,2.547,5.213,4.219,8.919,4.219
						c3.706,0,6.975-1.672,8.919-4.219c1.188-1.553,1.881-3.431,1.881-5.456c0-0.583-0.058-1.154-0.169-1.708
						c-0.34-0.094-0.677-0.185-1.019-0.268c-0.803-0.205-1.611-0.378-2.419-0.536c-0.808-0.158-1.62-0.286-2.432-0.4
						c-0.812-0.104-1.627-0.191-2.443-0.25c-0.203-0.016-0.407-0.025-0.612-0.038c-0.101-0.007-0.203-0.014-0.306-0.018
						l-0.306-0.011c-0.407-0.02-0.817-0.025-1.226-0.031c-1.634-0.009-3.269,0.072-4.896,0.266
						c-1.627,0.191-3.249,0.481-4.858,0.864c-0.232,0.056-0.464,0.115-0.693,0.173C208.852,178,208.775,178.654,208.775,179.325z"/>
					<path style="fill:#1B1464;" d="M200.237,180.617c1.024-0.518,2.056-0.977,3.098-1.393c2.209,10.024,11.515,12.701,13.54,12.476
						c1.611-0.18,10.773-1.498,14.45-2.029c0.943-0.135,1.525-0.221,1.525-0.221c-0.353,0-0.691,0.007-1.021,0.018
						c-3.265,0.119-5.794,0.803-13.271,1.631c-1.127,0.126-2.27-0.007-3.339-0.391c-6.611-2.374-8.73-8.453-9.144-10.933
						c-0.117-0.709-0.113-1.199-0.04-1.539c0.981-0.324,1.969-0.612,2.961-0.868c0.229-0.058,0.461-0.117,0.693-0.173
						c1.609-0.382,3.231-0.673,4.858-0.864c1.627-0.194,3.262-0.275,4.896-0.266c0.41,0.007,0.819,0.011,1.226,0.031l0.306,0.011
						c0.103,0.005,0.205,0.011,0.306,0.018c0.205,0.014,0.409,0.022,0.612,0.038c0.817,0.058,1.631,0.146,2.443,0.25
						c0.812,0.115,1.625,0.243,2.432,0.4c0.808,0.158,1.615,0.331,2.419,0.536c0.342,0.083,0.68,0.173,1.019,0.268
						c0.461,0.126,0.923,0.259,1.384,0.396l0.598,0.187l0.299,0.094l0.297,0.097l0.079,0.027l0.52,0.171
						c0.198,0.065,0.394,0.142,0.594,0.209c0.198,0.07,0.398,0.135,0.596,0.207c0.196,0.074,0.394,0.151,0.592,0.223
						c0.401,0.137,0.79,0.304,1.188,0.45c0.2,0.074,0.396,0.157,0.594,0.234l0.596,0.236c0.396,0.16,0.79,0.329,1.195,0.479
						c-0.326-0.279-0.661-0.551-0.999-0.819l-0.518-0.389c-0.173-0.13-0.346-0.257-0.524-0.378
						c-0.355-0.247-0.711-0.493-1.076-0.725c-0.182-0.117-0.367-0.23-0.549-0.344c-0.184-0.115-0.374-0.223-0.56-0.333
						c-0.747-0.439-1.519-0.842-2.304-1.22c-0.196-0.092-0.396-0.182-0.594-0.272c-0.198-0.088-0.396-0.182-0.598-0.263
						l-0.378-0.155l0.506,0.16l0.263,0.083l0.263,0.09l0.529,0.178c0.176,0.059,0.349,0.128,0.524,0.191
						c0.176,0.063,0.351,0.124,0.524,0.189l0.522,0.202c0.351,0.128,0.693,0.277,1.042,0.414c0.176,0.068,0.346,0.144,0.52,0.216
						l0.52,0.22c0.346,0.146,0.686,0.304,1.037,0.45c-0.151-0.115-0.304-0.225-0.457-0.335c-0.155-0.11-0.306-0.223-0.464-0.331
						l-0.47-0.315c-0.157-0.106-0.317-0.209-0.479-0.308c-0.322-0.198-0.643-0.4-0.974-0.585l-0.495-0.281
						c-0.167-0.092-0.335-0.178-0.504-0.268c-0.673-0.356-1.363-0.675-2.063-0.981c-0.178-0.074-0.353-0.146-0.531-0.218
						c-0.178-0.07-0.353-0.144-0.533-0.209l-0.538-0.198c-0.167-0.065-0.338-0.117-0.506-0.173
						c-0.014-0.005-0.025-0.009-0.038-0.014c-0.139-0.047-0.279-0.092-0.418-0.135c-1.321-0.423-2.68-0.736-4.055-0.958
						c-0.191-0.029-0.38-0.056-0.571-0.081c-0.191-0.029-0.383-0.049-0.574-0.07c-0.382-0.045-0.767-0.077-1.152-0.108
						c-0.77-0.047-1.541-0.068-2.313-0.059c-0.772,0.018-1.544,0.063-2.311,0.142c-0.765,0.083-1.53,0.191-2.286,0.34
						c-0.756,0.149-1.507,0.324-2.245,0.535c-0.184,0.054-0.369,0.106-0.553,0.164c-0.182,0.058-0.367,0.11-0.549,0.175
						c0,0-0.538,0.178-1.085,0.385c-0.153,0.058-0.304,0.117-0.454,0.178c-3.087,1.238-5.902,3.062-5.902,3.062
						C203.22,178.223,201.785,179.249,200.237,180.617z"/>
					<path style="fill:#FFFFFF;" d="M210.656,184.781c1.944,2.547,5.213,4.219,8.919,4.219c3.706,0,6.975-1.672,8.919-4.219
						c-1.944-2.545-5.213-4.216-8.919-4.216C215.87,180.565,212.6,182.236,210.656,184.781z"/>
				</g>
			</g>
			<g>
				<path style="fill:#FCBF49;" d="M395.749,449.247H249.963c-11.784-0.006-23.567-0.013-35.351-0.019
					c-3.024-0.001-6.05-0.003-9.074-0.005c-4.581-0.003-9.163-0.005-13.745-0.008c-0.753,0-1.505,0-2.258-0.002
					c-5.938-0.003-11.881-0.006-17.82-0.01h-1.22c-1.414-0.002-2.828-0.002-4.242-0.002c-0.884-0.002-1.768-0.002-2.651-0.002
					c-12.125-0.008-24.25-0.014-36.376-0.021c-7.658-0.005-15.318-0.008-22.976-0.013c0,0,25.423-108.248,42.273-129.222
					c0.419-0.522,0.833-0.99,1.242-1.401c0.151-0.153,0.303-0.298,0.452-0.435c4.078-3.715,10.298-7.919,17.386-12.154
					c0.033-0.019,0.068-0.04,0.102-0.061c0.061-0.037,0.123-0.073,0.185-0.11c0.167-0.1,0.336-0.201,0.505-0.301
					c1.215-0.72,2.452-1.441,3.707-2.159c0.209-0.12,0.417-0.239,0.626-0.357c0.18-0.104,0.362-0.207,0.543-0.309
					c0.46-0.261,0.922-0.522,1.385-0.782c0.363-0.204,0.726-0.408,1.091-0.61c0.21-0.116,0.42-0.234,0.632-0.349
					c0.865-0.479,1.734-0.956,2.607-1.43c1.118-0.608,2.24-1.212,3.363-1.811c1.526-0.812,3.054-1.615,4.572-2.403
					c0.304-0.158,0.607-0.315,0.909-0.471c16.853-8.704,32.282-15.55,32.282-15.55c0.067,0.061,0.137,0.127,0.212,0.196
					c0.549,0.513,1.309,1.249,2.29,2.113c4.637,4.088,14.186,11.064,29.421,11.068c15.272,0.003,24.817-7.008,29.424-11.068
					c0.742-0.655,1.357-1.231,1.846-1.691c0.218-0.204,0.411-0.384,0.58-0.538c0,0,14.114,6.262,30.088,14.426
					c1.024,0.522,2.056,1.053,3.091,1.591c1.516,0.787,3.043,1.588,4.569,2.4c1.968,1.048,3.936,2.113,5.881,3.19
					c0.307,0.169,0.615,0.339,0.92,0.511c0.32,0.178,0.64,0.358,0.959,0.537c0.836,0.468,1.667,0.938,2.491,1.409
					c1.428,0.817,2.834,1.637,4.21,2.457c7.211,4.296,13.552,8.567,17.687,12.335c3.566,3.249,7.601,11.036,11.746,21.283
					c7.811,19.315,16.01,47.377,22.184,70.292C391.677,431.909,395.749,449.247,395.749,449.247z"/>
				<path style="opacity:0.2;fill:#0A0935;" d="M301.724,376.313h-3.844c0.108-0.901,0.221-1.803,0.339-2.707
					c5.069-38.781,11.01-67.529,13.754-79.847c1.024,0.522,2.056,1.053,3.091,1.591c-4.892,25.654-9.182,51.498-12.834,77.347
					C302.06,373.902,301.891,375.106,301.724,376.313z"/>
				<path style="opacity:0.2;fill:#0A0935;" d="M143.593,449.18c1.537,0.002,3.075,0.003,4.611,0.005
					c4.262,0.003,8.524,0.006,12.785,0.011c3.238,0.001,6.475,0.005,9.713,0.008c0.617-12.64,0.547-23.907,0.186-33.467
					c-0.372-9.851-1.301-24.43-3.885-41.972c-1.797-12.199-3.965-22.912-6.051-31.849c2.189,12.54,3.988,31.329,0.573,53.665
					C157.888,419.351,149.801,437.642,143.593,449.18z"/>
				<path style="opacity:0.1;fill:#0A0935;" d="M148.204,449.185c4.262,0.003,8.524,0.006,12.785,0.011
					c3.238,0.001,6.475,0.005,9.713,0.008c0,0,0.628-13.591,0.186-33.467c-0.273-12.243-0.952-26.871-2.433-42.176
					c-0.473,7.061-1.325,14.733-2.741,22.817C161.263,421.79,153.313,439.5,148.204,449.185z"/>
				<path style="opacity:0.5;fill:#0A0935;" d="M170.497,450c0.413,0,0.762-0.319,0.793-0.738c0.01-0.141,1.03-14.321,0.261-34.544
					c-0.71-18.667-3.132-46.462-10.639-72.861c-0.121-0.423-0.561-0.668-0.984-0.548c-0.423,0.12-0.668,0.561-0.548,0.984
					c7.464,26.247,9.873,53.905,10.579,72.486c0.766,20.135-0.247,34.226-0.258,34.366c-0.032,0.439,0.297,0.82,0.736,0.853
					C170.458,449.999,170.477,450,170.497,450z"/>
				<path style="opacity:0.5;fill:#0A0935;" d="M146.524,319.945c1.497,5.101,5.937,21.759,8.531,47.689
					c0.041,0.411,0.387,0.717,0.791,0.717c0.025,0,0.053-0.002,0.08-0.003c0.438-0.045,0.756-0.435,0.713-0.873
					c-2.793-27.927-7.73-45.194-8.873-48.931C147.357,318.955,146.943,319.423,146.524,319.945z"/>
				<path style="opacity:0.5;fill:#0A0935;" d="M249.39,298.868c5.027,0,10.794-0.755,16.777-3.026
					c0.411-0.156,0.618-0.616,0.462-1.027c-0.156-0.411-0.616-0.618-1.027-0.462c-10.017,3.8-19.42,3.205-25.545,2.036
					c-6.662-1.272-11.002-3.478-11.045-3.5c-4.575-2.358-8.702-5.615-12.267-9.681c-0.29-0.331-0.793-0.363-1.124-0.074
					c-0.331,0.29-0.364,0.793-0.074,1.124c3.697,4.216,7.982,7.596,12.736,10.047c0.183,0.094,4.548,2.318,11.419,3.638
					C242.39,298.459,245.69,298.868,249.39,298.868z"/>
				<path style="opacity:0.5;fill:#0A0935;" d="M273.53,292.181c0.14,0,0.281-0.037,0.41-0.114c3.764-2.263,7.186-5.26,8.891-6.845
					c0.322-0.299,0.34-0.803,0.041-1.125c-0.299-0.322-0.803-0.341-1.125-0.041c-1.659,1.543-4.986,4.457-8.627,6.646
					c-0.377,0.227-0.499,0.716-0.272,1.093C272.996,292.044,273.259,292.181,273.53,292.181z"/>
				<path style="opacity:0.5;fill:#0A0935;" d="M328.855,450c0.02,0,0.039-0.001,0.059-0.002c0.439-0.032,0.768-0.414,0.736-0.853
					c-0.01-0.14-1.024-14.25-0.257-34.389c0.707-18.574,3.117-46.223,10.579-72.463c0.12-0.423-0.125-0.863-0.548-0.984
					c-0.423-0.121-0.863,0.125-0.984,0.548c-7.507,26.399-9.929,54.194-10.639,72.861c-0.769,20.223,0.25,34.403,0.261,34.544
					C328.093,449.681,328.442,450,328.855,450z"/>
				<path style="opacity:0.2;fill:#0A0935;" d="M376.56,405.614c1.529,15.862,1.82,30.507,1.406,43.633h17.783
					c0,0-5.914-25.178-13.926-53.603c-5.52-19.573-12.033-40.684-18.296-56.172C369.029,357.732,374.093,379.998,376.56,405.614z"/>
				<path style="opacity:0.1;fill:#0A0935;" d="M382.93,405.614c1.529,15.862,1.82,30.507,1.406,43.633h11.413
					c0,0-5.914-25.178-13.926-53.603C382.234,398.907,382.605,402.232,382.93,405.614z"/>
				<path style="opacity:0.25;fill:#0A0935;" d="M298.211,449.247h30.811c-0.108-0.029-0.166-0.043-0.166-0.043
					s-0.729-9.904-0.503-25.165c0.167-11.354,0.863-25.675,2.784-41.09c-1.225,8.76-4.022,21.53-10.95,35.564
					C313.133,432.805,304.505,442.924,298.211,449.247z"/>
				<path style="opacity:0.25;fill:#0A0935;" d="M313.55,449.247h15.472c-0.108-0.029-0.166-0.043-0.166-0.043
					s-0.729-9.904-0.503-25.165c-0.793,1.846-1.654,3.721-2.592,5.621C321.945,437.39,317.669,443.9,313.55,449.247z"/>
				<path style="fill:#0A0935;" d="M174.381,300.919c-0.576,0.318-1.151,0.639-1.723,0.959c0.363-0.204,0.726-0.408,1.091-0.61
					C173.959,301.151,174.169,301.033,174.381,300.919z"/>
				<path style="opacity:0.2;fill:#0A0935;" d="M182.112,376.327c-2.44,0.18-4.367,2.212-4.374,4.698
					c-0.067,22.914-1.978,45.706-6.021,68.179h-1.22c-1.414-0.002-2.828-0.002-4.242-0.002c6.107-9.394,5.37-62.305,5.524-69.068
					c0.159-7.007,2.707-9.236,4.618-8.758c1.852,0.463-10.05-61.564-10.792-65.421c0.033-0.019,0.068-0.04,0.102-0.061
					c0.061-0.037,0.123-0.073,0.185-0.11c0.167-0.1,0.336-0.201,0.505-0.301c1.215-0.72,2.452-1.441,3.707-2.159
					c4.545,24.159,8.547,48.504,12.002,72.988L182.112,376.327z"/>
				<g>
					<path style="fill:#1B1464;" d="M327.399,449.247h-155.69c0.003-0.014,0.005-0.029,0.008-0.043
						c4.043-22.473,5.954-45.265,6.021-68.179c0.008-2.486,1.935-4.518,4.374-4.698c0.116-0.01,0.236-0.014,0.355-0.014h134.17
						c2.607,0,4.723,2.107,4.729,4.712C321.434,403.953,323.35,426.76,327.399,449.247z"/>
					<path style="fill:#0A0935;" d="M305.753,430.141l-0.47,19.106h-1.911l0.47-19.152c0.025-1.084-0.378-2.112-1.137-2.892
						c-0.76-0.777-1.776-1.206-2.862-1.206H199.265c-1.086,0-2.104,0.428-2.863,1.207c-0.76,0.777-1.163,1.806-1.135,2.89
						l0.468,19.152h-1.911l-0.468-19.106c-0.038-1.605,0.557-3.123,1.678-4.271c1.121-1.15,2.624-1.784,4.231-1.784h100.579
						c1.605,0,3.108,0.634,4.23,1.784C305.194,427.02,305.791,428.536,305.753,430.141z"/>
					<path style="fill:#0A0935;" d="M191.962,391.403c-0.259,0.025-0.522,0.038-0.79,0.038c-2.003,0-3.851-0.741-5.265-1.976
						c-1.414-1.236-2.395-2.968-2.666-4.952c-0.371-2.734-0.75-5.469-1.135-8.2c-3.456-24.484-7.457-48.829-12.002-72.988
						c2.25-1.29,4.558-2.572,6.884-3.836c1.118-0.608,2.24-1.212,3.363-1.811c1.526-0.812,3.054-1.615,4.572-2.403
						c4.897,25.68,9.19,51.549,12.846,77.422c0.17,1.206,0.339,2.409,0.506,3.616c0.28,2.015,0.557,4.031,0.83,6.05
						C199.718,386.903,196.417,390.968,191.962,391.403z"/>
					<path style="fill:#0A0935;" d="M329.884,303.396c-4.54,24.135-8.537,48.457-11.988,72.917c-0.387,2.731-0.766,5.464-1.137,8.2
						c-0.443,3.269-2.82,5.854-5.881,6.663c-0.656,0.173-1.342,0.266-2.049,0.266h-0.002c-4.847,0-8.582-4.274-7.932-9.079
						c0.272-2.019,0.548-4.035,0.83-6.05c0.167-1.207,0.336-2.411,0.506-3.616c3.652-25.849,7.942-51.693,12.834-77.347
						c1.516,0.787,3.043,1.588,4.569,2.4c2.605,1.387,5.209,2.804,7.76,4.237C328.229,302.455,329.06,302.925,329.884,303.396z"/>
					<circle style="fill:#FFFFFF;" cx="191.27" cy="384.435" r="4.3"/>
					<circle style="fill:#FFFFFF;" cx="308.445" cy="384.435" r="4.3"/>
				</g>
				<path style="opacity:0.1;fill:#FFFFFF;" d="M327.399,449.247h-16.495c-0.349-11.443-0.922-36.65-0.027-58.072
					c0.048-1.113,0.097-2.215,0.151-3.304c0.113-2.241,0.242-4.425,0.393-6.537c0.123-1.728,0.258-3.405,0.408-5.021
					c0.433-4.634,0.983-8.76,1.677-12.103c3.879-18.665,10.802-48.863,13.886-62.223c0.836,0.468,1.667,0.938,2.491,1.409
					c-4.54,24.135-8.537,48.457-11.988,72.917h3.484C321.182,400.827,323.073,425.22,327.399,449.247z"/>
			</g>
		</g>
	</g>
</g>
</svg>
