<?xml version="1.0" encoding="utf-8"?>
<!-- Generator: Adobe Illustrator 27.5.0, SVG Export Plug-In . SVG Version: 6.00 Build 0)  -->
<svg version="1.1" id="Layer_1" xmlns="http://www.w3.org/2000/svg" xmlns:xlink="http://www.w3.org/1999/xlink" x="0px" y="0px"
	 viewBox="0 0 1920 1080" style="enable-background:new 0 0 1920 1080;" xml:space="preserve">
<path style="fill:#FEFEFE;" d="M0,0h1918.363c0.77,1.138,1.477,2.367,1.646,3.75c1.034,8.597,0.042,18.731,0.042,27.471
	l0.053,62.452l0.084,207.979l-0.01,544.747l-0.084,162.089l-0.042,47.974c-0.011,6.391,0.77,14.006-0.042,20.261
	c-0.158,1.234-0.886,2.32-1.646,3.28H0V0z"/>
<linearGradient id="SVGID_1_" gradientUnits="userSpaceOnUse" x1="954.3537" y1="96.5146" x2="838.2301" y2="993.3409" gradientTransform="matrix(1.0549 0 0 -1.0547 -36.3767 1130.3862)">
	<stop  offset="0" style="stop-color:#311739"/>
	<stop  offset="1" style="stop-color:#541737"/>
</linearGradient>
<path style="fill:url(#SVGID_1_);" d="M977.51,66.967l1.381-0.11c50.34-2.786,112.16,6.12,150.592,41.393
	c20.614,18.911,31.269,41.48,32.408,69.313l9.885,1.934c28.072,6.967,58.813,22.665,73.963,48.346
	c20.909,35.443,1.941,82.721-9.779,118.394l-15.138,50.413l8.503,1.41c12.786,2.099,23.04,9.293,30.499,19.691
	c12.132,16.926,14.316,39.55,11.056,59.615c-5.159,31.728-24.464,63.278-50.659,82.033c-19.031,13.63-39.909,21.248-63.487,17.396
	c-1.92,2.279-2.268,18.396-2.627,22.287c-0.707,7.549-0.612,16.418-4.895,22.951c-4.536,6.931-14.822,12.876-21.426,18.222
	l-66.114,53.07c11.436,6.369,106.466,59.887,109.156,64.805c1.688,3.094,1.16,6.966-0.032,10.093l-0.317,0.817
	c2.574,3.791,157.43,54.867,177.516,64.576c8.672,4.19,16.457,12.851,22.745,20.014c26.521,30.192,44.413,65.328,57.885,102.938
	c-14.252,2.791-28.399,7.375-42.578,10.701l-78.214,15.757c-132.723,23.427-267.124,31.218-401.734,28.567l-99.471-4.762
	c-76.064-5.346-151.342-14.308-226.099-29.485c-28.786-5.845-59.618-12.022-87.183-22.419l17.604-46.253
	c10.236-20.795,23.194-40.809,38.64-58.121c4.901-5.494,10.55-12.046,16.502-16.379c4.672-3.402,13.266-5.198,18.913-7.105
	l38-12.965l128.66-44.17l-3.623-11.975l111.853-66.433l-88.858-69.732c-1.228-4.301-1.366-9.001-1.966-13.436l-3.239-28.466
	c-24.149-1.087-45.978-8.023-65.869-22.055c-27.734-19.562-47.503-49.941-53.15-83.492c-2.949-17.517-0.838-37.815,9.804-52.483
	c11.415-15.735,25.388-21.995,44.087-25.044l-30.019-91.327c-6.294-19.972-14.786-39.781-16.058-60.832
	c-0.757-12.51,2.354-25.664,7.491-37.049c7.917-17.541,21.466-28.943,39.246-35.661c-5.994-7.773-14.797-17.738-15.836-27.842
	c-0.517-5.019,3.861-21.216,7.481-24.903c4.548-4.632,9.8-0.495,13.682,2.384c6.175,4.581,13.459,6.762,20.968,7.913
	c31.971,4.902,65.823-12.576,94.8-23.944l56.935-20.547C911.547,75.009,943.909,68.89,977.51,66.967z"/>
<path style="fill:#252D4E;" d="M1076.556,723.161c-1.741-4.509-16.341-11.11-20.709-14.574l0.253-1.714l1.878-0.79l19.158,10.406
	l-0.633,5.632L1076.556,723.161z"/>
<path style="fill:#252D4E;" d="M842.601,714.829c7.346-4.635,18.693-11.488,27.104-13.225c-4.774,5.48-10.656,8.872-16.622,12.879
	c-4.003,2.688-8.26,4.628-9.846,9.354l-0.22-1.977L842.601,714.829z"/>
<path style="fill:#40546C;" d="M1095.724,877.931l1.435,1.756c-1.118,3.271-0.538,4.21,0.443,7.404l0.918,0.489
	c2.289-2.788,3.671-5.733,5.865-8.203l0.201,1.11c-1.055,5.484-7.849,13.293-11.056,18.065l-18.472,27.155
	c-2.68,3.779-5.37,8.279-8.535,11.656c0.981-6.447,6.045-12.961,9.136-18.682l12.586-25.04
	C1090.787,888.563,1094.015,883.332,1095.724,877.931z"/>
<path style="fill:#CA5549;" d="M760.036,536.518l-0.853,2.078c-2.291-0.038-4.607-1.755-6.534-2.897
	c-7.062-4.182-15.263-10.443-17.213-18.895c-1.024-4.441-0.823-9.087,1.69-12.968c3.392-5.237,10.039-10.446,16.16-11.828
	l1.497,3.778C755.536,508.677,756.866,524.048,760.036,536.518z"/>
<linearGradient id="SVGID_00000066505199279648146720000007225726020886004668_" gradientUnits="userSpaceOnUse" x1="1142.9077" y1="800.8945" x2="1204.8456" y2="845.7648" gradientTransform="matrix(1.0549 0 0 -1.0547 -36.3767 1130.3862)">
	<stop  offset="0" style="stop-color:#9BB0C4"/>
	<stop  offset="1" style="stop-color:#BDC0D4"/>
</linearGradient>
<path style="fill:url(#SVGID_00000066505199279648146720000007225726020886004668_);" d="M1154.749,198.676l0.369-0.374
	c2.279-2.423,3.292-5.712,4.494-8.749c27.84,7.275,58.919,18.96,74.342,45.152c11.931,20.268,7.121,44.918,1.361,66.363
	l-11.71,37.566c-1.625,4.941-2.954,12.553-6.952,15.964c-1.625-2.687-2.469-4.652-2.933-7.784
	c1.276-11.323,6.14-23.748,9.853-34.445c2.089-5.992,6.446-14.622,5.096-20.736c1.35-1.323,2.226-2.42,2.753-4.27
	c4.23-14.85,4.948-31.054-2.806-44.877C1213.573,215.671,1182.504,206.162,1154.749,198.676z"/>
<linearGradient id="SVGID_00000066500210845205435790000013906306185747680643_" gradientUnits="userSpaceOnUse" x1="774.39" y1="247.3346" x2="861.8145" y2="368.4357" gradientTransform="matrix(1.0549 0 0 -1.0547 -36.3767 1130.3862)">
	<stop  offset="0" style="stop-color:#586C91"/>
	<stop  offset="1" style="stop-color:#788FAC"/>
</linearGradient>
<path style="fill:url(#SVGID_00000066500210845205435790000013906306185747680643_);" d="M842.601,714.829l0.416,7.032
	l-46.708,28.521c-7.296,4.24-19.354,8.924-24.938,14.777c12.588,35.534,25.161,71.746,41.19,105.92l16.288,33.977
	c2.515,4.982,10.212,15.88,9.931,21.016c-21.582-29.997-40.597-62.773-54.797-96.935l-25.112-66.736
	c6.176-4.672,13.77-8.249,20.465-12.173L842.601,714.829z"/>
<path style="fill:#FDB08B;" d="M1168.822,450.168l0.253-0.639c1.593-4.302,1.625-9.159,2.004-13.696
	c0.053-0.555,0.063-3.368,0.306-3.72c0.686-0.971,2.922-2.312,3.914-3.081c5.264-4.078,10.56-7.371,16.563-10.267
	c12.934-6.25,27.228-9.699,41.196-4.635c9.146,3.318,16.426,11.547,20.308,20.27c8.714,19.562,5.085,42.433-2.5,61.658
	c-4.832,12.268-11.647,22.898-20.171,32.93c-2.458,2.893-5.349,6.739-8.83,8.339l-0.422,0.173c0.728-4.011,3.703-7.926,5.676-11.414
	c5.032-8.918,9.663-19.248,12.807-28.968c0.928-2.857,2.12-5.517,1.276-8.519c1.087-1.285,1.561-2.223,1.962-3.856
	c3.049-12.376,3.608-26.278,0.264-38.628c-2.258-8.336-7.216-18.074-15.107-22.382c-13.735-7.488-36.733,10.029-47.515,18.232
	c-3.619,2.76-6.857,6.806-11.341,8.053L1168.822,450.168z"/>
<linearGradient id="SVGID_00000146462928176568739380000001788965025695403907_" gradientUnits="userSpaceOnUse" x1="1071.7433" y1="231.4606" x2="1097.6985" y2="382.9221" gradientTransform="matrix(1.0549 0 0 -1.0547 -36.3767 1130.3862)">
	<stop  offset="0" style="stop-color:#46557A"/>
	<stop  offset="1" style="stop-color:#6F89AA"/>
</linearGradient>
<path style="fill:url(#SVGID_00000146462928176568739380000001788965025695403907_);" d="M1077.136,716.489l53.75,29.683
	c10.18,5.65,21.12,10.915,30.583,17.665c-11.752,35.672-28.642,70.61-47.842,102.822c-2.5,4.194-5.18,10.854-9.041,13.828
	l-0.201-1.11c-2.194,2.47-3.576,5.416-5.865,8.203l-0.918-0.489c-0.981-3.194-1.561-4.133-0.443-7.404l-1.435-1.756l1.34-2.104
	c14.875-26.997,26.395-56.576,38.801-84.8c2.057-4.687,10.771-21.851,9.59-25.975l-41.723-26.602
	c-8.83-5.542-17.702-12.1-27.228-16.329L1077.136,716.489z"/>
<path style="fill:#40546C;" d="M707.57,351.12c10.545-14.92,24.34-30.163,40.754-38.65c8.134-4.205,17.284-6.706,26.072-9.181
	l0.893,9.721l0.684,15.766c0.107,1.789,0.807,5.326,0.448,6.946c-0.323,1.458-4.312,5.514-5.53,6.985
	c-4.837,5.841-28.726,32.85-29.636,37.787c-0.414,2.242,0.666,7.095,0.941,9.507l2.81,24.705
	c-7.624-5.307-17.129-12.266-26.199-14.504c1.843-5.502-8.336-38.157-10.451-44.786L707.57,351.12z"/>
<path style="fill:#252D4E;" d="M707.57,351.12c10.545-14.92,24.34-30.163,40.754-38.65c8.134-4.205,17.284-6.706,26.072-9.181
	l0.893,9.721l-1.745-3.106c-18.981,4.982-36.751,15.607-50.116,29.939c-4.687,5.027-9.296,11.795-15.071,15.573L707.57,351.12z"/>
<path style="fill:#40546C;" d="M1148.039,307.521l0.675,0.211c5.496,1.554,11.298,0.541,16.921,1.266
	c20.002,2.571,34.254,13.872,44.139,30.937c1.287,2.225,2.574,4.423,3.365,6.88h0.58c0.464,3.131,1.308,5.096,2.933,7.784
	c1.635,3.753-8.714,36.243-10.549,43.361l-2.595,1.492c-4.083,3.121-9.822,4.755-14.284,7.582
	c-5.939,3.768-11.32,9.101-16.837,13.532l3.756-35.663c0.2-2.012,1.361-7.656,0.854-9.387c-0.411-1.415-2.711-3.998-3.597-5.303
	l-11.214-15.82c-4.209-5.704-11.351-12.893-14.263-19.128c-0.517-1.116-0.021-4.297,0.042-5.664
	c0.285-6.159,2.004-15.825,0.232-21.601L1148.039,307.521z"/>
<path style="fill:#7198A6;" d="M1213.14,346.815h0.58c0.464,3.131,1.308,5.096,2.933,7.784c1.635,3.753-8.714,36.243-10.549,43.361
	l-2.595,1.492c-1.509-3.251,0.2-8.552,0.865-12.015l5.085-23.204C1210.914,358.469,1212.813,352.78,1213.14,346.815z"/>
<path style="fill:#FDB08B;" d="M704.58,541.7l-2.177-1.493c-21.537-16.962-37.968-43.762-41.22-71.155
	c-1.74-14.663,0.451-30.395,9.851-42.189c6.974-8.749,16.57-13.263,27.568-14.467c13.948-1.526,26.62,4.473,37.156,13.204
	c2.187,1.812,11.341,8.593,12.128,10.725c0.709,1.923,0.565,5.568,0.761,7.702l1.737,19.301l1.827,13.986
	c-12.013-11.721-21.349-24.63-36.051-33.657c-7.494-4.602-19.338-11.033-28.21-8.888c-9.184,16.966-9.376,33.074-4.041,51.41
	c6.036,20.745,18.48,38.231,35.846,51.025c5.186,3.821,10.884,6.518,16.248,10.01c-7.18-1.711-14.483-3.84-21.195-6.939
	c5.463,4.777,11.167,9.417,15.976,14.868l-0.63,1.235C721.526,552.708,711.496,548.116,704.58,541.7z"/>
<linearGradient id="SVGID_00000150060839540451674130000005198009329489426603_" gradientUnits="userSpaceOnUse" x1="746.8775" y1="622.6492" x2="681.7028" y2="593.9301" gradientTransform="matrix(1.0549 0 0 -1.0547 -36.3767 1130.3862)">
	<stop  offset="0" style="stop-color:#E5634B"/>
	<stop  offset="1" style="stop-color:#FA9378"/>
</linearGradient>
<path style="fill:url(#SVGID_00000150060839540451674130000005198009329489426603_);" d="M704.58,541.7
	c-0.491-5.551-8.993-14.023-12.213-19.017c-11.904-18.464-24.425-42.897-23.653-65.531c0.311-9.125,3.602-17.892,10.588-24.107
	c4.55-4.049,11.416-4.964,17.264-4.38c21.538,2.151,39.959,20.082,52.842,35.867l0.976-1.203l1.827,13.986
	c-12.013-11.721-21.349-24.63-36.051-33.657c-7.494-4.602-19.338-11.033-28.21-8.888c-9.184,16.966-9.376,33.074-4.041,51.41
	c6.036,20.745,18.48,38.231,35.846,51.025c5.186,3.821,10.884,6.518,16.248,10.01c-7.18-1.711-14.483-3.84-21.195-6.939
	c5.463,4.777,11.167,9.417,15.976,14.868l-0.63,1.235C721.526,552.708,711.496,548.116,704.58,541.7z"/>
<path style="fill:#CA5549;" d="M730.155,556.379l0.63-1.235c-4.809-5.451-10.514-10.091-15.976-14.868
	c6.712,3.099,14.015,5.228,21.195,6.939c-5.364-3.492-11.062-6.189-16.248-10.01c-17.367-12.793-29.81-30.28-35.846-51.025
	c-5.336-18.336-5.144-34.444,4.041-51.41c5.388,4.775,11.465,8.569,17.032,13.127c12.835,10.505,25.313,22.258,35.485,35.421
	c-7.252,7.081-13.71,14.015-13.79,24.809c-0.058,7.659,3.006,16.387,8.584,21.742c7.449,7.152,16.254,10.241,25.964,13.048
	l2.28,21.849C753.062,563.947,738.748,562.638,730.155,556.379z"/>
<path style="fill:#4E6877;" d="M692.312,276.186l0.947-0.286c3.106-1.067,6.342-6.057,9.511-8.053
	c14.939-9.412,34.62-7.41,50.209-0.81c7.702,3.261,17.874,8.484,23.514,14.824c-0.564,0.603-2.689,2.482-2.931,3.139
	c-0.795,2.165,0.122,8.907,0.212,11.474l0.62,6.814c-8.788,2.475-17.938,4.976-26.072,9.181
	c-16.414,8.487-30.208,23.731-40.754,38.65l-19.847-68.502L692.312,276.186z"/>
<path style="fill:#40546C;" d="M517.003,945.428c-1.406-0.8-2.424-1.32-3.276-2.77l1.153-3.413
	c10.734-29.856,27.195-56.46,48.021-80.299c3.392-3.881,8.075-10.365,12.81-12.481c9.127-4.078,19.751-6.713,29.27-10.006
	l66.409-22.739c27.175-9.092,54.722-20.652,82.376-27.912c1.374-0.361,2.398-0.731,3.802-0.211l0.497,1.905
	c-1.414,0.479-2.553,1.185-3.807,1.969c-6.458,4.577-14.83,7.378-22.066,10.591l-34.612,15.579
	C630.402,845.441,556.152,879.804,517.003,945.428z"/>
<path style="fill:#7198A6;" d="M1022.217,845.165c9.694-7.039,17.53-13.901,25.422-22.903
	c-2.029,55.715-16.45,109.705-31.004,163.216c-1.089,3.122-2.304,6.224-2.829,9.501l-67.084,0.328l-42.869,0.074l-0.911-1.816
	l-12.424-53.435l0.483,0.747c2.835,4.428,4.446,9.408,6.931,14.038c7.358,13.711,18.674,26.265,32.747,33.227
	c5.269,2.607,11.025,3.671,16.271,6.209l26.77,0.24c2.3,0.01,6.446,0.638,8.386-0.653
	C1008.648,948.284,1020.005,897.641,1022.217,845.165z"/>
<path style="fill:#4E6877;" d="M738.721,204.965c19.364,18.679,38.026,35.776,60.912,50.171l-9.114,12.064l-3.208,3.814
	l-5.683,6.478c-1.563,1.7-2.925,3.53-5.133,4.371c-5.64-6.34-15.812-11.563-23.514-14.824c-15.589-6.6-35.27-8.602-50.209,0.81
	c-3.169,1.995-6.406,6.985-9.511,8.053l-0.947,0.286l-4.589,6.432c-6.091-21.446-9.086-40.763,0.376-61.955
	c4.318-2.353,9.446-6.637,14.097-7.846c2.65-0.689,4.842-2.146,7.5-2.812c1.082-0.272,1.742-0.33,2.69-0.962
	c3.15-2.1,9.505-1.074,12.774-3.253c1.28,0.043,2.113,0.066,3.361-0.27C731.558,204.702,735.542,205.03,738.721,204.965z"/>
<path style="fill:#40546C;" d="M787.31,271.013c-14.208-19.905-30.811-29.969-53.215-38.954l2.043,0.137
	c17.222,2.142,35.483,11.704,47.11,24.588c2.841,3.148,4.726,7.028,7.27,10.415L787.31,271.013z"/>
<path style="fill:#40546C;" d="M692.312,276.186c8.222-10.653,16.909-17.97,30.815-19.705c21.134-2.636,39.576,5.997,55.886,18.804
	l2.614,2.205c-1.563,1.7-2.925,3.53-5.133,4.371c-5.64-6.34-15.812-11.563-23.514-14.824c-15.589-6.6-35.27-8.602-50.209,0.81
	c-3.169,1.995-6.406,6.985-9.511,8.053L692.312,276.186z"/>
<linearGradient id="SVGID_00000178917143324297444500000007110940761330676916_" gradientUnits="userSpaceOnUse" x1="1246.1481" y1="186.1472" x2="1256.7892" y2="319.3228" gradientTransform="matrix(1.0549 0 0 -1.0547 -36.3767 1130.3862)">
	<stop  offset="0" style="stop-color:#3B4064"/>
	<stop  offset="1" style="stop-color:#4F597A"/>
</linearGradient>
<path style="fill:url(#SVGID_00000178917143324297444500000007110940761330676916_);" d="M1159.369,796.027l4.916-14.486
	l144.613,53.096l24.939,9.851c3.682,1.546,8.197,2.976,11.394,5.358c9.094,6.791,16.837,16.696,23.546,25.781
	c11.488,15.546,21.795,32.186,30.013,49.688c2.827,6.037,7.068,13.254,8.492,19.688c-2.12,1.564-3.429,1.494-5.992,1.774
	l-0.032-1.923c-49.677-61.395-117.089-97.396-188.562-127.563C1195.174,809.893,1177.62,801.482,1159.369,796.027z"/>
<path style="fill:#CA5549;" d="M875.596,746.066l1.019-41.55c10.152,8.96,22.214,21.629,34.516,27.224
	c6.655,3.027,15.171,2.381,22.317,2.432l30.55,0.201c12.088,0.074,24.617,0.882,36.647,0.124
	c16.757-1.055,31.684-17.394,44.547-27.349l0.93,39.909c-5.97,5.69-11.96,11.835-18.753,16.538
	c-16.32,11.298-38.561,18.375-58.46,19.257c-26.621,1.18-53.573-6.304-75.481-21.585
	C887.036,756.805,881.338,751.317,875.596,746.066z"/>
<path style="fill:#CA5549;" d="M1168.822,450.168l0.644-0.15c4.484-1.247,7.722-5.292,11.341-8.053
	c10.782-8.203,33.779-25.721,47.515-18.232c7.891,4.307,12.849,14.045,15.107,22.382c3.344,12.35,2.785,26.252-0.264,38.628
	c-0.401,1.633-0.876,2.571-1.962,3.856c0.844,3.002-0.348,5.662-1.276,8.519c-3.144,9.72-7.775,20.05-12.807,28.968
	c-1.973,3.488-4.948,7.403-5.676,11.414c-1.625,5.601-14.421,13.313-19.685,16.21c-5.528,3.039-12.016,6.284-18.303,7.016
	c-6.003,4.524-18.831,2.84-25.973,2.377c0.475-5.403,0.369-18.605,3.028-22.722l0.591-0.839c-1.066-2.486,0.01-7.36,0.253-10.067
	l2.416-24.425c0.433-3.785,1.445-7.468,1.424-11.282l-0.01-0.659l0.517-2.002l-0.844-1.262l0.696-2.473
	c2.142-7.937,2.31-17.327,3.133-25.575C1169.043,458.095,1170.003,453.728,1168.822,450.168z"/>
<path style="fill:#52173B;" d="M1225.24,437.607l1.952,0.848c-20.93,9.126-34.318,22.772-48.865,39.988
	c6.994,5.731,12.164,12.301,13.018,21.621c0.728,7.906-1.867,15.536-7.089,21.51c-4.8,5.477-10.898,11.161-17.575,14.195
	c8.25-9.477,20.825-18.056,19.812-32.26c-0.411-5.713-3.703-13.309-8.081-17.044c-1.561-1.328-3.218-2.286-5.296-2.245
	c-2.395,3.18-4.61,6.622-7.933,8.889l0.517-2.002l-0.844-1.262l0.696-2.473l1.941-0.339l6.804-11.639
	C1185.817,457.144,1204.141,442.437,1225.24,437.607z"/>
<path style="fill:#DB7760;" d="M1168.822,450.168l0.644-0.15c4.484-1.247,7.722-5.292,11.341-8.053
	c10.782-8.203,33.779-25.721,47.515-18.232c7.891,4.307,12.849,14.045,15.107,22.382c3.344,12.35,2.785,26.252-0.264,38.628
	c-0.401,1.633-0.876,2.571-1.962,3.856c0.844,3.002-0.348,5.662-1.276,8.519c-3.144,9.72-7.775,20.05-12.807,28.968
	c-1.973,3.488-4.948,7.403-5.676,11.414c-1.625,5.601-14.421,13.313-19.685,16.21c-5.528,3.039-12.016,6.284-18.303,7.016
	c0.886-1.802,3.956-3.346,5.644-4.404c4.431-2.775,8.703-5.582,12.723-8.945c8.492-7.112,15.529-15.432,21.289-24.896
	c3.165-5.199,13.809-22.686,12.459-28.205c3.429-4.055,4.906-13,6.161-18.251c3.291-13.804,3.017-26.603-4.526-38.97
	c-0.939-0.002-1.34,0.083-2.226,0.5l-0.749,0.39c-3.555-1.257-5.38-1.492-8.988-0.337c-21.099,4.83-39.423,19.537-50.944,37.787
	l-6.804,11.639l-1.941,0.339c2.142-7.937,2.31-17.327,3.133-25.575C1169.043,458.095,1170.003,453.728,1168.822,450.168z"/>
<path style="fill:#4E6877;" d="M1154.749,198.676c27.756,7.486,58.824,16.995,73.868,43.81c7.754,13.823,7.037,30.027,2.806,44.877
	c-0.528,1.85-1.403,2.948-2.753,4.27c1.35,6.114-3.007,14.745-5.096,20.736c-3.713,10.697-8.577,23.122-9.853,34.445h-0.58
	c-0.791-2.456-2.078-4.654-3.365-6.88c-9.885-17.065-24.137-28.366-44.139-30.937c-5.623-0.725-11.425,0.288-16.921-1.266
	l-0.675-0.211c2.342-5.33,3.313-19.901,1.266-25.255l1.087-3.829l-2.194-2.518c-0.77-2.814-5.148-6.008-7.29-8.04l-23.336-21.53
	c6.193-5.226,12.364-11.381,17.786-17.415c1.677-1.858,4.251-4.311,5.148-6.64l0.338-0.982l1.635-1.261
	C1146.277,216.674,1154.432,203.595,1154.749,198.676z"/>
<path style="fill:#40546C;" d="M1148.197,275.921c3.756-2.153,7.142-4.877,11.003-6.812c12.533-6.298,28.431-9.063,42.156-5.438
	c4.515,1.191,11.13,3.767,14.432,7.137c-19.559-5.751-33.452-4.909-52.579,2.031c-3.756,1.364-8.208,2.394-11.668,4.39
	c-1.087,0.629-2.057,1.424-2.975,2.276c14.02-0.38,27.239-4.177,40.373,3.376l0.485,0.276c4.631,2.681,8.503,8.005,12.058,11.973
	c-15.582-11.077-29.855-17.021-49.298-13.662c-0.992,0.17-1.941,0.455-2.88,0.799l1.087-3.829L1148.197,275.921z"/>
<path style="fill:#7198A6;" d="M1154.749,198.676c27.756,7.486,58.824,16.995,73.868,43.81c7.754,13.823,7.037,30.027,2.806,44.877
	c-0.528,1.85-1.403,2.948-2.753,4.27c0.169-0.775,0.211-0.793,0.19-1.724c-0.063-2.454-1.382-5.636-2.099-8.027
	c-2.996-9.973-7.596-19.625-15.993-26.129c-16.626-12.867-44.224-7.206-63.476-4.925c1.899-2.547,3.84-5.572,6.161-7.74
	c7.131-6.661,19.58-9.785,29.074-9.732c3.017,0.017,5.834,0.807,8.819,0.882l-0.506-1.016
	c-10.729-7.033-23.853-11.453-36.765-11.545c-4.251-0.03-8.397,0.848-12.596-0.187l-0.633-0.177l1.635-1.261
	C1146.277,216.674,1154.432,203.595,1154.749,198.676z"/>
<linearGradient id="SVGID_00000001659622865242559430000014894928672162075784_" gradientUnits="userSpaceOnUse" x1="1082.4462" y1="160.9653" x2="1014.833" y2="371.2725" gradientTransform="matrix(1.0549 0 0 -1.0547 -36.3767 1130.3862)">
	<stop  offset="0" style="stop-color:#272549"/>
	<stop  offset="1" style="stop-color:#3E5070"/>
</linearGradient>
<path style="fill:url(#SVGID_00000001659622865242559430000014894928672162075784_);" d="M1076.503,722.121
	c9.526,4.228,18.398,10.786,27.228,16.329l41.723,26.602c1.182,4.124-7.532,21.288-9.59,25.975
	c-12.406,28.225-23.926,57.803-38.801,84.8l-1.34,2.104c-1.709,5.401-4.937,10.631-7.48,15.71l-12.586,25.04
	c-3.091,5.721-8.155,12.234-9.136,18.682c-1.023,4.121-4.927,8.451-7.501,11.818c-7.198,9.436-14.606,18.729-23.008,27.137
	c-4.641,4.644-10.893,9.172-14.677,14.506c-0.787,1.11-1.113,2.051-0.863,3.417c-2.272,0.114-4.433,0.299-6.667,0.738
	c0.525-3.277,1.741-6.379,2.829-9.501c0.36,0.439,1.072,0.76,1.558,1.061c5.994-8.198,9.119-22.572,12.266-32.205
	c7.756-23.739,15.406-47.958,21.047-72.301c6.861-29.605,11.292-59.605,15.839-89.632l9.21-69.241L1076.503,722.121z"/>
<path style="fill:#FDB08B;" d="M875.596,746.066c5.742,5.251,11.44,10.74,17.834,15.201c21.908,15.281,48.86,22.766,75.481,21.585
	c19.899-0.882,42.14-7.959,58.46-19.257c6.793-4.703,12.783-10.847,18.753-16.538l1.418,60.157
	c-4.915,7.79-10.825,14.91-17.454,21.294c-18.737,18.043-46.284,26.759-71.981,26.195c-26.628-0.583-53.812-9.191-72.547-28.893
	c-3.589-3.774-10.249-10.661-12.116-15.3c-0.942-2.342,0.364-10.982,0.478-13.892L875.596,746.066z"/>
<linearGradient id="SVGID_00000021103162352291216730000007944069045433219718_" gradientUnits="userSpaceOnUse" x1="807.1791" y1="152.7195" x2="863.6205" y2="376.5887" gradientTransform="matrix(1.0549 0 0 -1.0547 -36.3767 1130.3862)">
	<stop  offset="0" style="stop-color:#2D3459"/>
	<stop  offset="1" style="stop-color:#47506F"/>
</linearGradient>
<path style="fill:url(#SVGID_00000021103162352291216730000007944069045433219718_);" d="M843.017,721.86l0.22,1.977
	c12.362,81.274,22.964,163.653,47.577,242.337c2.216,7.085,5.728,22.282,11.244,27.23l0.883,0.161l0.911,1.816l-3.848-0.406
	c-18.781-15.197-35.452-32.95-49.683-52.464c-3.906-5.357-8.255-10.689-11.54-16.44c0.281-5.135-7.416-16.033-9.931-21.016
	l-16.288-33.977c-16.03-34.174-28.603-70.387-41.19-105.92c5.584-5.854,17.642-10.537,24.938-14.777L843.017,721.86z"/>
<path style="fill:#BBBBCF;" d="M718.807,400.202c-4.777-6.916-6.984-16.969-9.784-24.956l-23.784-72.831
	c-4.381-13.828-10.065-27.913-13.206-42.067c-1.956-8.816-2.357-18.385-1.575-27.379c1.243-14.29,9.29-29.715,20.258-38.755
	c14.382-11.856,29.591-12.576,47.224-11.014c-9.602-7.094-33.941-25.097-35.741-37.419c-0.41-2.811-0.661-6.172,0.928-8.54
	c15.633,6.989,32.182,9.217,49.177,6.757c27.295-3.951,53.682-16.29,79.289-26.193c72.385-27.993,149.215-48.119,226.552-27.93
	c29.971,7.825,62.421,23.472,78.457,51.365c6.467,11.247,9.589,22.883,10.486,35.806c0.274,3.89,0.675,8.573-0.506,12.329
	c-3.523,11.323-13.588,23.276-21.531,31.836c-2.933,3.157-5.676,6.546-9.537,8.573l-0.95-2.695l0.601-0.375
	c2.764-1.968,3.914-5.299,5.349-8.26c3.471-7.176,6.836-13.937,8.028-21.915c2.015-13.547-2.827-28.296-11.014-39.09
	c-17.312-22.857-45.922-38.137-72.999-46.084c-44.103-12.943-93.404-12.504-137.963-1.696
	c-35.548,8.622-69.965,22.224-104.845,33.133c-26.288,8.221-49.858,15.654-77.82,11.636c15.879,21.115,37.616,36.175,60.649,48.394
	c2.434-0.038,3.361,0.58,5.287,2.011c-1.308,0.988-2.618,1.375-4.154,1.859l-55.519-14.394l-4.62-1.269
	c3.356,5.229,8.734,9.599,13.175,13.925c-3.179,0.064-7.162-0.264-10.199,0.556c-1.248,0.336-2.081,0.313-3.361,0.27
	c-3.269,2.179-9.624,1.153-12.774,3.253c-0.948,0.632-1.608,0.69-2.69,0.962c-2.657,0.666-4.85,2.123-7.5,2.812
	c-4.651,1.209-9.779,5.493-14.097,7.846c-9.462,21.192-6.467,40.509-0.376,61.955l19.847,68.502l0.786,4.296
	C710.471,362.046,720.65,394.7,718.807,400.202z"/>
<path style="fill:#7198A6;" d="M688.099,220.663c1.93-4.273,3.982-8.576,6.944-12.246c6.801-8.429,19.466-17.248,30.462-18.294
	c9.025,0.523,17.957,0.76,26.803,2.807c6.664,1.541,13.228,3.918,19.59,6.399c3.701,1.444,8.599,4.077,12.653,3.504
	c2.434-0.038,3.361,0.58,5.287,2.011c-1.308,0.988-2.618,1.375-4.154,1.859l-55.519-14.394l-4.62-1.269
	c3.356,5.229,8.734,9.599,13.175,13.925c-3.179,0.064-7.162-0.264-10.199,0.556c-1.248,0.336-2.081,0.313-3.361,0.27
	c-3.269,2.179-9.624,1.153-12.774,3.253c-0.948,0.632-1.608,0.69-2.69,0.962c-2.657,0.666-4.85,2.123-7.5,2.812
	C697.545,214.026,692.417,218.31,688.099,220.663z"/>
<path style="fill:#DB7760;" d="M781.573,296.401c-0.548-5.81-0.484-5.939,3.231-10.419l23.066-27.169
	c70.106,37.696,165.718,45.227,241.719,22.384c20.595-6.19,40.312-14.912,57.845-27.479l31.944,31.196
	c-0.475,7.578-0.886,40.452-4.452,44.965c0.738-5.14-5.169-16.408-7.807-21.112c-1.287-2.312-9.336-14.824-11.72-15.137
	c-0.928-0.121-6.804,3.017-8.007,3.549l-29.306,12.292c-23.823,9.23-48.984,16.54-74.129,21.11
	c-41.186,7.487-83.899,5.22-124.516-4.691C846.432,317.835,814.3,305.729,781.573,296.401z"/>
<path style="fill:#99D4E7;" d="M890.517,940.131c-9.632-36.913-14.336-76.972-17.091-114.996
	c16.545,18.584,34.211,29.065,58.499,34.937c30.881,7.464,63.365,1.479,90.292-14.906c-2.212,52.476-13.569,103.119-40.112,148.772
	c-1.94,1.291-6.086,0.663-8.386,0.653l-26.77-0.24c-5.245-2.538-11.001-3.602-16.271-6.209
	c-14.073-6.962-25.388-19.516-32.747-33.227c-2.485-4.63-4.096-9.61-6.931-14.038L890.517,940.131z"/>
<path style="fill:#252D4E;" d="M1159.369,796.027c18.251,5.455,35.805,13.866,53.328,21.264
	c71.473,30.166,138.884,66.168,188.562,127.563l0.032,1.923c-3.714,3.175-28.22,7.246-34.265,8.505
	c-95.789,19.941-194.026,33.688-291.894,37.544c9.653-9.872,17.765-21.039,25.857-32.198c19.052-26.291,35.457-54.453,50.427-83.245
	c6.952-13.391,17.175-31.408,18.567-46.568c0.812-8.826-2.616-17.465-5.823-25.5c-1.224-3.062-2.258-6.378-4.441-8.911
	L1159.369,796.027z"/>
<path style="fill:#252D4E;" d="M754.258,789.471c-0.35,24.576,1.633,47.933,8.403,71.695
	c11.541,40.519,39.848,79.449,68.848,109.288l25.849,23.423l-90.948-6.411l-132.119-16.237c-24.642-3.945-49.892-8.28-74.132-14.214
	c-14.318-3.504-28.754-8.835-43.156-11.586c39.149-65.624,113.4-99.988,180.577-129.787l34.612-15.579
	C739.427,796.849,747.799,794.049,754.258,789.471z"/>
<path style="fill:#7198A6;" d="M784.551,202.833c-23.033-12.22-44.77-27.28-60.649-48.394c27.962,4.017,51.532-3.415,77.82-11.636
	c34.88-10.909,69.298-24.511,104.845-33.133c44.559-10.808,93.86-11.247,137.963,1.696c27.077,7.947,55.688,23.226,72.999,46.084
	c8.186,10.794,13.029,25.542,11.014,39.09c-1.192,7.979-4.557,14.739-8.028,21.915c-1.435,2.962-2.585,6.292-5.349,8.26
	l-0.601,0.375l0.95,2.695c-0.528,2.518-3.903,4.676-5.918,6.297c-51.956,41.859-128.803,43.951-192.276,37.103
	c-58.628-6.325-117.661-24.444-164.781-60.963c-7.987-6.19-16.001-12.001-22.374-19.911l55.519,14.394
	c1.536-0.484,2.846-0.871,4.154-1.859C787.912,203.413,786.984,202.795,784.551,202.833z"/>
<path style="fill:#4E6877;" d="M785.684,206.703c47.622,15.361,95.241,25.538,145.258,29.239c9.241,0.683,20.107,2.309,29.194,0.599
	c-55.152-8.593-111.87-26.156-162.881-48.691c-9.116-4.026-18.889-7.74-27.443-12.82l36.55,2.852l82.515,5.102
	c60.21,5.736,120.591,17.682,177.299,39.041c-16.941-40.047-52.7-66.946-92.02-82.801l-18.809-6.44
	c50.89,2.603,104.795,23.784,139.365,62.068c6.646,7.354,13.229,16.078,17.502,25.028c0.865,1.816,2.416,4.498,2.395,6.506
	l-0.042,0.701l0.95,2.695c-0.528,2.518-3.903,4.676-5.918,6.297c-51.956,41.859-128.803,43.951-192.276,37.103
	c-58.628-6.325-117.661-24.444-164.781-60.963c-7.987-6.19-16.001-12.001-22.374-19.911L785.684,206.703z"/>
<path style="fill:#FDB08B;" d="M781.573,296.401c32.728,9.329,64.859,21.434,97.868,29.488
	c40.617,9.911,83.329,12.179,124.516,4.691c25.145-4.57,50.306-11.88,74.129-21.11l29.306-12.292
	c1.203-0.532,7.079-3.67,8.007-3.549c2.384,0.313,10.433,12.825,11.72,15.137c2.637,4.704,8.545,15.972,7.807,21.112
	c1.783,3.793-0.042,7.356,1.002,10.219c0.791,2.153,3.734,5.309,5.116,7.248l17.734,24.175c0.854,1.172,4.051,4.702,4.315,5.952
	c0.38,1.8-0.665,6.067-0.875,8.024l-2.553,24.194l-21.806,203.232l-3.407,2.133c-0.295,1.137-0.475,1.874-1.392,2.681
	l-71.104,57.007l-37.695,30.761c-5.437,4.331-10.903,9.509-16.886,12.996c-0.769,0.448-2.032,1.325-2.865,1.55
	c-4.276,1.159-11.788,0.221-16.441,0.223l-47.392-0.082c-6.355-0.001-16.031,1.344-22.104-0.013
	c-2.012-0.449-5.219-3.449-6.919-4.737l-22.246-18.234l-80.935-63.56L789.469,618.6c-1.267-1.043-4.587-3.182-5.249-4.432
	c-1.321-2.488-1.295-10.607-1.693-13.698l-6.569-48.801L758.76,411.609l-2.55-20.501c-0.243-2.032-1.232-6.118-0.908-7.997
	c0.409-2.375,3.85-6.008,5.362-8.056l17.866-23.438c1.683-2.184,6.418-7.546,7.08-10.182c0.758-3.021-0.46-8.632-0.754-11.829
	L781.573,296.401z"/>
<path style="fill:#CA5549;" d="M916.14,560.88l6.979,5.267c11.741,11.284,23.465,16.963,40.167,16.499
	c11.492-0.319,21.093-4.8,30.46-11.09c3.516-1.695,5.123-3.972,9.123-3.235c-4.556,8.84-14.391,14.858-23.231,18.623
	c-11.724,4.992-24.97,5.13-36.763,0.232C930.871,582.19,921.166,572.863,916.14,560.88z"/>
<linearGradient id="SVGID_00000150780693752600155980000010441944448830625944_" gradientUnits="userSpaceOnUse" x1="944.9565" y1="476.2498" x2="947.9401" y2="496.4085" gradientTransform="matrix(1.0549 0 0 -1.0547 -36.3767 1130.3862)">
	<stop  offset="0" style="stop-color:#571A31"/>
	<stop  offset="1" style="stop-color:#7B1C37"/>
</linearGradient>
<path style="fill:url(#SVGID_00000150780693752600155980000010441944448830625944_);" d="M954.07,606.968l0.469-0.034
	c26.164-1.751,65.992,5.768,86.313,23.641c-8.332-3.228-16.803-6.849-25.412-9.258c-17.567-4.918-36.293-7.02-54.458-7.486
	c-30.597,0.247-56.229,5.993-82.349,22.079C897.843,615.405,927.07,608.906,954.07,606.968z"/>
<path style="fill:#CA5549;" d="M916.14,560.88c-4.099-8.732-3.614-14.128-2.004-23.317c-20.706,22.47-37.377,43.701-48.57,72.486
	c1.774-11.216,3.927-21.448,8.852-31.764c8.084-16.929,21.299-29.854,33.796-43.523l26.485-31.277
	c-3.497,9.243-15.461,31.216-11.437,40.563c3.974,9.232,13.085,15.166,22.133,18.625c12.06,4.608,23.416,4,35.044-1.38
	c8.965-4.148,17.372-11.199,21.718-20.189c-2.057-12.706-7.93-24.396-12.235-36.451c6.336,8.376,12.698,16.754,19.729,24.567
	c18.431,20.485,37.746,37.437,47.99,63.825c2.448,6.289,4.789,13.308,4.747,20.113c-9.868-24.294-23.671-42.648-40.91-62.209
	c-3.055-3.467-6.913-9.03-10.648-11.516c0.042,5.093,0.537,10.671-1.006,15.568c-1.345,4.268-3.646,10.255-6.955,13.32
	c-4-0.737-5.607,1.54-9.123,3.235c-9.367,6.29-18.968,10.771-30.46,11.09c-16.702,0.464-28.427-5.214-40.167-16.499L916.14,560.88z"
	/>
<path style="fill:#52173B;" d="M923.118,566.147c-1.915-2.655-4.664-5.635-5.019-8.935c18.314,11.929,31.894,22.138,54.784,17.075
	c13.707-3.032,22.416-11.169,33.247-19.1c-3.091,6.915-7.077,11.162-12.384,16.369c-9.367,6.29-18.968,10.771-30.46,11.09
	C946.584,583.11,934.859,577.431,923.118,566.147z"/>
<path style="fill:#52173B;" d="M779.776,397.428c7.934-13.182,20.457-22.015,33.887-28.892l48.18,22.992
	c7.041,3.267,17.754,6.466,23.487,11.225l49.61,23.003l3.914-12.623l7.364-21.721c-2.559,17.691-5.816,35.853-11.737,52.763
	l-8.284,19.556c-3.696-0.756-13.424-3.864-16.333-2.354c0.897-6.405,1.527-12.454,0.422-18.876
	c-0.621-1.229-1.388-2.215-2.611-2.874c-5.06-2.731-11.389-4.183-16.913-5.876c-29.087-8.916-59.874-11.658-89.167-2.147
	c-2.794-2.899-8.225-5.406-11.635-7.809c-5.421-3.821-10.503-8.256-15.706-12.386c-0.902-0.208-0.462,0.024-1.179-0.911
	C774.826,405.775,777.183,401.711,779.776,397.428z"/>
<path style="fill:#DB7760;" d="M774.253,411.409l0.839-0.276c6.53-2.183,26.01-12.454,31.655-11.685
	c2.496,0.34,6.688,2.79,9.129,3.785l23.651,9.468l65.455,23.478c9.583,2.913,19.633,6.326,29.498,7.996l-8.284,19.556
	c-3.696-0.756-13.424-3.864-16.333-2.354c0.897-6.405,1.527-12.454,0.422-18.876c-0.621-1.229-1.388-2.215-2.611-2.874
	c-5.06-2.731-11.389-4.183-16.913-5.876c-29.087-8.916-59.874-11.658-89.167-2.147c-2.794-2.899-8.225-5.406-11.635-7.809
	C784.538,419.974,779.456,415.539,774.253,411.409z"/>
<path style="fill:#4E6877;" d="M782.077,400.428c9.874-10.518,17.794-20.256,31.144-26.721l76.498,35.63l43.981,20.207l-3.279,8.882
	c-7.41-1.808-14.726-4.81-22.014-7.12l-46.732-15.849l-35.231-13.863c-5.218-2.149-13.923-7.058-19.39-7.485
	c-1.819-0.142-4.548,1.077-6.264,1.655l-18.432,6.895L782.077,400.428z"/>
<path style="fill:#52173B;" d="M801.594,431.604c29.293-9.51,60.079-6.769,89.167,2.147c5.524,1.693,11.853,3.145,16.913,5.876
	c1.223,0.659,1.99,1.645,2.611,2.874c1.104,6.422,0.475,12.471-0.422,18.876l-0.179,1.113
	c-2.917,15.574-10.618,29.818-23.957,38.875c-12.319,8.364-24.998,10.987-39.577,8.058c-14.908-2.995-28.134-13.01-36.346-25.616
	C799.148,467.447,797.701,450.305,801.594,431.604z"/>
<path style="fill:#FEFEFE;" d="M867.362,443.359c2.769,0.383,5.945,0.508,7.725,2.951c1.561,2.141,1.824,3.911,1.343,6.503
	c-0.662,3.575-3.052,5.411-5.911,7.304c-2.77-0.566-4.976-1.087-7.142-3.046c-2.141-1.935-2.358-3.837-2.423-6.601
	C862.2,446.664,864.07,445.434,867.362,443.359z"/>
<path style="fill:#BBBBCF;" d="M889.584,457.708c0.475-5.21,0.302-10.079-0.098-15.271c1.915,0.563,15.633,4.284,15.972,5.072
	c1.129,2.623-0.604,11.473-1.021,14.46C900.931,459.255,893.938,458.798,889.584,457.708z"/>
<path style="fill:#BBBBCF;" d="M805.7,448.896c-0.277-4.111-0.221-7.528,0.713-11.551c2.618-1.911,5.917-1.3,9.125-1.333
	l22.999,0.092c-2.287,7.093-3.618,12.748-3.519,20.299c-9.465-3.085-18.926-9.066-28.296-11.361L805.7,448.896z"/>
<path style="fill:#FEFEFE;" d="M805.7,448.896l1.022-3.855c9.37,2.295,18.831,8.276,28.296,11.361
	c2.708,8.56,5.907,16.4,14.331,20.859c5.578,2.951,14.083,4.293,20.171,2.313c7.488-2.434,13.466-7.21,17.062-14.312l3.001-7.554
	c4.355,1.089,11.347,1.547,14.853,4.261c-1.805,7.74-4.631,14.867-9.318,21.313c-7.404,10.184-19.51,18.193-32.062,19.978
	c-12.289,1.748-26.245-2.706-35.924-10.345C812.733,481.55,807.782,466.412,805.7,448.896z"/>
<path style="fill:#52173B;" d="M988.292,426.416c13.786-4.429,27.887-12.703,41.143-18.783l86.607-38.343l20.92,24.616
	c1.899,2.377,4.673,4.992,4.768,8.183c1.962,1.596,2.891,1.893,3.429,4.545l-1.371,2.317c-2.954,0.129-5.676-0.555-8.545-1.17
	c-4.104,7.172-16.742,11.559-22.787,17.937c5.728,5.076,7.828,17.927,8.334,25.284c1.013,14.961-5.222,29.932-15.001,41.061
	c-9.885,11.241-22.924,17.46-37.83,18.386c-13.867,0.862-27.83-4.198-38.117-13.491c-11.294-10.2-16.121-22.199-18.698-37.043
	c-4.511,1.931-9.433,3.096-14.145,4.456c-2.996-6.386-6.224-12.784-8.385-19.51c-6.024-16.971-9.278-35.128-11.843-52.905
	L988.292,426.416z"/>
<path style="fill:#FEFEFE;" d="M1072.441,443.156c2.796,0.026,5.918-0.035,8.028,2.156c2.099,2.169,2.047,3.754,2.205,6.563
	c-1.382,3.469-3.197,5.065-6.077,7.341c-2.31,0.207-4.6-0.454-6.435-1.9c-2.057-1.613-2.817-3.913-3.228-6.378
	C1068.063,447.006,1069.572,445.988,1072.441,443.156z"/>
<path style="fill:#BBBBCF;" d="M1092.095,451.153c2.258-6.702-0.095-11.417-2.943-17.514c5.612-1.395,12.28-1.495,18.061-2.071
	c1.414,2.61,3.239,5.194,3.196,8.236l-16.067,5.821l-0.738,2.569C1093.255,449.391,1092.844,450.166,1092.095,451.153z"/>
<path style="fill:#BBBBCF;" d="M1017.564,463.596c-0.812-5.524-0.39-11.79-0.462-17.407l20.727-3.582l-1.489,10.556
	c-5.516-0.178-13.058,2.973-18.264,4.805L1017.564,463.596z"/>
<path style="fill:#DB7760;" d="M988.613,444.864l25.299-6.529l0.348,1.197l-0.345,0.571c-3.218,5.557-3.26,13.568-2.772,19.814
	c-4.511,1.931-9.433,3.096-14.145,4.456C994.002,457.988,990.773,451.59,988.613,444.864z"/>
<path style="fill:#DB7760;" d="M1112.456,425.719l-0.306-1.5c-0.58-0.619-1.941-2.493-2.616-2.798
	c-1.625-0.745-9.695,0.832-12.016,1.118l-55.866,9.676c-5.794,1.232-19.53,6.351-24.805,5.13l98.848-39.061
	c5.233,2.102,16.183,5.32,19.548,9.499C1131.139,414.954,1118.5,419.342,1112.456,425.719z"/>
<path style="fill:#4E6877;" d="M989.25,429.798c5.834-0.658,13.037-4.872,18.552-7.274l52.623-24.022l54.794-23.517
	c4.03,5.736,9.136,11.035,13.788,16.279c2.564,2.89,5.612,5.734,7.068,9.365l1.73,2.217c-5.38-0.893-11.541-4.824-16.563-7.13
	c-0.96-0.442-3.872-2.159-4.737-2.178c-1.646-0.038-5.338,1.936-6.994,2.624l-20.318,8.369l-95.134,33.902
	c-1.188,0.392-1.265-0.025-2.303-0.619C990.828,435.178,989.775,432.548,989.25,429.798z"/>
<path style="fill:#FEFEFE;" d="M1092.095,451.153c0.749-0.987,1.161-1.762,1.509-2.959l0.738-2.569l16.067-5.821
	c3.956,4.68,4.167,11.641,3.703,17.649c-1.044,13.496-7.501,25.929-17.934,34.584c-10.127,8.408-23.198,12.617-36.332,11.349
	c-12.493-1.207-24.402-8.643-32.156-18.298c-5.02-6.25-8.367-13.705-10.125-21.492l0.512-5.627
	c5.206-1.832,12.748-4.983,18.264-4.805l0.385,1.994c1.771,8.369,6.293,15.898,13.56,20.56c6.596,4.228,13.495,4.953,21.048,3.254
	c7.448-1.675,13.651-6.986,17.575-13.385C1091.705,461.041,1093.361,456.358,1092.095,451.153z"/>
<path style="fill:#DB7760;" d="M889.406,697.205c-0.055-0.585,0.039-1.203-0.166-1.755c-0.478-1.292-5.435-4.981-6.665-6.041
	l-23.507-20.179l-52.743-48.23l-9.969-9.118c-0.882-0.798-3.368-2.543-3.883-3.509c-0.735-1.382-0.93-4.956-1.132-6.545
	l-2.18-19.738l-8.808-72.942c10.809,13.034,21.724,24.335,35.946,33.695c7.51,4.941,15.786,8.74,23.795,12.798l0.488,47.435
	c0.13,7.695-0.578,16.763,1.146,24.267c0.789,3.438,2.49,6.318,4.771,8.992c14.212,16.671,33.525,30.434,50.308,44.467
	c7.552,6.315,15.06,14.017,23.392,19.205c8.881,0.385,22.136,2.187,30.256-1.488c3.401-1.54,6.237-3.317,9.266-5.514
	c0.216-0.156,2.788-2.09,2.823-2.086c0.351,0.044,2.802,2.203,3.244,2.536c4.959,3.735,8.719,6.44,15.051,6.807
	c5.796,0.335,16.313,1.393,21.761,0.108c2.463-0.581,6.453-3.953,8.509-5.425c9.345-6.695,18.171-13.934,26.836-21.48l24.536-22.336
	c7.501-6.785,17.786-14.614,22.26-23.854c2.711-5.594,2.943-13.25,3.64-19.378l4.114-48.301l33.104-31.204
	c4.251-3.851,9.326-9.405,14.39-12.04c-2.732,17.734-3.576,35.69-4.694,53.578c-0.928,14.927-2.616,30.229-0.844,45.125
	c-0.295,1.137-0.475,1.874-1.392,2.681l-71.104,57.007l-37.695,30.761c-5.437,4.331-10.903,9.509-16.886,12.996
	c-0.769,0.448-2.032,1.325-2.865,1.55c-4.276,1.159-11.788,0.221-16.441,0.223l-47.392-0.082
	c-6.355-0.001-16.031,1.344-22.104-0.013c-2.012-0.449-5.219-3.449-6.919-4.737L889.406,697.205z"/>
</svg>
