<?xml version="1.0" encoding="utf-8"?>
<!-- Generator: Adobe Illustrator 27.5.0, SVG Export Plug-In . SVG Version: 6.00 Build 0)  -->
<svg version="1.1" id="Layer_1" xmlns="http://www.w3.org/2000/svg" xmlns:xlink="http://www.w3.org/1999/xlink" x="0px" y="0px"
	 viewBox="0 0 2100 2100" style="enable-background:new 0 0 2100 2100;" xml:space="preserve">
<g>
	<rect style="fill:#BBEFFF;" width="2100" height="2100"/>
	<g>
		<g>
			<g>
				<g>
					<g>
						<path style="opacity:0.2;fill:#000038;" d="M1373.619,1588.715c-1.314,67.258-144.32,121.805-322.347,121.805
							c-178.027,0-322.347-54.534-322.347-121.805c0-67.271,144.32-122.301,322.347-121.805
							C1230.551,1467.409,1374.923,1521.964,1373.619,1588.715z"/>
						<path style="fill:#FFFFFF;" d="M1039.851,1494.132c0,0-7.938,30.967-22.207,62.317
							c-15.436,33.894-38.236,68.247-66.334,64.402c-29.648-4.055-62.615-53.115-82.03-101.259c0,0-2.558-4.922-2.576-4.922
							c-15.742-39.001-60.804-111.738-36.144-93.854C861.68,1448.838,934.344,1492.716,1039.851,1494.132z"/>
						<path style="fill:#FFFFFF;" d="M1280.38,1418.036c0,0-38.218,74.574-52.907,110.955
							c-18.707,46.365-46.901,87.749-76.988,91.861c-28.079,3.825-50.879-30.47-66.296-64.345
							c-14.269-31.35-22.226-62.317-22.226-62.317v-0.115C1159.206,1492.372,1246.352,1442.691,1280.38,1418.036z"/>
						<path style="fill:#FFFFFF;" d="M1374.283,1317.108c-22.723,46.614-34.238,56.56-61.476,70.447
							c-2.467,1.262-18.688-3.175-19.223,0c-2.907,17.196-14.365,39.613-41.698,59.429c-0.019,0.019-0.038,0.038-0.057,0.057
							c-34.028,24.655-92.616,45.332-189.859,47.034c-4.266,0.077-8.626,0.115-13.045,0.115c-3.061,0-6.082-0.019-9.066-0.057
							c-105.507-1.415-161.493-27.41-192.614-55.431l-0.057-0.057c-20.677-18.63-30.375-38.159-36.323-51.95
							c-1.281-2.984-2.391-5.7-3.405-8.072c-2.41-5.681-1.09,23.049-40.263,2.142c-5.891-3.156-29.514-32.803-39.67-63.637
							c-15.168-46.059,31.446-146.057,36.476-154.933c4.495-7.919,13.963-19.606,25.535-32.517
							c17.635-19.663,40.206-42.176,57.631-58.568c14.747-13.886,25.822-23.393,27.18-23.125
							c49.827,24.311,109.6,34.296,176.547,34.296v-0.019c66.965,0,126.758-9.985,176.585-34.296
							c1.32-0.249,11.878,8.78,26.052,22.092c17.865,16.737,41.487,40.283,59.62,60.596c11.189,12.509,20.275,23.814,24.655,31.541
							c5.03,8.875,21.652,52.562,25.726,65.033C1375.125,1262.767,1374.283,1317.108,1374.283,1317.108z"/>
						<path style="opacity:0.2;fill:#000038;" d="M1253.524,1070.056l-1.645,1.033c0,0-25.286,62.815-201.164,62.815
							c-174.5,0-203.115-61.839-203.555-62.796c14.747-13.887,25.822-23.393,27.18-23.125
							c49.827,24.311,109.6,34.296,176.547,34.296v-0.019c66.965,0,126.758-9.984,176.585-34.295
							C1228.792,1047.715,1239.35,1056.744,1253.524,1070.056z"/>
						<path style="opacity:0.2;fill:#000038;" d="M819.852,1414.502c31.12,28.022,114.491,78.214,219.998,79.63
							c0,0-7.938,30.967-22.207,62.317c-112.661-6.006-148.364-36.857-148.364-36.857s0.019,0,0,0
							C853.538,1480.591,821.058,1416.3,819.852,1414.502z"/>
						<path style="opacity:0.2;fill:#000038;" d="M1061.962,1494.074c97.244-1.702,175.689-39.995,209.717-64.65
							c-1.148,1.721-24.492,53.785-39.182,90.166c-0.019,0.038-1.083,0-1.083,0s-34.719,31.293-147.227,36.917
							c-14.269-31.35-22.226-62.317-22.226-62.317V1494.074z"/>
						<path style="fill:#000038;" d="M1291.033,1447.04c0,0.249-0.038,0.191-0.134-0.134
							C1290.995,1446.906,1291.033,1446.944,1291.033,1447.04z"/>
						<path style="opacity:0.2;fill:#000038;" d="M1294.361,1378.602c0,2.773-0.248,5.776-0.784,8.952
							c-2.907,17.196-14.365,39.613-41.698,59.429c-0.019,0.019-0.038,0.038-0.057,0.057
							c-34.028,24.655-92.615,45.332-189.859,47.034c-4.266,0.077-8.627,0.115-13.045,0.115c-3.06,0-6.083-0.019-9.067-0.057
							c-105.507-1.415-161.493-27.41-192.614-55.431c-0.019-0.019-0.038-0.038-0.057-0.057
							c-20.677-18.63-30.374-38.159-36.323-51.95c-1.281-2.984-2.391-5.7-3.405-8.072c-2.41-5.681-3.634-12.51-3.902-20.256
							c4.438-6.771,7.23-10.922,7.23-10.922s0.861,108.204,240.49,108.204c239.629,0,241.198-108.204,241.198-108.204
							s0,0.019,0.019,0.057C1293.692,1358.001,1294.361,1368.426,1294.361,1378.602z"/>
						<path style="opacity:0.2;fill:#000038;" d="M884.339,1133.901c0,0-95.351,63.03-117.14,246.859
							c-1.222,10.31,41.034,17.176,40.969,6.794C807.44,1271.074,884.339,1133.901,884.339,1133.901z"/>
						<path style="opacity:0.2;fill:#000038;" d="M1217.81,1133.901c0,0,95.351,63.03,117.14,246.859
							c1.222,10.31-41.034,17.176-40.969,6.794C1294.709,1271.074,1217.81,1133.901,1217.81,1133.901z"/>
					</g>
					<g>
						<path style="fill:#000038;" d="M800.879,1397.586c-11.093,0-24.138-4.218-36.64-12.073
							c-24.174-15.189-40.828-39.533-45.692-66.794c-10.018-56.125,12.954-122.118,66.429-190.844
							c39.806-51.157,81.844-85.528,83.614-86.967l11.499,14.151c-1.66,1.35-165.729,136.425-143.594,260.457
							c5.63,31.547,28.061,48.662,37.445,54.558c11.759,7.391,24.225,10.805,31.777,8.7l4.904,17.56
							C807.615,1397.175,804.34,1397.586,800.879,1397.586z"/>
						<path style="fill:#000038;" d="M811.774,1345.54c-0.764,0.029-1.104-0.006-1.612-0.023l-1.343-0.096
							c-0.88-0.075-1.733-0.175-2.581-0.295c-1.694-0.231-3.35-0.551-4.989-0.932c-3.274-0.771-6.47-1.812-9.542-3.169
							c-6.137-2.683-11.764-6.772-15.878-11.913c-2.064-2.554-3.784-5.328-5.052-8.231c-1.298-2.885-2.254-5.853-2.837-8.841
							c-1.227-5.966-1.31-11.905-0.742-17.67c0.943,5.714,2.568,11.271,5.054,16.192c2.449,4.93,5.87,9.135,9.962,12.041
							c4.072,2.944,8.741,4.666,13.575,5.37c2.416,0.356,4.874,0.466,7.307,0.373c1.215-0.051,2.426-0.145,3.606-0.309
							c0.588-0.077,1.172-0.169,1.728-0.277l0.811-0.169c0.21-0.058,0.587-0.134,0.539-0.177L811.774,1345.54z"/>
						<path style="fill:#000038;" d="M955.762,1630.257c-1.887,0-3.78-0.128-5.682-0.388
							c-35.183-4.797-81.15-76.597-144.662-225.954c-2.35-5.531-4.571-10.753-5.089-11.756c0.141,0.272,0.928,1.692,2.61,2.874
							l10.481-14.922c2.411,1.693,2.411,1.693,8.779,16.668c9.809,23.068,32.781,77.09,58.609,125.067
							c42.04,78.096,64.173,88.926,71.737,89.957c37.589,5.162,71.988-87.266,81.038-120.044l17.578,4.849
							c-0.386,1.401-9.653,34.713-25.846,67.688C1003.799,1608.106,980.427,1630.257,955.762,1630.257z"/>
						<path style="fill:#000038;" d="M1217.504,1133.9c1.993,2.176,3.903,4.419,5.701,6.726c1.839,2.285,3.621,4.609,5.301,6.99
							c3.496,4.693,6.635,9.587,9.801,14.479c3.101,4.924,5.969,9.973,8.885,15.009c2.734,5.121,5.402,10.279,8.024,15.465
							c5.111,10.433,9.598,21.16,13.83,31.99c4.241,10.827,8.253,21.758,11.919,32.826c3.671,11.067,7.09,22.234,10.098,33.547
							c2.982,11.319,5.6,22.764,7.753,34.34c2.122,11.583,3.673,23.322,4.593,35.173c0.177,2.972,0.462,5.928,0.547,8.914
							l0.249,8.958c0.063,6.864-1.075,13.551-2.904,19.836c-3.694,12.616-10.263,23.864-18.181,33.634
							c-7.955,9.773-17.291,18.124-27.319,25.173c-20.126,14.103-42.559,23.508-65.295,30.359
							c-22.794,6.831-46.071,11.058-69.368,13.777c-23.312,2.702-46.682,3.868-69.987,3.962c-23.325-0.053-46.721-1.123-70.053-3.82
							c-23.32-2.738-46.589-7.189-69.357-14.1c-22.668-7.13-45.023-16.688-64.965-30.955c-9.938-7.129-19.149-15.508-27.149-25.121
							c-3.911-4.893-7.582-10.02-10.742-15.539c-3.12-5.544-5.807-11.4-7.792-17.63l-0.738-2.338l-0.61-2.407
							c-0.435-1.587-0.753-3.236-1.041-4.898c-0.343-1.63-0.479-3.373-0.683-5.072c-0.113-0.841-0.102-1.757-0.153-2.632
							c-0.027-0.854-0.093-1.853-0.056-2.53l0.186-8.927c0.047-2.976,0.318-5.929,0.468-8.893c0.814-11.829,2.148-23.59,4.208-35.18
							c3.968-23.218,10.019-45.894,17.305-68.063c7.417-22.119,15.759-43.904,26.014-64.777c2.677-5.166,5.341-10.328,8.176-15.403
							c2.971-5.008,5.849-10.052,9.037-14.927c3.191-4.873,6.419-9.714,9.948-14.373c1.705-2.361,3.521-4.656,5.376-6.922
							c1.82-2.284,3.757-4.499,5.769-6.645c-7.484,22.186-15.787,43.404-24.127,64.594c-8.437,21.114-16.752,42.233-23.487,63.841
							c-6.719,21.592-12.189,43.535-15.611,65.685c-1.789,11.065-2.861,22.189-3.451,33.283c-0.094,2.772-0.311,5.55-0.307,8.317
							l-0.042,8.302c0.02,4.535,1.027,9.167,2.585,13.879c1.574,4.68,3.755,9.278,6.329,13.695c2.618,4.408,5.715,8.583,9.023,12.61
							c6.812,7.939,14.841,14.985,23.6,21.167c17.569,12.395,38.027,21.063,59.142,27.521c21.244,6.268,43.299,10.35,65.611,12.796
							c22.331,2.412,44.908,3.283,67.521,3.165c22.633-0.053,45.225-1.073,67.555-3.59c22.315-2.516,44.416-6.474,65.641-12.756
							c21.173-6.276,41.614-14.893,59.144-27.105c8.718-6.113,16.753-13.038,23.346-20.969c6.589-7.892,11.832-16.782,14.687-26.107
							c1.424-4.659,2.256-9.343,2.27-13.892l-0.121-8.246c-0.037-2.749-0.273-5.513-0.397-8.269
							c-0.709-11.035-2.011-22.102-3.88-33.126c-1.899-11.022-4.255-22.005-6.975-32.927c-2.747-10.919-5.909-21.762-9.323-32.539
							c-3.41-10.78-7.171-21.47-11.165-32.081l-12.273-31.773l-3.016-7.989l-2.964-8.025l-5.73-16.195
							C1224.193,1156.275,1220.556,1145.334,1217.504,1133.9z"/>
						<path style="fill:#000038;" d="M1301.174,1397.605c-3.563,0-6.921-0.418-9.993-1.277l4.904-17.56
							c6.87,1.911,21.057-0.597,36.002-10.637c18.689-12.562,30.767-31.536,33.137-52.062
							c8.323-72.102-30.712-138.893-64.923-182.228c-37.633-47.671-77.916-78.295-78.319-78.598l10.976-14.56
							c1.709,1.287,42.297,32.104,81.381,81.513c52.304,66.125,76.164,133.888,68.997,195.964
							c-2.981,25.833-17.954,49.562-41.079,65.104C1328.489,1392.518,1313.598,1397.605,1301.174,1397.605z"/>
						<path style="fill:#000038;" d="M1292.02,1327.411c-0.048,0.043,0.328,0.119,0.539,0.177l0.811,0.169
							c0.556,0.108,1.141,0.2,1.729,0.277c1.179,0.164,2.391,0.258,3.605,0.309c2.432,0.093,4.89-0.017,7.307-0.373
							c4.834-0.704,9.503-2.426,13.576-5.37c4.092-2.907,7.512-7.112,9.962-12.042c2.487-4.921,4.112-10.478,5.054-16.192
							c0.568,5.765,0.486,11.704-0.742,17.67c-0.582,2.988-1.539,5.955-2.837,8.841c-1.269,2.903-2.989,5.677-5.053,8.231
							c-4.114,5.141-9.741,9.23-15.878,11.913c-3.071,1.357-6.268,2.397-9.541,3.169c-1.638,0.381-3.295,0.702-4.988,0.932
							c-0.847,0.12-1.7,0.22-2.582,0.295l-1.343,0.096c-0.508,0.017-0.848,0.052-1.611,0.023L1292.02,1327.411z"/>
						<path style="fill:#000038;" d="M1146.042,1630.253c-24.667,0.002-48.046-22.147-69.577-65.957
							c-16.205-32.973-25.484-66.283-25.871-67.685l17.575-4.856c9.065,32.776,43.467,125.22,81.089,120.044
							c7.564-1.031,29.692-11.862,71.714-89.953c25.817-47.979,48.78-102.006,58.584-125.076
							c6.369-14.986,6.369-14.986,8.786-16.681l10.47,14.929c1.686-1.184,2.475-2.605,2.616-2.877
							c-0.518,1.003-2.739,6.229-5.091,11.761c-63.481,149.363-109.433,221.165-144.614,225.963
							C1149.822,1630.125,1147.927,1630.253,1146.042,1630.253z"/>
					</g>
				</g>
				<g>
					<g>
						<path style="opacity:0.2;fill:#000038;" d="M1313.152,1130.653c-3.214,2.047-5.241,3.252-5.241,3.252
							s-37.394,66.334-258.948,66.334c-221.573,0-257.112-66.334-257.112-66.334s-0.899-1.492-2.314-4.227
							c17.635-19.663,40.206-42.176,57.631-58.568c14.747-13.886,25.822-23.393,27.18-23.125
							c49.827,24.311,109.6,34.296,176.547,34.296v-0.019c66.965,0,126.758-9.985,176.585-34.296
							c1.32-0.249,11.878,8.78,26.052,22.092C1271.397,1086.794,1295.019,1110.34,1313.152,1130.653z"/>
						<path style="fill:#FFFFFF;" d="M1265.423,1042.235c0,0,35.405,33.473,23.833,51.874
							c-11.591,18.401-52.467,63.369-239.17,63.369s-227.598-44.969-239.189-63.369c-11.572-18.401,23.833-51.874,23.833-51.874
							l0.459-1.281c73.794,26.262,150.954,37.126,214.897,37.126s141.103-10.864,214.878-37.126L1265.423,1042.235z"/>
						<path style="opacity:0.2;fill:#000038;" d="M816.107,1101.246c7.746-13.053,19.654-24.323,19.654-24.323l0.459-1.281
							c73.794,26.262,150.954,37.126,214.897,37.126c63.943,0,141.104-10.864,214.878-37.126l0.459,1.281
							c0,0,11.041,10.444,18.777,22.87c1.647-2.081,2.961-3.995,4.024-5.684c11.572-18.401-23.833-51.874-23.833-51.874
							l-0.459-1.282c-73.775,26.262-150.935,37.126-214.878,37.126c-63.943,0-141.103-10.864-214.897-37.126l-0.459,1.282
							c0,0-35.405,33.473-23.833,51.874C812.204,1096.184,813.888,1098.598,816.107,1101.246z"/>
					</g>
					<g>
						<path style="fill:#000038;" d="M1049.397,1167.036c-133.656,0-219.03-23.387-246.887-67.631
							c-14.824-23.541,18.461-56.91,25.285-63.361l12.525,13.251c-12.548,11.9-27.311,32.562-22.379,40.395
							c13.9,22.076,62.453,59.113,231.457,59.113c169.005,0,217.559-37.037,231.458-59.113c4.89-7.765-10.128-28.814-22.379-40.395
							l12.525-13.251c6.823,6.451,40.108,39.82,25.285,63.361C1268.429,1143.649,1183.055,1167.036,1049.397,1167.036z"/>
					</g>
				</g>
			</g>
			<g>
				<g>
					<g id="XMLID_7_">
						<g>
							<path style="fill:#FFD9C0;" d="M1317.609,748.473c0,160.82-59.055,263.805-267.617,263.805S782.39,909.293,782.39,748.473
								s134.426-184.545,267.602-184.545S1317.609,587.652,1317.609,748.473z"/>
							<path style="opacity:0.37;fill:#ED7171;" d="M1053.996,611.201c127.799,0,256.741,21.871,266.946,165.753
								c0.45-9.28,0.671-18.775,0.671-28.486c0-160.82-134.442-184.545-267.617-184.545s-267.602,23.724-267.602,184.545
								c0,9.711,0.221,19.207,0.671,28.487C797.268,633.072,926.196,611.201,1053.996,611.201z"/>
							<path style="fill:#FFFFFF;" d="M1459.12,461.175c19.51,0,25.653,182.754,25.715,184.776
								c-16.747-24.295-39.623-30.083-49.594-31.473l0.062-0.432C1435.303,614.047,1439.98,461.175,1459.12,461.175z"/>
							<path style="fill:#FFFFFF;" d="M1484.835,645.967c13.058,18.939,22.366,49.161,18.893,97.304
								c-6.807,94.109-37.199,108.711-73.457,114.931c10.311-35.872,15.852-76.235,16.238-121.244
								c0.401-46.213-5.248-87.055-16.253-122.911h0.016c0,0,1.852,0,4.97,0.432c9.971,1.389,32.846,7.177,49.594,31.473
								C1484.835,645.967,1484.835,645.967,1484.835,645.967z"/>
							<path style="fill:#FFFFFF;" d="M1161.513,448.915c-8.983,31.395-35.563,69.243-111.52,69.243
								c-75.942,0-102.521-37.832-111.505-69.243c-6.375-22.289-3.89-41.336-3.89-41.336c36.057-6.082,74.707-8.983,115.394-8.983
								c40.688,0,79.338,2.902,115.41,8.983C1165.403,407.579,1167.888,426.626,1161.513,448.915z"/>
							<path style="fill:#FFFFFF;" d="M664.758,614.474c-9.971,1.389-32.846,7.177-49.594,31.472
								c0.015-0.741,0.741-22.15,2.439-50.149c3.319-54.718,10.372-134.627,23.261-134.627c12.996,0,19.34,70.447,22.057,115.703
								c1.297,21.393,1.775,37.168,1.775,37.168L664.758,614.474z"/>
							<path style="fill:#FFFFFF;" d="M654.895,772.053c2.284,31.164,7.286,59.858,14.833,86.144
								c-36.258-6.22-66.65-20.822-73.457-114.931c-1.837-25.561-0.077-46.074,3.936-62.529c3.535-14.525,8.829-25.9,14.957-34.776
								c0,0,0,0,0-0.015c16.747-24.295,39.622-30.083,49.594-31.472c3.118-0.432,4.97-0.432,4.97-0.432
								c-11.005,35.856-16.655,76.698-16.253,122.911C653.568,748.993,654.046,760.693,654.895,772.053z"/>
							<path style="fill:#FFFFFF;" d="M1430.257,614.042c-36.829-120.241-133.809-184.375-264.855-206.463
								c0,0,2.485,19.047-3.89,41.336c-8.983,31.395-35.563,69.243-111.52,69.243c-75.942,0-102.521-37.832-111.505-69.243
								c-6.375-22.289-3.89-41.336-3.89-41.336c-131.046,22.072-228.026,86.222-264.87,206.463
								c-11.005,35.841-16.655,76.667-16.253,122.85v0.216c0.401,44.948,5.958,85.265,16.253,121.09
								c45.488,158.474,183.773,229.739,380.264,229.739s334.776-71.265,380.28-229.739c10.311-35.872,15.852-76.219,16.238-121.229
								c0,0,0,0,0-0.015C1446.912,690.74,1441.262,649.898,1430.257,614.042z M1049.993,563.924
								c133.176,0,267.618,23.724,267.618,184.545s-59.055,263.805-267.618,263.805c-208.562,0-267.602-102.984-267.602-263.805
								S916.817,563.924,1049.993,563.924z"/>
						</g>
					</g>
				</g>
				<path style="fill:#FFFFFF;" d="M1446.51,736.953c-0.262-2.254-28.2-234.833-284.998-288.038
					c-33.201-6.884-70.231-10.774-111.52-10.774c-41.289,0-78.303,3.89-111.505,10.774
					c-258.047,53.468-284.997,288.054-284.997,288.054s0-0.031-0.016-0.077c-0.401-46.182,5.248-87.009,16.253-122.85
					c36.844-120.241,133.824-184.39,264.87-206.463c36.057-6.082,74.707-8.983,115.394-8.983c40.688,0,79.338,2.902,115.41,8.983
					c131.046,22.088,228.026,86.222,264.855,206.463C1441.262,649.898,1446.912,690.74,1446.51,736.953z"/>
				<path style="opacity:0.2;fill:#000038;" d="M1446.51,736.969c-0.386,45.009-5.927,85.357-16.238,121.229
					c-45.504,158.474-183.788,229.739-380.28,229.739s-334.776-71.265-380.264-229.739c-10.295-35.825-15.852-76.142-16.253-121.09
					v-0.015c0.016-0.077,0.016-0.124,0.016-0.124s17.457,316.887,396.517,316.887
					C1429.053,1053.856,1446.51,736.969,1446.51,736.969z"/>
				<path style="opacity:0.2;fill:#000038;" d="M669.729,858.198c-36.258-6.22-66.65-20.822-73.457-114.931
					c-1.837-25.561-0.077-46.074,3.936-62.529c0.201,2.47,7.872,92.535,54.687,91.315
					C657.18,803.217,662.181,831.911,669.729,858.198z"/>
				<path style="opacity:0.2;fill:#000038;" d="M664.758,614.474c-9.971,1.389-32.846,7.177-49.594,31.472
					c0.015-0.741,0.741-22.15,2.439-50.149c10.372-10.496,25.051-18.8,45.318-18.924c1.297,21.393,1.775,37.168,1.775,37.168
					L664.758,614.474z"/>
				<path style="opacity:0.2;fill:#000038;" d="M1430.266,858.205c36.258-6.22,66.65-20.822,73.457-114.931
					c1.837-25.561,0.077-46.075-3.936-62.529c-0.201,2.47-7.872,92.535-54.687,91.315
					C1442.815,803.224,1437.814,831.919,1430.266,858.205z"/>
				<path style="opacity:0.2;fill:#000038;" d="M1435.236,614.482c9.971,1.389,32.846,7.177,49.594,31.473
					c-0.015-0.741-0.741-22.15-2.439-50.149c-10.372-10.496-25.052-18.8-45.318-18.924c-1.297,21.393-1.775,37.168-1.775,37.168
					L1435.236,614.482z"/>
				<g>
					<g>
						<path style="fill:#000038;" d="M668.186,867.189c-18.703-3.205-38.112-8.791-53.34-27.79
							c-15.568-19.419-24.357-49.756-27.664-95.471c-3.675-50.826,5.94-88.936,28.579-113.272
							c23.663-25.434,52.738-25.726,53.965-25.726l0.053,18.234c-0.924,0.011-22.82,0.495-40.94,20.206
							c-18.853,20.509-26.75,53.899-23.47,99.244c6.453,89.243,33.661,101.078,65.897,106.605L668.186,867.189z"/>
						<path style="fill:#000038;" d="M624.274,646.263l-18.223-0.602c0.014-0.465,1.578-46.967,5.527-92.873
							c2.336-27.135,5.044-48.821,8.05-64.458c4.185-21.768,9.398-36.268,21.245-36.268c12.84,0,21.567,13.86,28.168,84.704
							c3.547,38.061,4.753,76.616,4.765,77.003l-18.226,0.556c-0.009-0.333-1.056-33.793-4.063-68.817
							c-3.504-40.822-7.616-59.983-10.441-68.871c-3.113,10.133-7.78,33.235-11.985,85.603
							C625.661,604.935,624.288,645.854,624.274,646.263z"/>
						<path style="fill:#000038;" d="M1049.999,1097.063c-126.231,0-225.039-28.995-293.678-86.18
							c-73.247-61.023-110.914-153.156-111.954-273.839c-0.889-103.09,27.947-184.899,85.703-243.155
							c68.687-69.282,176.327-104.41,319.93-104.41c143.605,0,251.245,35.13,319.932,104.412
							c57.756,58.256,86.589,140.065,85.701,243.153c-1.04,120.683-38.707,212.815-111.954,273.839
							C1275.038,1068.067,1176.23,1097.063,1049.999,1097.063z M1049.999,407.713c-138.562,0-241.845,33.314-306.981,99.014
							c-54.207,54.676-81.264,132.113-80.418,230.16c1.928,223.7,135.887,341.942,387.399,341.942s385.471-118.242,387.399-341.942
							c0.846-98.048-26.209-175.485-80.416-230.16C1291.845,441.026,1188.561,407.713,1049.999,407.713z"/>
						<path style="fill:#000038;" d="M1049.999,1021.401c-102.512,0-174.089-24.418-218.825-74.649
							c-39.506-44.357-57.906-107.36-57.906-198.273c0-171.655,147.889-193.668,276.73-193.668s276.73,22.014,276.73,193.668
							c0,90.913-18.399,153.916-57.904,198.273C1224.09,996.984,1152.511,1021.401,1049.999,1021.401z M1049.999,573.045
							c-127.825,0-258.497,20.844-258.497,175.435c0,86.176,16.932,145.327,53.288,186.147
							c41.075,46.121,108.201,68.541,205.209,68.541c97.01,0,164.133-22.42,205.21-68.541
							c36.355-40.82,53.287-99.971,53.287-186.147C1308.496,593.888,1177.824,573.045,1049.999,573.045z"/>
						<path style="fill:#000038;" d="M1431.814,867.189l-3.081-17.97c32.236-5.527,59.444-17.363,65.897-106.605
							c3.296-45.571-4.692-79.061-23.743-99.538c-18.312-19.685-40.393-19.913-40.614-19.913V604.93
							c1.227,0,30.302,0.292,53.965,25.726c22.639,24.336,32.254,62.446,28.579,113.272c-3.307,45.715-12.097,76.052-27.664,95.471
							C1469.925,858.398,1450.518,863.984,1431.814,867.189z"/>
						<path style="fill:#000038;" d="M1475.726,646.263c-0.014-0.41-1.391-41.387-4.822-84.084
							c-4.204-52.323-8.869-75.413-11.98-85.543c-2.828,8.891-6.943,28.068-10.449,68.94c-3.004,35.023-4.047,68.415-4.056,68.748
							l-18.226-0.556c0.012-0.386,1.218-38.942,4.765-77.003c6.601-70.844,15.328-84.704,28.168-84.704
							c11.846,0,17.06,14.498,21.246,36.268c3.006,15.637,5.712,37.324,8.048,64.458c3.951,45.906,5.515,92.408,5.529,92.873
							L1475.726,646.263z"/>
						<path style="fill:#000038;" d="M1049.999,527.276c-44.457,0-77.927-12.448-99.479-36.998
							c-30.908-35.204-25.217-81.905-24.961-83.876l18.08,2.361c-0.048,0.383-4.786,40.726,20.698,69.618
							c17.947,20.345,46.768,30.66,85.662,30.66c38.979,0,67.84-10.36,85.777-30.792c25.52-29.07,20.634-69.086,20.582-69.487
							l18.08-2.361c0.256,1.971,5.947,48.671-24.961,83.876C1127.926,514.827,1094.456,527.276,1049.999,527.276z"/>
					</g>
					<g>
						<path style="fill:#000038;" d="M1175.251,716.346c16.545,0,29.953,17.33,29.953,38.727c0,21.379-13.408,38.709-29.953,38.709
							s-29.953-17.33-29.953-38.709C1145.298,733.676,1158.706,716.346,1175.251,716.346z"/>
						<path style="fill:#000038;" d="M931.597,716.346c16.545,0,29.953,17.33,29.953,38.727c0,21.379-13.408,38.709-29.953,38.709
							s-29.971-17.33-29.971-38.709C901.626,733.676,915.052,716.346,931.597,716.346z"/>
						
							<ellipse transform="matrix(0.7071 -0.7071 0.7071 0.7071 -249.0871 881.166)" style="fill:#FFFFFF;" cx="939.118" cy="741.258" rx="10.101" ry="10.101"/>
						<path style="fill:#FFFFFF;" d="M934.441,765.946c0,2.995-2.428,5.424-5.424,5.424c-2.995,0-5.424-2.428-5.424-5.424
							c0-2.995,2.428-5.424,5.424-5.424C932.013,760.523,934.441,762.951,934.441,765.946z"/>
						
							<ellipse transform="matrix(0.7071 -0.7071 0.7071 0.7071 -180.7962 1053.6365)" style="fill:#FFFFFF;" cx="1181.454" cy="745.059" rx="10.101" ry="10.101"/>
						<path style="fill:#FFFFFF;" d="M1176.776,769.747c0,2.995-2.428,5.424-5.424,5.424s-5.424-2.428-5.424-5.424
							c0-2.995,2.428-5.424,5.424-5.424S1176.776,766.752,1176.776,769.747z"/>
						<ellipse style="fill:#FFB0DF;" cx="895.993" cy="856.238" rx="34.334" ry="23.606"/>
						<ellipse style="fill:#FFB0DF;" cx="1202.804" cy="860.565" rx="34.334" ry="23.606"/>
						<path style="fill:#000038;" d="M931.585,802.906c-21.547,0-39.076-21.462-39.076-47.841c0-26.38,17.528-47.841,39.076-47.841
							c21.547,0,39.077,21.462,39.077,47.841C970.662,781.444,953.132,802.906,931.585,802.906z M931.585,725.456
							c-11.298,0-20.842,13.559-20.842,29.608c0,16.049,9.544,29.608,20.842,29.608c11.298,0,20.844-13.559,20.844-29.608
							C952.429,739.016,942.883,725.456,931.585,725.456z"/>
						<path style="fill:#000038;" d="M880.732,704.056c1.144-5.629,3.512-10.853,6.391-15.801c2.913-4.94,6.564-9.508,10.864-13.619
							c4.331-4.067,9.409-7.609,15.169-10.176c2.867-1.318,5.945-2.229,9.072-3.011c3.156-0.693,6.404-1.061,9.663-1.109
							c6.523-0.068,13.04,1.358,18.846,3.872c5.818,2.527,10.955,6.062,15.281,10.177c4.324,4.127,7.939,8.754,10.799,13.739
							c2.821,4.996,5.109,10.268,6.133,15.928c-8.777-7.122-17.024-13.492-25.548-18.192c-8.499-4.719-16.986-7.357-25.375-7.297
							c-8.395,0.001-16.953,2.803-25.506,7.512C897.939,690.789,889.606,697.068,880.732,704.056z"/>
						<path style="fill:#000038;" d="M1224.335,703.306c-8.874-6.988-17.207-13.267-25.789-17.977
							c-8.553-4.709-17.112-7.511-25.506-7.511c-8.389-0.06-16.877,2.577-25.376,7.297c-8.524,4.7-16.772,11.069-25.548,18.192
							c1.023-5.661,3.312-10.932,6.133-15.929c2.861-4.985,6.475-9.613,10.799-13.739c4.326-4.115,9.463-7.65,15.281-10.177
							c5.806-2.514,12.323-3.94,18.846-3.872c3.258,0.048,6.506,0.417,9.662,1.109c3.127,0.781,6.205,1.693,9.072,3.011
							c5.76,2.568,10.838,6.109,15.169,10.176c4.3,4.111,7.951,8.679,10.864,13.619
							C1220.823,692.453,1223.191,697.677,1224.335,703.306z"/>
						<path style="fill:#000038;" d="M1175.244,802.906c-21.547,0-39.076-21.462-39.076-47.841c0-26.38,17.528-47.841,39.076-47.841
							s39.077,21.462,39.077,47.841C1214.321,781.444,1196.791,802.906,1175.244,802.906z M1175.244,725.456
							c-11.298,0-20.842,13.559-20.842,29.608c0,16.049,9.544,29.608,20.842,29.608s20.844-13.559,20.844-29.608
							C1196.088,739.016,1186.542,725.456,1175.244,725.456z"/>
						<path style="fill:#FF7976;" d="M1119.806,857.152c0.601-2.924-2.878-4.921-5.081-2.907
							c-8.571,7.836-26.594,18.375-61.54,18.375c-35.218,0-53.064-10.703-61.419-18.558c-2.152-2.023-5.625-0.102-5.118,2.809
							c3.768,21.628,17.45,67.738,65.624,67.738C1100.239,924.609,1115.337,878.896,1119.806,857.152z"/>
						<path style="opacity:0.5;fill:#633026;" d="M990.514,878.289c8.576,7.8,26.379,18.046,60.846,18.046
							c32.924,0,51.068-5.133,60.197-12.769c3.362-8.252,5.182-20.369,6.424-26.414c0.601-2.924-2.878-4.921-5.081-2.907
							c-8.571,7.836-26.594,18.375-61.54,18.375c-35.218,0-53.064-10.703-61.419-18.558c-2.152-2.023-5.624-0.102-5.117,2.809
							C985.839,862.694,987.583,870.295,990.514,878.289z"/>
						<path style="fill:#000038;" d="M1052.273,931.902c-54.115,0-68.945-51.597-72.809-73.78c-0.771-4.414,1.364-8.81,5.308-10.938
							c3.924-2.115,8.741-1.489,11.989,1.563c6.586,6.193,22.674,16.579,56.424,16.579c33.597,0,49.895-10.315,56.618-16.464
							c3.323-3.039,8.189-3.586,12.103-1.366c3.926,2.227,5.953,6.697,5.044,11.12v0.004
							C1122.422,880.654,1106.079,931.902,1052.273,931.902z M996.232,866.575c6.015,22.578,20.621,50.74,56.041,50.74
							c35.31,0,50.817-27.927,57.574-50.438c-11.547,6.934-29.446,13.036-56.663,13.036
							C1025.606,879.914,1007.681,873.653,996.232,866.575z"/>
					</g>
					<path style="fill:#000038;" d="M785.959,844.481c-65.436-3.118-72.012-54.341-76.363-88.235
						c-1.517-11.811-3.405-26.512-7.514-28.908c-23.577-13.746-51.1-30.126-51.376-30.29l9.327-15.669
						c0.274,0.164,27.729,16.503,51.234,30.208c11.868,6.919,13.974,23.333,16.414,42.338c4.211,32.79,8.981,69.953,59.148,72.344
						L785.959,844.481z"/>
					<path style="fill:#000038;" d="M1313.412,844.481l-0.869-18.212c50.169-2.391,54.939-39.555,59.148-72.344
						c2.439-19.005,4.546-35.418,16.414-42.338c23.506-13.705,50.961-30.044,51.235-30.208l9.327,15.669
						c-0.276,0.164-27.799,16.544-51.378,30.29c-4.11,2.397-5.997,17.096-7.514,28.908
						C1385.426,790.141,1378.85,841.363,1313.412,844.481z"/>
				</g>
			</g>
			<g>
				<path style="opacity:0.2;fill:#000038;" d="M1209.955,1342.065c-10.038,4.464-143.477,45.863-160.459,51.126
					c-16.982-5.263-150.421-46.662-160.459-51.126c-10.722-4.768-82.108-47.698-82.108-47.698l2.861,31.307
					c0,0,35.988,42.968,95.524,56.86c0,0-1.783,19.669,0.474,26.054c5.766,16.311,32.407,39.882,143.087,40.059l0,0.004
					c0.209,0,0.412-0.002,0.62-0.002c0.209,0,0.411,0.002,0.62,0.002v-0.004c110.681-0.176,137.321-23.748,143.088-40.059
					c2.257-6.384,0.474-26.054,0.474-26.054c59.536-13.893,95.524-56.86,95.524-56.86l2.861-31.307
					C1292.063,1294.366,1220.676,1337.297,1209.955,1342.065z"/>
				<g>
					<path style="fill:#F1F2F2;" d="M1052.437,1429.424c-0.393,0-0.771-0.004-1.161-0.005c-0.389,0.002-0.768,0.005-1.16,0.005
						H1052.437z"/>
					<path style="fill:#F1F2F2;" d="M1154.59,1302.912c0,0-32.485,11.131-104.474,11.131c-71.99,0-102.154-11.131-102.154-11.131
						l-21.527,5.564v95.646c0,0,19.202,25.114,124.841,25.297c105.638-0.183,124.841-25.297,124.841-25.297v-95.646
						L1154.59,1302.912z"/>
				</g>
				<g style="opacity:0.2;">
					<path style="fill:#000038;" d="M1052.437,1428.927c-0.392,0-0.771-0.004-1.161-0.004c-0.389,0.001-0.768,0.004-1.16,0.004
						H1052.437z"/>
					<path style="fill:#000038;" d="M1051.276,1402.715c0.39,0.001,0.769,0.004,1.161,0.004h-2.321
						C1050.508,1402.72,1050.887,1402.716,1051.276,1402.715c-105.639-0.185-124.841-25.297-124.841-25.297v26.207
						c0,0,19.202,25.113,124.841,25.297c105.639-0.184,124.841-25.297,124.841-25.297v-26.207
						C1176.117,1377.418,1156.915,1402.531,1051.276,1402.715z"/>
				</g>
				<path style="fill:#FFFFFF;" d="M925.275,1308.477c0,0,9.354,22.548,123.68,22.548s126.001-22.548,126.001-22.548l-20.366-5.566
					c0,0-39.038,11.132-105.635,11.132c-66.597,0-102.153-11.132-102.153-11.132L925.275,1308.477z"/>
				<path style="fill:#000038;" d="M1051.276,1438.54c-0.782,0-1.542,0-2.32,0v-0.004c-106.062-0.369-128.683-25.943-130.925-28.878
					l-1.873-2.452v-105.79l31.125-8.047l2.676,0.988c0.262,0.094,30.069,10.568,98.997,10.568
					c69.146,0,101.224-10.541,101.541-10.648l2.568-0.865l2.648,0.671l28.362,7.333v105.79l-1.873,2.452
					c-2.242,2.934-24.861,28.509-130.925,28.878V1438.54z M934.391,1400.02c7.226,5.169,35.119,20.142,115.726,20.285
					c80.607-0.142,108.498-15.116,115.724-20.285v-84.483l-12.208-3.157c-9.4,2.692-42.786,10.78-104.677,10.78
					c-61.339,0-93.169-7.968-102.435-10.76l-12.13,3.137V1400.02z"/>
				<path style="fill:#000038;" d="M1049.502,1408.024h-0.547c-32.845,0-43.593-17.552-46.982-26.855
					c-39.246-1.109-76.335-16.12-77.957-16.784l4.834-11.813c0.39,0.158,39.359,15.897,77.665,15.897c0.103,0,0.2,0,0.303,0
					l5.746-0.013l0.612,5.712c0.105,0.794,3.139,21.091,35.778,21.091h0.547c33.128,0,35.753-20.88,35.774-21.09l0.614-5.714
					l5.746,0.013c38.561,0.112,77.576-15.737,77.966-15.897l4.836,11.813c-1.622,0.664-38.712,15.673-77.957,16.784
					C1093.094,1390.472,1082.346,1408.024,1049.502,1408.024z"/>
				<g>
					<path style="fill:#FFFFFF;" d="M1176.479,1330.529c0,0,67.756-10.005,103.901-59.95c6.35-8.775,23.639,9.262,14.795,23.291
						c-5.458,8.658-31.839,50.468-118.696,71.801V1330.529z"/>
					<path style="opacity:0.2;fill:#000038;" d="M1290.157,1270.374c1.378,4.351,1.277,9.336-1.6,13.9
						c-5.317,8.434-30.496,48.321-112.078,70.1v11.297c86.857-21.333,113.238-63.143,118.696-71.801
						C1300.711,1285.088,1296.008,1274.738,1290.157,1270.374z"/>
					<path style="fill:#000038;" d="M1168.275,1376.632v-52.69l7.003-1.033c0.945-0.144,64.919-10.305,98.455-56.645
						c4.699-6.49,13.127-7.548,20.488-2.569c10.155,6.864,15.751,22.585,7.895,35.048c-21.652,34.348-65.576,61.123-123.68,75.393
						L1168.275,1376.632z M1184.685,1337.818v17.712c48.858-13.7,85.412-36.766,103.55-65.537c1.77-2.81,1.255-5.723,0.513-7.673
						c-0.817-2.146-2.096-3.684-3.104-4.56C1254.342,1319.374,1203.321,1333.788,1184.685,1337.818z"/>
					<path style="fill:#000038;" d="M1214.667,1356.708l-6.887-2.4c5.719-16.421-5.271-27.844-5.741-28.322l5.167-5.146
						C1207.811,1321.443,1221.923,1335.879,1214.667,1356.708z"/>
					<path style="fill:#000038;" d="M1250.067,1340.663l-6.887-2.4c5.767-16.556-5.616-28.196-5.732-28.312l5.157-5.157
						C1243.208,1305.398,1257.323,1319.834,1250.067,1340.663z"/>
					<path style="fill:#000038;" d="M1277.994,1320.156l-6.887-2.4c5.767-16.556-5.616-28.196-5.732-28.312l5.157-5.156
						C1271.135,1284.891,1285.25,1299.326,1277.994,1320.156z"/>
				</g>
				<g>
					<path style="fill:#FFFFFF;" d="M925.624,1330.529c0,0-67.756-10.005-103.901-59.95c-6.35-8.775-23.64,9.262-14.795,23.291
						c5.458,8.658,31.839,50.468,118.696,71.801V1330.529z"/>
					<path style="opacity:0.2;fill:#000038;" d="M811.946,1270.374c-1.378,4.351-1.277,9.336,1.6,13.9
						c5.317,8.434,30.496,48.321,112.078,70.1v11.297c-86.857-21.333-113.238-63.143-118.696-71.801
						C801.392,1285.088,806.096,1274.738,811.946,1270.374z"/>
					<path style="fill:#000038;" d="M933.828,1376.632l-10.162-2.496c-58.103-14.27-102.027-41.045-123.68-75.393
						c-7.856-12.463-2.26-28.184,7.895-35.048c7.365-4.98,15.79-3.923,20.488,2.571c33.616,46.449,97.816,56.547,98.461,56.643
						l6.989,1.047L933.828,1376.632z M816.459,1277.76c-1.008,0.876-2.286,2.414-3.104,4.56c-0.742,1.95-1.257,4.863,0.513,7.673
						c18.137,28.771,54.691,51.837,103.55,65.537v-17.712C898.782,1333.788,847.761,1319.374,816.459,1277.76z"/>
					<path style="fill:#000038;" d="M887.436,1356.708c-7.256-20.83,6.859-35.265,7.463-35.869l5.167,5.148
						c-0.472,0.477-11.462,11.9-5.742,28.321L887.436,1356.708z"/>
					<path style="fill:#000038;" d="M852.036,1340.663c-7.256-20.83,6.859-35.265,7.463-35.869l5.167,5.148
						c-0.472,0.477-11.462,11.9-5.742,28.321L852.036,1340.663z"/>
					<path style="fill:#000038;" d="M824.11,1320.156c-7.256-20.83,6.855-35.265,7.461-35.869l5.157,5.156l-2.578-2.578l2.589,2.568
						c-0.47,0.479-11.46,11.902-5.741,28.323L824.11,1320.156z"/>
				</g>
			</g>
		</g>
		<g>
			<path style="opacity:0.61;fill:#FFFFFF;" d="M867.201,1108.923v44.412H833.14c-25.965,0-47.983,16.886-55.688,40.263
				c-1.908,5.768-2.935,11.942-2.935,18.36v142.806c0,28.972,21.006,53.043,48.633,57.77c3.253,0.564,6.578,0.853,9.99,0.853h34.061
				v37.082c0,0,0,0.333,0.361,0.911c1.128,1.822,5.826,6.029,25.473,9.585c0.81,0.144,1.648,0.303,2.516,0.448
				c17.58,2.935,46.074,5.32,92.235,5.32c56.527,0,88.274-3.123,106.1-6.65c22.842-4.482,22.842-9.614,22.842-9.614v-341.546
				H867.201z M867.201,1373.905h-25.459c-1.402,0-2.776-0.101-4.135-0.303c-0.159-0.029-0.304-0.058-0.448-0.087
				c-6.332-1.055-11.941-4.265-16.018-8.877c-4.337-4.872-6.968-11.276-6.968-18.303v-125.934c0-15.238,12.346-27.569,27.569-27.569
				h25.459V1373.905z"/>
			<path style="fill:#FF9D00;" d="M1093.753,1413.858c0,13.008-8.15,24.102-19.282,26.212c-16.559,3.139-43.232,6.78-77.865,6.78
				c-42.55,0-69.487-3.204-85.357-6.192c-11.132-2.096-19.279-13.206-19.279-26.212v-271.59c0-14.672,10.315-26.565,23.039-26.565
				h155.705c12.724,0,23.039,11.894,23.039,26.565V1413.858z"/>
			<circle style="opacity:0.31;fill:#FFFFFF;" cx="952.696" cy="1270.856" r="7.32"/>
			<path style="opacity:0.31;fill:#FFFFFF;" d="M945.214,1230.344c-1.58,1.26-3.883,1.001-5.143-0.579s-1.001-3.883,0.579-5.143
				s3.883-1.001,5.143,0.579C947.053,1226.78,946.794,1229.083,945.214,1230.344z"/>
			<path style="opacity:0.31;fill:#FFFFFF;" d="M955.761,1253.898c-1.105,1.693-3.373,2.169-5.066,1.063
				c-1.692-1.105-2.169-3.373-1.063-5.066c1.105-1.693,3.373-2.169,5.065-1.063C956.39,1249.937,956.866,1252.205,955.761,1253.898z
				"/>
			<path style="opacity:0.31;fill:#FFFFFF;" d="M963.782,1237.136c-2.08,3.185-6.347,4.081-9.532,2.001
				c-3.185-2.08-4.081-6.347-2.001-9.532c2.08-3.185,6.347-4.081,9.532-2.001C964.965,1229.684,965.861,1233.951,963.782,1237.136z"
				/>
			<path style="opacity:0.31;fill:#FFFFFF;" d="M970.614,1248.525c-1.417,2.17-4.324,2.78-6.494,1.363
				c-2.17-1.417-2.78-4.324-1.363-6.494s4.324-2.78,6.494-1.363S972.031,1246.355,970.614,1248.525z"/>
			<circle style="opacity:0.31;fill:#FFFFFF;" cx="955.386" cy="1430.587" r="7.32"/>
			<path style="opacity:0.31;fill:#FFFFFF;" d="M947.904,1390.074c-1.58,1.26-3.883,1.001-5.143-0.579s-1.001-3.883,0.579-5.144
				c1.58-1.26,3.883-1.001,5.144,0.579C949.743,1386.511,949.484,1388.814,947.904,1390.074z"/>
			<path style="opacity:0.31;fill:#FFFFFF;" d="M958.451,1413.629c-1.105,1.693-3.373,2.169-5.065,1.063
				c-1.693-1.105-2.169-3.373-1.063-5.066c1.105-1.692,3.373-2.169,5.065-1.063C959.08,1409.668,959.556,1411.936,958.451,1413.629z
				"/>
			<path style="opacity:0.31;fill:#FFFFFF;" d="M966.472,1396.867c-2.08,3.185-6.347,4.081-9.532,2.001
				c-3.185-2.08-4.081-6.347-2.001-9.532c2.08-3.185,6.347-4.081,9.532-2.001C967.656,1389.415,968.552,1393.682,966.472,1396.867z"
				/>
			<path style="opacity:0.31;fill:#FFFFFF;" d="M973.305,1408.256c-1.417,2.17-4.324,2.78-6.494,1.363
				c-2.17-1.417-2.78-4.324-1.363-6.494c1.417-2.17,4.324-2.78,6.494-1.363C974.111,1403.179,974.721,1406.086,973.305,1408.256z"/>
			<circle style="opacity:0.31;fill:#FFFFFF;" cx="1025.077" cy="1320.734" r="7.32"/>
			<path style="opacity:0.31;fill:#FFFFFF;" d="M1017.595,1280.222c-1.58,1.26-3.883,1.001-5.143-0.579s-1.001-3.883,0.579-5.143
				c1.58-1.26,3.883-1.001,5.143,0.579C1019.434,1276.659,1019.175,1278.961,1017.595,1280.222z"/>
			<path style="opacity:0.31;fill:#FFFFFF;" d="M1028.142,1303.776c-1.105,1.693-3.373,2.169-5.066,1.063
				c-1.692-1.105-2.169-3.373-1.063-5.066c1.105-1.693,3.373-2.169,5.065-1.063
				C1028.771,1299.816,1029.247,1302.083,1028.142,1303.776z"/>
			<path style="opacity:0.31;fill:#FFFFFF;" d="M1036.163,1287.015c-2.08,3.185-6.348,4.081-9.532,2.001
				c-3.185-2.08-4.081-6.347-2.001-9.532c2.08-3.185,6.348-4.081,9.532-2.001S1038.243,1283.83,1036.163,1287.015z"/>
			<path style="opacity:0.31;fill:#FFFFFF;" d="M1042.995,1298.403c-1.417,2.17-4.324,2.78-6.494,1.363
				c-2.17-1.417-2.78-4.324-1.363-6.494c1.417-2.17,4.324-2.78,6.494-1.363C1043.802,1293.326,1044.412,1296.234,1042.995,1298.403z
				"/>
			<path style="opacity:0.31;fill:#FFFFFF;" d="M1009.15,1423.523c-4.009-0.52-6.837-4.192-6.317-8.201
				c0.52-4.009,4.192-6.837,8.201-6.317c4.009,0.52,6.837,4.192,6.317,8.201S1013.159,1424.043,1009.15,1423.523z"/>
			<path style="opacity:0.31;fill:#FFFFFF;" d="M1051.23,1414.056c-1.047-1.729-0.493-3.979,1.236-5.026
				c1.729-1.047,3.979-0.493,5.026,1.236c1.047,1.729,0.493,3.98-1.236,5.026C1054.527,1416.339,1052.276,1415.786,1051.23,1414.056
				z"/>
			<path style="opacity:0.31;fill:#FFFFFF;" d="M1026.514,1421.485c-1.536-1.314-1.717-3.624-0.403-5.16
				c1.314-1.536,3.624-1.717,5.16-0.403c1.536,1.314,1.717,3.624,0.403,5.16C1030.361,1422.619,1028.051,1422.799,1026.514,1421.485
				z"/>
			<path style="opacity:0.31;fill:#FFFFFF;" d="M1042.104,1431.596c-2.891-2.472-3.23-6.82-0.758-9.71
				c2.472-2.891,6.82-3.23,9.711-0.758c2.891,2.472,3.23,6.82,0.758,9.71C1049.343,1433.729,1044.995,1434.068,1042.104,1431.596z"
				/>
			<path style="opacity:0.31;fill:#FFFFFF;" d="M1029.931,1436.906c-1.969-1.684-2.2-4.646-0.516-6.615
				c1.684-1.969,4.646-2.201,6.615-0.516s2.201,4.646,0.516,6.615C1034.862,1438.359,1031.901,1438.591,1029.931,1436.906z"/>
			<path style="opacity:0.31;fill:#FFFFFF;" d="M924.375,1171.409c-4.009-0.52-6.837-4.192-6.317-8.201
				c0.52-4.009,4.192-6.837,8.201-6.317c4.009,0.52,6.837,4.192,6.317,8.201C932.056,1169.1,928.384,1171.929,924.375,1171.409z"/>
			<path style="opacity:0.31;fill:#FFFFFF;" d="M966.455,1161.942c-1.047-1.729-0.493-3.98,1.236-5.026
				c1.729-1.047,3.98-0.493,5.026,1.236c1.047,1.729,0.493,3.98-1.236,5.026C969.752,1164.224,967.502,1163.671,966.455,1161.942z"
				/>
			<path style="opacity:0.31;fill:#FFFFFF;" d="M941.74,1169.371c-1.536-1.314-1.717-3.624-0.403-5.16
				c1.314-1.536,3.624-1.717,5.16-0.403c1.536,1.314,1.717,3.624,0.403,5.16C945.586,1170.504,943.276,1170.684,941.74,1169.371z"/>
			<path style="opacity:0.31;fill:#FFFFFF;" d="M957.33,1179.482c-2.891-2.472-3.23-6.82-0.758-9.71
				c2.472-2.891,6.82-3.23,9.711-0.758c2.891,2.472,3.23,6.82,0.758,9.71C964.568,1181.615,960.221,1181.954,957.33,1179.482z"/>
			<path style="opacity:0.31;fill:#FFFFFF;" d="M945.157,1184.792c-1.969-1.684-2.201-4.646-0.516-6.615
				c1.684-1.969,4.646-2.201,6.615-0.516c1.969,1.684,2.201,4.646,0.516,6.615S947.126,1186.476,945.157,1184.792z"/>
			<path style="opacity:0.31;fill:#FFFFFF;" d="M1060.478,1131.821c3.332-2.289,7.889-1.444,10.178,1.888
				c2.289,3.332,1.444,7.889-1.888,10.178c-3.332,2.289-7.889,1.444-10.178-1.888
				C1056.301,1138.667,1057.146,1134.11,1060.478,1131.821z"/>
			<path style="opacity:0.31;fill:#FFFFFF;" d="M1035.47,1166.963c1.934,0.589,3.024,2.633,2.436,4.567
				c-0.589,1.934-2.633,3.024-4.567,2.436c-1.934-0.589-3.024-2.633-2.436-4.567
				C1031.492,1167.465,1033.537,1166.374,1035.47,1166.963z"/>
			<path style="opacity:0.31;fill:#FFFFFF;" d="M1048.911,1144.931c2.021-0.047,3.698,1.552,3.745,3.573
				c0.047,2.021-1.552,3.698-3.573,3.745c-2.021,0.048-3.698-1.552-3.745-3.573
				C1045.291,1146.656,1046.89,1144.979,1048.911,1144.931z"/>
			<path style="opacity:0.31;fill:#FFFFFF;" d="M1030.554,1147.812c3.803-0.09,6.958,2.921,7.047,6.723
				c0.089,3.803-2.921,6.958-6.723,7.047c-3.803,0.089-6.958-2.921-7.047-6.723
				C1023.741,1151.057,1026.751,1147.902,1030.554,1147.812z"/>
			<path style="opacity:0.31;fill:#FFFFFF;" d="M1036.071,1135.731c2.591-0.061,4.74,1.99,4.801,4.58
				c0.061,2.591-1.99,4.74-4.58,4.801c-2.59,0.061-4.74-1.99-4.801-4.58S1033.481,1135.792,1036.071,1135.731z"/>
			<path style="opacity:0.2;fill:#000038;" d="M867.201,1108.923v22.322c1.634-0.405,3.224-0.954,4.742-1.619
				c0.708,12.014,10.655,21.555,22.842,21.555c6.578,0,12.505-2.79,16.683-7.228c5.147,6.216,12.78,10.293,21.353,10.799
				c-1.012,3.021-1.59,6.245-1.59,9.614c0,16.597,13.445,30.042,30.042,30.042c16.018,0,29.087-12.563,29.955-28.379
				c2.038,0.434,4.149,0.679,6.318,0.679c7.257,0,13.936-2.588,19.127-6.881c4.511,10.886,15.238,18.548,27.757,18.548
				c4.698,0,9.137-1.113,13.098-3.036v0.145c0,11.291,6.231,21.107,15.426,26.24c-4.395,5.219-7.041,11.956-7.041,19.314
				c0,15.382,11.566,28.047,26.485,29.81c0.708,12.028,10.655,21.57,22.871,21.57c0.491,0,0.983-0.015,1.46-0.044v-163.45H867.201z"
				/>
			<g>
				<path style="opacity:0.28;fill:#F1F2F2;" d="M983.19,1404.51h25.881c5.61,0,10.158-4.548,10.158-10.158V1181.31
					c0-5.61-4.548-10.158-10.158-10.158H983.19c-5.61,0-10.158,4.548-10.158,10.158v213.042
					C973.032,1399.962,977.58,1404.51,983.19,1404.51z"/>
				<path style="opacity:0.08;fill:#000038;" d="M1010.076,1377.157v-178.632c0-13.083-7.756-24.005-18.114-26.707
					c1.399-0.313,2.838-0.494,4.313-0.494l0,0c12.757,0,23.098,12.251,23.098,27.363v178.632c0,15.112-10.341,27.363-23.098,27.363
					l0,0c-1.713,0-3.378-0.237-4.984-0.656C1001.984,1401.63,1010.076,1390.521,1010.076,1377.157z"/>
				<path style="opacity:0.28;fill:#F1F2F2;" d="M902.128,1404.682h25.881c5.61,0,10.158-4.548,10.158-10.158v-213.042
					c0-5.61-4.548-10.158-10.158-10.158h-25.881c-5.61,0-10.158,4.548-10.158,10.158v213.042
					C891.97,1400.134,896.518,1404.682,902.128,1404.682z"/>
				<path style="opacity:0.08;fill:#000038;" d="M929.015,1377.329v-178.632c0-13.083-7.756-24.005-18.114-26.707
					c1.399-0.313,2.837-0.494,4.313-0.494h0c12.757,0,23.098,12.251,23.098,27.363v178.632c0,15.112-10.341,27.363-23.098,27.363h0
					c-1.713,0-3.377-0.237-4.984-0.656C920.923,1401.802,929.015,1390.693,929.015,1377.329z"/>
				<path style="opacity:0.28;fill:#F1F2F2;" d="M1057.714,1404.596h25.881c5.61,0,10.158-4.548,10.158-10.158v-213.042
					c0-5.61-4.548-10.158-10.158-10.158h-25.881c-5.61,0-10.158,4.548-10.158,10.158v213.042
					C1047.557,1400.048,1052.104,1404.596,1057.714,1404.596z"/>
				<path style="opacity:0.08;fill:#000038;" d="M1084.601,1377.243v-178.632c0-13.083-7.756-24.005-18.114-26.707
					c1.399-0.313,2.837-0.494,4.313-0.494l0,0c12.757,0,23.098,12.251,23.098,27.363v178.632c0,15.112-10.342,27.363-23.098,27.363
					l0,0c-1.713,0-3.378-0.237-4.984-0.656C1076.509,1401.716,1084.601,1390.607,1084.601,1377.243z"/>
			</g>
			<path style="fill:none;stroke:#000038;stroke-width:10;stroke-miterlimit:10;" d="M868.169,1109.097v44.412h-34.061
				c-25.69,0-47.52,16.524-55.428,39.511c-2.067,5.985-3.195,12.418-3.195,19.112v142.806c0,28.639,20.514,52.464,47.665,57.597
				c3.542,0.679,7.214,1.026,10.958,1.026h34.061v37.082c0,0,0,5.682,24.866,10.322c0.81,0.144,1.648,0.303,2.516,0.448
				c17.493,3.022,46.19,5.494,93.204,5.494c128.942,0,128.942-16.264,128.942-16.264v-341.546H868.169z M842.711,1374.078
				c-1.749,0-3.455-0.159-5.103-0.477c-0.159-0.029-0.304-0.058-0.448-0.087c-5.898-1.2-11.103-4.294-14.949-8.602
				c-4.409-4.886-7.069-11.32-7.069-18.404v-125.935c0-15.238,12.346-27.569,27.569-27.569h25.459v181.073H842.711z"/>
			<path style="fill:#000038;" d="M868.169,1374.078c0,0,0.001,0.04,0.003,0.109
				C868.169,1374.116,868.169,1374.078,868.169,1374.078z"/>
			<path style="opacity:0.2;fill:#000038;" d="M994.781,1411.623c-93.457,0-113.268-19.636-120.475-30.526l-6.136-7.019
				c0,0-0.737,0-2.487-0.174c-4.814-0.477-17.305-2.27-43.472-8.992c-0.347-0.087-0.708-0.173-1.07-0.275
				c-0.246-0.058-0.492-0.13-0.737-0.188c-37.183-9.643-41.708-171.445-41.708-171.445s0,0-0.014,0.015
				c-0.101,0.043-0.521,0.231-1.229,0.578c-1.908,5.768-2.935,11.942-2.935,18.36v142.806c0,28.972,21.006,53.043,48.633,57.77
				c3.542,0.679,7.214,1.026,10.958,1.026h31.284c-0.307,2.038-0.775,8.168-0.979,15.816c-0.117,4.467-0.146,9.455,0,14.457
				c0.073,2.53,0.19,5.074,0.365,7.547c1.14,1.822,5.891,6.029,25.758,9.585c0.819,0.144,1.667,0.303,2.544,0.448
				c17.776,2.935,46.589,5.32,93.266,5.32c57.158,0,89.26-3.123,107.285-6.65c23.097-4.482,23.097-9.614,23.097-9.614v-61.601
				C1115.705,1394.347,1103.849,1411.623,994.781,1411.623z"/>
			<path style="fill:#FFFFFF;" d="M1192.927,1174.1c0-23.955-16.871-43.964-39.381-48.807c5.956-6.173,9.556-14.139,9.556-22.856
				c0-14.688-10.192-27.28-24.693-32.615c3.918-7.127,6.159-15.31,6.159-24.027c0-27.584-22.384-48.938-49.963-49.963
				c-31.512-1.171-41.813,25.265-41.853,21.83c-0.149-12.707-10.293-23.001-23.001-23.001c-10.886,0-19.98,7.575-22.365,17.739
				c-4.944-3.571-10.987-5.711-17.551-5.711c-10.987,0-20.572,5.927-25.806,14.732c-9.166-10.857-22.871-17.768-38.181-17.768
				c-26.08,0-47.477,19.994-49.746,45.482c-1.373-0.188-2.747-0.318-4.164-0.318c-16.596,0-30.042,13.445-30.042,30.027
				c0,16.597,13.445,30.042,30.042,30.042c4.294,0,8.385-0.911,12.086-2.544c0.708,12.014,10.655,21.555,22.842,21.555
				c6.578,0,12.505-2.79,16.683-7.228c5.147,6.216,12.78,10.293,21.353,10.799c-1.012,3.021-1.59,6.245-1.59,9.614
				c0,16.596,13.445,30.042,30.042,30.042c16.018,0,29.087-12.563,29.955-28.379c2.039,0.434,4.149,0.679,6.318,0.679
				c7.257,0,13.937-2.588,19.127-6.881c4.511,10.886,15.238,18.548,27.757,18.548c4.698,0,9.137-1.113,13.098-3.036v0.145
				c0,11.291,6.231,21.107,15.426,26.239c-4.395,5.219-7.041,11.956-7.041,19.315c0,15.382,11.566,28.046,26.485,29.81
				c0.708,12.028,10.655,21.57,22.871,21.57c12.664,0,22.943-10.279,22.943-22.943c0-0.896-0.072-1.778-0.174-2.646
				C1174.321,1220.073,1192.927,1199.27,1192.927,1174.1z"/>
			<g style="opacity:0.2;">
				<path style="fill:#000038;" d="M1192.817,1177.258c-7.625,12.225-20.382,20.917-35.262,23.051
					c0.101,0.867,0.173,1.749,0.173,2.646c0,12.664-10.279,22.943-22.943,22.943c-12.216,0-22.162-9.542-22.871-21.57
					c-14.92-1.764-26.485-14.428-26.485-29.81c0-7.359,2.646-14.095,7.041-19.315c-9.195-5.132-15.426-14.948-15.426-26.239v-0.145
					c-3.961,1.923-8.399,3.036-13.098,3.036c-12.52,0-23.247-7.662-27.757-18.548c-5.19,4.294-11.869,6.881-19.127,6.881
					c-2.169,0-4.279-0.246-6.318-0.679c-0.867,15.816-13.937,28.379-29.955,28.379c-16.597,0-30.042-13.445-30.042-30.042
					c0-3.369,0.578-6.592,1.59-9.614c-8.573-0.506-16.206-4.583-21.353-10.799c-4.178,4.438-10.105,7.229-16.683,7.229
					c-12.187,0-22.134-9.542-22.842-21.555c-3.701,1.634-7.792,2.544-12.086,2.544c-15.482,0-28.212-11.704-29.853-26.748
					c-4.727,5.306-7.624,12.277-7.624,19.941c0,16.596,13.445,30.042,30.042,30.042c4.294,0,8.385-0.911,12.086-2.544
					c0.708,12.014,10.655,21.555,22.842,21.555c6.578,0,12.505-2.79,16.683-7.229c5.147,6.217,12.78,10.293,21.353,10.799
					c-1.012,3.021-1.59,6.245-1.59,9.614c0,16.596,13.445,30.042,30.042,30.042c16.018,0,29.087-12.563,29.955-28.379
					c2.039,0.434,4.149,0.679,6.318,0.679c7.257,0,13.937-2.588,19.127-6.881c4.511,10.886,15.238,18.548,27.757,18.548
					c4.698,0,9.137-1.113,13.098-3.036v0.145c0,11.291,6.231,21.107,15.426,26.239c-4.395,5.219-7.041,11.956-7.041,19.315
					c0,15.382,11.566,28.046,26.485,29.81c0.708,12.028,10.655,21.57,22.871,21.57c12.664,0,22.943-10.279,22.943-22.943
					c0-0.896-0.072-1.778-0.174-2.646C1173.3,1220.219,1191.335,1200.99,1192.817,1177.258z"/>
				<path style="fill:#000038;" d="M1163.099,1102.564c0-0.043,0.003-0.084,0.003-0.127c0-0.888-0.041-1.769-0.114-2.641
					c-0.636,0.777-1.303,1.534-2.007,2.263C1161.693,1102.212,1162.399,1102.381,1163.099,1102.564z"/>
			</g>
			<path style="fill:#000038;" d="M1127.351,1258.248c-14.476,0-26.843-9.681-30.748-23.055
				c-16.202-4.925-27.726-19.973-27.726-37.441c0-5.947,1.36-11.784,3.919-17.069c-4.916-4.638-8.549-10.47-10.545-16.9
				c-1.891,0.283-3.805,0.424-5.741,0.424c-12.309,0-23.604-5.693-30.899-15.084c-4.651,2.08-9.697,3.248-14.836,3.399
				c-4.907,16.115-19.875,27.717-37.421,27.717c-21.592,0-39.157-17.568-39.157-39.159c0-0.823,0.027-1.644,0.078-2.464
				c-4.067-1.359-7.894-3.378-11.309-5.969c-4.856,2.826-10.418,4.366-16.099,4.366c-13.111,0-24.491-7.952-29.409-19.398
				c-1.816,0.256-3.659,0.386-5.52,0.386c-21.592,0-39.159-17.566-39.159-39.157c0-20.386,15.669-37.185,35.603-38.985
				c6.191-26.359,29.567-45.324,57.466-45.324c13.802,0,26.994,4.804,37.484,13.435c7.147-6.574,16.611-10.399,26.503-10.399
				c4.537,0,8.974,0.78,13.173,2.293c5.799-8.771,15.693-14.322,26.743-14.322c11.17,0,21.079,5.848,26.841,14.669
				c10.698-9.51,23.531-14.049,38.351-13.49c32.939,1.221,58.742,27.17,58.742,59.072c0,6.702-1.15,13.364-3.367,19.653
				c13.552,8.13,21.9,21.868,21.9,36.99c0,6.302-1.485,12.48-4.293,18.145c20.352,9.544,34.118,30.349,34.118,53.518
				c0,26.552-18.009,49.75-42.986,56.843C1156.756,1246.375,1143.414,1258.248,1127.351,1258.248z M1078.726,1137.495v14.558
				c0,7.717,4.12,14.722,10.751,18.422l9.646,5.383l-7.115,8.451c-3.157,3.75-4.897,8.524-4.897,13.442
				c0,10.591,7.927,19.514,18.438,20.757l7.582,0.897l0.449,7.621c0.429,7.283,6.478,12.988,13.771,12.988
				c7.625,0,13.827-6.202,13.827-13.827c0-0.424-0.036-0.928-0.112-1.585l-1.033-8.823l8.793-1.261
				c19.945-2.86,34.985-20.237,34.985-40.42c0-19.104-13.534-35.881-32.181-39.895l-16.024-3.447l11.38-11.795
				c3.193-3.31,7-8.862,7-16.526c0-10.431-7.349-19.875-18.723-24.06l-9.946-3.659l5.105-9.288
				c3.292-5.988,5.032-12.779,5.032-19.637c0-22.049-18.091-39.994-41.186-40.853c-19.726-0.689-29.045,11.907-32.539,16.667
				c-1.428,1.944-5.226,7.106-11.665,5.039c-3.855-1.238-6.378-4.722-6.428-8.876c-0.091-7.849-6.189-13.994-13.883-13.994
				c-6.464,0-12.01,4.402-13.488,10.705l-3.125,13.314l-11.088-8.006c-3.611-2.607-7.835-3.985-12.215-3.985
				c-7.429,0-14.145,3.841-17.97,10.274l-6.542,11.009l-8.262-9.788c-7.794-9.234-19.172-14.532-31.212-14.532
				c-21.296,0-38.778,15.981-40.666,37.174l-0.849,9.526l-9.473-1.303c-1.161-0.158-2.089-0.233-2.922-0.233
				c-11.538,0-20.926,9.38-20.926,20.911c0,11.538,9.387,20.924,20.926,20.924c2.92,0,5.746-0.595,8.401-1.766l12.012-5.306
				l0.773,13.109c0.429,7.276,6.465,12.975,13.743,12.975c3.83,0,7.397-1.549,10.044-4.363l7.078-7.516l6.583,7.952
				c3.67,4.434,9.088,7.171,14.866,7.512l11.896,0.702l-3.789,11.298c-0.741,2.21-1.116,4.469-1.116,6.715
				c0,11.538,9.386,20.926,20.924,20.926c11.084,0,20.244-8.68,20.853-19.761l0.582-10.639l10.42,2.22
				c1.494,0.319,2.981,0.481,4.418,0.481c4.852,0,9.581-1.7,13.317-4.79l9.508-7.867l4.724,11.401
				c3.251,7.851,10.84,12.922,19.334,12.922c3.15,0,6.218-0.714,9.117-2.121L1078.726,1137.495z"/>
		</g>
		<g>
			<path style="fill:#FFFFFF;" d="M831.52,1381.412c31.192-10.722,39.999-31.563,37.992-57.91
				c-1.17-15.423-6.045-32.731-12.308-50.976c-7.87-23-16.595-43.458-28.633-57.04c-13.839-15.621-32.057-22.184-58.491-13.105
				c-49.453,16.966-75.762,70.799-58.813,120.233c5.299,15.446,11.442,27.75,18.303,37.394
				C755.805,1396.916,792.327,1394.855,831.52,1381.412z"/>
			<path style="opacity:0.2;fill:#000038;" d="M831.52,1381.412c31.192-10.722,39.999-31.563,37.992-57.91
				c-0.017-0.02-0.017-0.02-0.017-0.02s-69.606,59.285-139.925,36.527C755.805,1396.916,792.327,1394.855,831.52,1381.412z"/>
			<path style="fill:#FFFFFF;" d="M711.268,1322.615c-18.831-70.931,117.304-107.129,117.304-107.129
				c-13.839-15.621-32.057-22.184-58.491-13.105C720.628,1219.348,694.318,1273.182,711.268,1322.615z"/>
			<path style="fill:#000038;" d="M786.319,1399.432c-9.767,0-18.672-1.508-26.958-4.512c-25.281-9.161-43.828-31.843-56.7-69.344
				c-8.997-26.212-7.249-54.36,4.925-79.259c12.174-24.898,33.313-43.566,59.528-52.564c26.081-8.951,48-4.793,65.149,12.35
				c15.81,15.807,25.842,40.952,33.57,63.466l0,0c7.726,22.514,15.253,48.52,12.482,70.703
				c-3.006,24.065-17.753,40.804-43.832,49.756C816.171,1396.313,800.355,1399.432,786.319,1399.432z M792.416,1207.324
				c-5.929,0-12.349,1.261-19.384,3.677c-44.603,15.31-68.436,64.052-53.125,108.656c10.965,31.948,25.903,50.959,45.664,58.121
				c16.077,5.823,36.091,4.24,62.993-4.996c35.281-12.108,40.52-37.567,20.021-97.293
				C832.173,1227.675,816.228,1207.324,792.416,1207.324z"/>
			<path style="fill:#000038;" d="M851.977,1253.762c-4.316,2.586-8.43,4.694-12.74,6.79c-4.281,2.059-8.621,3.97-13.071,5.62
				c-4.447,1.642-8.943,3.141-13.583,4.118c-4.615,0.983-9.339,1.611-13.949,1.256c4.543-0.865,8.728-2.646,12.718-4.688
				c3.997-2.038,7.754-4.538,11.398-7.13c3.645-2.598,7.138-5.419,10.519-8.344c3.339-2.904,6.737-6.018,9.637-9.045
				L851.977,1253.762z"/>
			<path style="fill:#000038;" d="M870.046,1299.673c-4.316,2.586-8.43,4.694-12.74,6.791c-4.281,2.059-8.621,3.97-13.072,5.619
				c-4.447,1.643-8.942,3.141-13.582,4.119c-4.614,0.982-9.338,1.611-13.949,1.255c4.543-0.865,8.729-2.645,12.718-4.688
				c3.997-2.037,7.755-4.537,11.399-7.13c3.645-2.598,7.138-5.419,10.518-8.343c3.339-2.905,6.737-6.018,9.637-9.045
				L870.046,1299.673z"/>
		</g>
	</g>
</g>
</svg>
