<?xml version="1.0" encoding="utf-8"?>
<!-- Generator: Adobe Illustrator 27.5.0, SVG Export Plug-In . SVG Version: 6.00 Build 0)  -->
<svg version="1.1" id="Capa_1" xmlns="http://www.w3.org/2000/svg" xmlns:xlink="http://www.w3.org/1999/xlink" x="0px" y="0px"
	 viewBox="0 0 345.935 425.197" style="enable-background:new 0 0 345.935 425.197;" xml:space="preserve">
<g>
	<path d="M278.017,290.564l-0.033-3.324c-0.006-0.603-0.206-14.941-5.311-29.52c-2.453-7.004-5.625-12.847-9.45-17.488
		c6.287-0.222,10.569-0.928,10.779-0.964l3.278-0.552l-0.885-3.204c-0.135-0.489-3.39-12.116-10.608-23.913
		c-9.151-14.957-20.608-23.345-33.279-24.446c8.804-8.784,14.2-18.038,14.62-18.772l1.653-2.884l-3.038-1.349
		c-0.71-0.315-17.587-7.719-35.498-7.719c-15.611,0-27.181,5.663-34.121,16.525c-3.313-33.487,0.68-55.185,4.815-67.75
		c4.684-14.235,10.507-20.015,10.821-20.318c1.74-1.543,15.483-13.956,18.029-23.359c1.556-5.744,1.64-9.209,0.273-11.236
		c-0.631-0.936-1.572-1.542-2.582-1.663l-1.12-0.135l-0.931,0.637c-0.412,0.282-4.285,3.14-22.551,22.174
		c0.487-3.968,0.255-7.959-0.706-11.955c-5.891-24.484-36.987-40.218-38.307-40.876l-2.976-1.482l-1.17,3.111
		c-0.349,0.928-5.877,15.949-5.469,32.09c-16.676,0.783-31.639,7.345-32.307,7.642l-3.038,1.349l1.653,2.884
		c0.815,1.422,20.262,34.82,47.09,34.82c6.925,0,13.671-2.245,20.151-6.688c-5.965,14.892-7.016,34.162-6.581,49.636
		c0.319,11.335,1.444,21.03,2.231,26.643c-7.07-7.937-17.439-12.049-30.74-12.049h-0.005c-17.911,0.001-34.788,7.404-35.497,7.719
		l-3.038,1.349l1.653,2.884c0.423,0.738,5.881,10.1,14.778,18.93c-12.134,1.563-23.105,9.865-31.931,24.288
		c-7.218,11.798-10.473,23.424-10.608,23.913l-0.884,3.204l3.278,0.552c0.25,0.042,6.217,1.031,14.479,1.031
		c0.848,0,1.718-0.012,2.603-0.035c-3.814,4.637-6.977,10.47-9.424,17.458c-5.106,14.578-5.306,28.914-5.312,29.517l-0.033,3.324
		l3.31-0.307c0.791-0.073,11.171-1.108,22.64-5.329c-9.424,21.739,1.378,51.195,1.869,52.505l1.166,3.113l2.978-1.478
		c0.686-0.34,9.366-4.725,18.216-12.265c-2.762,22.174,11.747,46.264,12.437,47.392l1.734,2.836l2.644-2.015
		c0.556-0.424,7.026-5.423,13.677-13.207c1.213,22.626,22.762,43.186,23.756,44.121l2.421,2.278l2.018-2.641
		c0.795-1.04,17.382-23.053,17.283-45.166c8.389,8.926,17.243,14.507,17.919,14.926l2.824,1.753l1.455-2.989
		c0.549-1.129,11.515-24.032,8.474-45.005c7.404,6.345,14.082,10.114,14.674,10.442l2.907,1.613l1.308-3.056
		c0.555-1.298,12.928-30.765,4.037-52.992c11.292,4.086,21.415,5.091,22.196,5.164L278.017,290.564z M273.503,236.31
		c0,0-5.874,0.99-13.981,0.99c-8.13,0-18.5-1.008-27.443-4.997c-0.217-0.706-0.448-1.409-0.69-2.111
		c4.618-0.578,7.614-1.264,7.826-1.314l3.237-0.755l-1.082-3.143c-0.304-0.882-3.926-11.163-11.008-21.736
		c17.405,10.532,29.434,22.296,29.434,22.296s-9.863-20.199-33.945-28.414c-0.681-0.836-1.386-1.661-2.112-2.473
		c2.021-1.453,3.937-3.014,5.738-4.631c0.051,0,0.104-0.005,0.155-0.005C260.725,190.018,273.503,236.31,273.503,236.31z
		 M169.418,187.672L169.418,187.672c1.761,34.111-24.256,40.325-43.446,40.325c-10.998,0-19.754-2.041-19.754-2.041
		s14.984-43.538,44.741-43.54C156.586,182.416,162.738,183.972,169.418,187.672c-33.82,1.857-48.853,28.386-48.853,28.386
		S142.427,197.172,169.418,187.672z M176.318,251.458c0,0,7.401-15.665,3.359-35.679c0.686,0.896,1.412,1.761,2.192,2.583
		c2.78,2.927,6.189,5.356,10.14,7.285c0.376,21.233-15.525,43.24-15.525,43.24s-23.3-20.789-24.028-43.098
		c4.075-1.951,7.578-4.429,10.426-7.427c5.075-5.344,8.146-12.276,9.199-20.671C179.002,224.435,176.318,251.458,176.318,251.458z
		 M172.218,196.549c0.031-0.303,0.053-0.613,0.079-0.92c0.055,0.028,0.111,0.056,0.166,0.085c0.043,0.501,0.088,1.001,0.145,1.492
		C172.482,196.987,172.348,196.768,172.218,196.549z M175.335,187.672c6.68-3.7,12.833-5.256,18.458-5.256
		c29.757,0,44.741,43.54,44.741,43.54s-8.756,2.041-19.754,2.041C199.591,227.997,173.574,221.783,175.335,187.672
		c26.991,9.5,48.852,28.386,48.852,28.386S209.155,189.529,175.335,187.672z M125.972,230.997c3.134,0,6.135-0.165,8.998-0.485
		c-6.146,11.136-7.069,20.711-7.069,20.711s4.521-9.625,12.709-21.586c3.185-0.637,6.16-1.496,8.909-2.572
		c0.479,7.423,3.169,14.58,6.631,20.891c-13.954,13.641-37.318,18.151-37.318,18.151s-1.634-18.541,4.159-35.163
		C123.965,230.975,124.955,230.997,125.972,230.997z M132.791,265.173c5.284-1.936,11.441-4.693,17.191-8.479
		c-13.676,19.408-11.082,39.995-11.082,39.995s5.116-23.239,17.975-45.301c0.275-0.249,0.555-0.494,0.825-0.75
		c4.682,7.762,10.257,13.99,13.67,17.469c1.292,27.878-38.039,45.098-38.039,45.098S124.447,285.486,132.791,265.173z
		 M173.527,276.888c0.461-1.948,0.728-3.903,0.826-5.861c0.005-0.003,0.01-0.006,0.015-0.009c0.046,0.042,0.096,0.087,0.12,0.108
		l0.345,0.308c6.212,27.691,2.018,55.848,2.018,55.848s9.783-18.341,3.896-41.378c3.287,6.095,8.062,11.348,13.06,15.682
		c-0.314,21.453-17.643,43.113-17.643,43.113s-20.129-19.815-21.784-40.954C162.617,297.177,170.87,288.11,173.527,276.888z
		 M179.393,269.967c1.707-2.472,7.456-11.221,11.488-22.329c0.691,0.789,1.411,1.549,2.156,2.286
		c13.497,22.485,18.846,46.765,18.846,46.765s2.678-21.216-11.709-40.876c5.827,4.046,12.194,6.999,17.703,9.07
		c8.547,20.337-0.424,48.322-0.424,48.322S179.872,296.749,179.393,269.967z M192.011,244.322c1.729-5.478,2.927-11.398,2.998-17.34
		c4.835,1.922,10.387,3.158,16.547,3.696c7.741,11.473,11.999,20.544,11.999,20.544s-0.906-9.32-6.829-20.261
		c0.681,0.016,1.36,0.035,2.054,0.035c3.467,0,6.706-0.195,9.54-0.466c5.965,16.726,4.305,35.576,4.305,35.576
		S205.174,260.808,192.011,244.322z M210.245,159.428c17.481,0,34.28,7.461,34.28,7.461s-9.001,15.705-22.864,25.548
		c-7.238-7.346-16.505-13.02-27.868-13.02c-1.032,0-2.072,0.066-3.116,0.162c19.566-7.039,36.827-8.929,36.827-8.929
		s-25.971-6.183-49.299,12.269c-1.394,0.611-2.792,1.289-4.192,2.06C179.923,164.857,195.331,159.428,210.245,159.428z
		 M142.526,21.157c0,0,45.104,22.471,36.494,54.182c-0.819,0.86-1.654,1.739-2.523,2.656c-0.13,0.137-0.252,0.284-0.38,0.424
		c-1.524-4.684-3.619-8.762-6.256-12.222c-5.803-19.271-19.39-29.525-19.39-29.525s5.887,8.957,11.823,22.277
		c-6.527-4.515-14.861-6.835-24.849-6.835h-0.005c-0.06,0-0.12,0.002-0.18,0.002C136.874,36.196,142.526,21.157,142.526,21.157z
		 M147.647,95.886c-25.398,0-44.487-33.312-44.487-33.312s16.799-7.46,34.28-7.461c15.043-0.001,30.585,5.529,36.378,26.082
		c-0.174,0.233-0.344,0.47-0.513,0.707C149.09,59.467,120.18,66.335,120.18,66.335s27.866,3.053,52.923,15.847
		c-0.894,1.277-1.722,2.626-2.495,4.032C162.641,93.171,154.886,95.886,147.647,95.886z M178.674,80.058
		c24.249-25.582,28.448-28.453,28.448-28.453s2.174,0.261-0.23,9.136c-2.404,8.875-17.156,21.927-17.156,21.927
		s-24.449,22.317-16.14,94.901c-0.627,1.347-1.194,2.759-1.706,4.23l-0.767,0.191c-1.036-3.018-2.311-5.782-3.824-8.279
		C163.699,152.9,159.199,100.603,178.674,80.058z M98.423,166.889c0,0,16.799-7.46,34.28-7.461
		c14.631-0.001,29.731,5.233,35.878,24.428c-1.924-0.948-3.841-1.739-5.749-2.384c-22.813-16.669-47.389-10.822-47.389-10.822
		s17.05,1.869,36.466,8.801c-0.316-0.009-0.633-0.035-0.948-0.035v3l0-1.5l0-1.5h-0.002c-11.741,0.001-21.244,6.06-28.583,13.761
		C107.901,183.406,98.423,166.889,98.423,166.889z M84.932,237.299c-8.106,0-13.981-0.99-13.981-0.99s12.416-44.974,42.548-46.261
		c2.12,1.903,4.393,3.736,6.816,5.395c-0.442,0.509-0.873,1.023-1.297,1.541c-24.385,8.122-34.361,28.555-34.361,28.555
		s12.261-11.992,29.937-22.6c-7.217,10.679-10.906,21.15-11.213,22.04l-1.082,3.143l3.238,0.755
		c0.25,0.058,4.356,0.998,10.431,1.606C106.322,235.999,94.179,237.299,84.932,237.299z M75.799,287.27
		c0,0,0.308-30.859,15.912-47.212c9.192-0.644,19.512-2.777,27.813-8.227c-0.118,0.375-0.233,0.75-0.345,1.126
		c-27.57,13.37-32.896,40.387-32.896,40.387s12.579-21.129,32.276-38.178c-4.023,15.279-2.798,30.27-2.715,31.206l0.292,3.312
		l2.569-0.496C104.091,284.636,75.799,287.27,75.799,287.27z M103.395,336.38c0,0-12.025-32.135-0.543-53.104
		c7.7-3.326,15.42-8.178,20.708-15.199c1.121-0.294,2.426-0.66,3.879-1.104c-24.493,22.907-19.273,52.642-19.273,52.642
		s4.814-28.261,19.46-52.7c0.107-0.033,0.217-0.067,0.326-0.101c0.262,0.289,0.509,0.576,0.761,0.864
		c-6.383,20.464,1.373,45.236,1.761,46.445l0.157,0.491C119.987,328.14,103.395,336.38,103.395,336.38z M137.94,372.629
		c0,0-16.389-26.815-11.397-49.074c2.192-2.1,4.328-4.387,6.284-6.855l1.705-0.746c0.368-0.161,2.999-1.335,6.738-3.434
		c-9.502,22.609-1.821,42.745-1.821,42.745s-0.474-21.808,5.875-45.146c1.97-1.227,4.087-2.639,6.254-4.231
		c1.421,11.333,7.484,21.996,12.964,29.603C159.867,355.914,137.94,372.629,137.94,372.629z M179.247,403.745
		c0,0-24.049-22.634-22.828-45.624c4.301-5.611,8.302-12.296,10.42-19.566c3.784,4.86,6.863,7.931,7.221,8.283l2.369,2.332
		l2.077-2.595c0.073-0.091,0.288-0.364,0.597-0.769c2.8,21.809,0.441,40.512,0.441,40.512s10.106-20.014,2.154-44.123
		c0.952-1.392,2.051-3.074,3.219-5.002c1.987,7.351,6.143,14.008,10.83,19.63C197.936,379.287,179.247,403.745,179.247,403.745z
		 M218.415,372.777c0,0-27.416-17.025-31.287-39.417c4.205-7.632,8.554-17.759,9.501-28.232c0.214-0.235,0.416-0.47,0.637-0.705
		c2.446,1.9,4.869,3.579,7.13,5.025c9.16,23.26,10.859,46.187,10.859,46.187s5.928-21.563-6.577-43.59
		c4.179,2.398,7.176,3.736,7.571,3.908l3.045,1.333l1.015-3.165c0.02-0.062,0.065-0.206,0.12-0.388
		C236.562,335.509,218.415,372.777,218.415,372.777z M245.716,336.904c0,0-8.603-4.779-17.143-12.788
		c-0.521-1.967-1.174-3.904-2.011-5.78c-1.346-3.018-3.066-5.742-5.144-8.176c1.991-7.865,5.512-25.933,0.899-41.69
		c0.472-0.522,0.964-1.045,1.472-1.568c0.486,0.15,0.955,0.291,1.409,0.424c13.098,24.856,16.525,52.613,16.525,52.613
		s6.381-28.601-15.826-52.409c0.399,0.114,0.787,0.223,1.154,0.323c5.427,7.328,13.503,12.319,21.483,15.685
		C259.353,305.018,245.716,336.904,245.716,336.904z M231.927,269.027c0.046,0.009,0.105,0.021,0.131,0.026l3.264,0.63l0.293-3.312
		c0.081-0.919,1.267-15.399-2.503-30.393c0.03,0.011,0.06,0.022,0.09,0.033c19.139,16.893,31.3,37.332,31.3,37.332
		s-4.123-20.924-23.895-35.058c6.458,1.515,13.009,1.999,18.691,2.011c15.38,16.411,15.687,46.973,15.687,46.973
		S246.495,284.618,231.927,269.027z"/>
	<path style="fill:#48914D;" d="M137.44,52.113h0.005c9.989,0,18.322,2.32,24.849,6.835c-5.937-13.32-11.823-22.277-11.823-22.277
		s13.587,10.254,19.39,29.525c2.636,3.46,4.731,7.538,6.256,12.222c0.128-0.14,0.25-0.287,0.38-0.424
		c0.869-0.917,1.705-1.796,2.523-2.656c8.61-31.711-36.494-54.182-36.494-54.182s-5.652,15.039-5.266,30.958
		C137.32,52.115,137.38,52.113,137.44,52.113z"/>
	<path style="fill:#48914D;" d="M173.102,82.181c-25.056-12.794-52.923-15.847-52.923-15.847s28.91-6.867,53.125,15.568
		c0.169-0.238,0.339-0.475,0.513-0.707c-5.793-20.553-21.335-26.083-36.378-26.082c-17.481,0.001-34.28,7.461-34.28,7.461
		s19.089,33.312,44.487,33.312c7.238,0,14.993-2.715,22.96-9.672C171.38,84.807,172.209,83.459,173.102,82.181z"/>
	<path style="fill:#48914D;" d="M171.123,181.991l0.767-0.191c0.512-1.471,1.079-2.883,1.706-4.23
		c-8.309-72.584,16.14-94.901,16.14-94.901s14.753-13.052,17.156-21.927c2.404-8.875,0.23-9.136,0.23-9.136
		s-4.199,2.871-28.448,28.453c-19.475,20.545-14.975,72.842-11.375,93.654C168.812,176.21,170.088,178.973,171.123,181.991z"/>
	<path style="fill:#3B7E42;" d="M184.917,337.192c-1.168,1.928-2.267,3.609-3.219,5.002c7.952,24.109-2.154,44.123-2.154,44.123
		s2.359-18.703-0.441-40.512c-0.309,0.405-0.524,0.678-0.597,0.769l-2.077,2.595l-2.369-2.332c-0.357-0.352-3.437-3.422-7.221-8.283
		c-2.118,7.269-6.119,13.954-10.42,19.566c-1.221,22.99,22.828,45.624,22.828,45.624s18.689-24.457,16.5-46.922
		C191.06,351.2,186.904,344.543,184.917,337.192z"/>
	<path style="fill:#3B7E42;" d="M227.05,267.851c-0.367-0.1-0.755-0.209-1.154-0.323c22.207,23.808,15.826,52.409,15.826,52.409
		s-3.427-27.756-16.525-52.613c-0.454-0.133-0.923-0.274-1.409-0.424c-0.508,0.524-1,1.047-1.472,1.568
		c4.612,15.757,1.092,33.826-0.899,41.69c2.078,2.434,3.799,5.158,5.144,8.176c0.837,1.876,1.489,3.812,2.011,5.78
		c8.541,8.01,17.143,12.788,17.143,12.788s13.637-31.887,2.817-53.368C240.553,280.17,232.478,275.179,227.05,267.851z"/>
	<path style="fill:#3B7E42;" d="M220.31,314.122l-1.015,3.165l-3.045-1.333c-0.395-0.173-3.392-1.511-7.571-3.908
		c12.505,22.027,6.577,43.59,6.577,43.59s-1.699-22.927-10.859-46.187c-2.261-1.446-4.684-3.125-7.13-5.025
		c-0.222,0.235-0.424,0.47-0.637,0.705c-0.946,10.473-5.295,20.601-9.501,28.232c3.872,22.392,31.287,39.417,31.287,39.417
		s18.147-37.268,2.015-59.043C220.375,313.916,220.33,314.06,220.31,314.122z"/>
	<path style="fill:#3B7E42;" d="M151.579,305.888c-2.168,1.592-4.284,3.005-6.254,4.231c-6.35,23.338-5.875,45.146-5.875,45.146
		s-7.68-20.136,1.821-42.745c-3.738,2.099-6.37,3.273-6.738,3.434l-1.705,0.746c-1.957,2.468-4.093,4.755-6.284,6.855
		c-4.992,22.259,11.397,49.074,11.397,49.074s21.927-16.715,26.602-37.139C159.063,327.883,153,317.22,151.579,305.888z"/>
	<path style="fill:#3B7E42;" d="M176.164,344.699c0,0,17.329-21.66,17.643-43.113c-4.997-4.334-9.772-9.587-13.06-15.682
		c5.887,23.037-3.896,41.378-3.896,41.378s4.194-28.157-2.018-55.848l-0.345-0.308c-0.024-0.021-0.074-0.067-0.12-0.108
		c-0.005,0.003-0.01,0.006-0.015,0.009c-0.098,1.958-0.365,3.912-0.826,5.861c-2.657,11.222-10.91,20.289-19.147,26.858
		C156.035,324.884,176.164,344.699,176.164,344.699z"/>
	<path style="fill:#3B7E42;" d="M130.473,314.122c-0.387-1.209-8.144-25.981-1.761-46.445c-0.252-0.288-0.499-0.575-0.761-0.864
		c-0.109,0.034-0.219,0.068-0.326,0.101c-14.646,24.439-19.46,52.7-19.46,52.7s-5.219-29.735,19.273-52.642
		c-1.453,0.444-2.758,0.81-3.879,1.104c-5.287,7.02-13.008,11.873-20.708,15.199c-11.481,20.97,0.543,53.104,0.543,53.104
		s16.592-8.24,27.235-21.767L130.473,314.122z"/>
	<path style="fill:#48914D;" d="M259.296,240.297c-5.682-0.012-12.233-0.496-18.691-2.011
		c19.773,14.134,23.895,35.058,23.895,35.058s-12.161-20.439-31.3-37.332c-0.03-0.011-0.06-0.022-0.09-0.033
		c3.77,14.994,2.585,29.473,2.503,30.393l-0.293,3.312l-3.264-0.63c-0.026-0.005-0.085-0.017-0.131-0.026
		c14.569,15.591,43.057,18.242,43.057,18.242S274.677,256.708,259.296,240.297z"/>
	<path style="fill:#48914D;" d="M217.877,264.884c-5.509-2.071-11.875-5.024-17.703-9.07c14.388,19.66,11.709,40.876,11.709,40.876
		s-5.35-24.279-18.846-46.765c-0.744-0.737-1.465-1.497-2.156-2.286c-4.032,11.108-9.781,19.857-11.488,22.329
		c0.48,26.781,38.061,43.239,38.061,43.239S226.424,285.221,217.877,264.884z"/>
	<path style="fill:#48914D;" d="M118.705,269.188l-2.569,0.496l-0.292-3.312c-0.083-0.936-1.308-15.926,2.715-31.206
		c-19.698,17.049-32.276,38.178-32.276,38.178s5.326-27.017,32.896-40.387c0.112-0.376,0.227-0.751,0.345-1.126
		c-8.3,5.45-18.621,7.583-27.813,8.227C76.107,256.41,75.799,287.27,75.799,287.27S104.091,284.636,118.705,269.188z"/>
	<path style="fill:#48914D;" d="M171.369,268.108c-3.413-3.479-8.987-9.708-13.67-17.469c-0.27,0.256-0.549,0.501-0.825,0.75
		c-12.859,22.062-17.975,45.301-17.975,45.301s-2.593-20.588,11.082-39.995c-5.75,3.786-11.907,6.543-17.191,8.479
		c-8.344,20.313,0.539,48.033,0.539,48.033S172.661,295.986,171.369,268.108z"/>
	<path style="fill:#48914D;" d="M229.478,190.023c-1.8,1.618-3.717,3.178-5.738,4.631c0.727,0.812,1.431,1.637,2.112,2.473
		c24.082,8.214,33.945,28.414,33.945,28.414s-12.029-11.764-29.434-22.296c7.082,10.573,10.704,20.854,11.008,21.736l1.082,3.143
		l-3.237,0.755c-0.212,0.049-3.208,0.736-7.826,1.314c0.242,0.702,0.473,1.405,0.69,2.111c8.943,3.989,19.313,4.997,27.443,4.997
		c8.106,0,13.981-0.99,13.981-0.99s-12.778-46.292-43.87-46.292C229.582,190.018,229.529,190.023,229.478,190.023z"/>
	<path style="fill:#48914D;" d="M105.537,228.878l-3.238-0.755l1.082-3.143c0.306-0.89,3.996-11.361,11.213-22.04
		c-17.676,10.609-29.937,22.6-29.937,22.6s9.976-20.433,34.361-28.555c0.424-0.518,0.856-1.032,1.297-1.541
		c-2.423-1.659-4.696-3.492-6.816-5.395c-30.132,1.287-42.548,46.261-42.548,46.261s5.874,0.99,13.981,0.99
		c9.247,0,21.39-1.301,31.036-6.815C109.893,229.876,105.787,228.936,105.537,228.878z"/>
	<path style="fill:#48914D;" d="M228.321,230.531c-2.835,0.271-6.073,0.466-9.54,0.466c-0.694,0-1.373-0.019-2.054-0.035
		c5.923,10.941,6.829,20.261,6.829,20.261s-4.258-9.071-11.999-20.544c-6.16-0.539-11.712-1.775-16.547-3.696
		c-0.072,5.942-1.27,11.862-2.998,17.34c13.162,16.485,40.615,21.785,40.615,21.785S234.286,247.258,228.321,230.531z"/>
	<path style="fill:#48914D;" d="M118.832,266.108c0,0,23.364-4.51,37.318-18.151c-3.462-6.311-6.152-13.468-6.631-20.891
		c-2.749,1.076-5.724,1.935-8.909,2.572c-8.188,11.96-12.709,21.586-12.709,21.586s0.923-9.575,7.069-20.711
		c-2.863,0.32-5.864,0.485-8.998,0.485c-1.018,0-2.007-0.022-2.981-0.052C117.198,247.567,118.832,266.108,118.832,266.108z"/>
	<path style="fill:#48914D;" d="M172.297,195.629c-0.026,0.307-0.048,0.617-0.079,0.92c0.13,0.219,0.263,0.438,0.389,0.657
		c-0.057-0.491-0.102-0.991-0.145-1.492C172.408,195.685,172.353,195.657,172.297,195.629z"/>
	<path style="fill:#48914D;" d="M162.883,218.362c-2.848,2.999-6.35,5.477-10.426,7.427c0.727,22.309,24.028,43.098,24.028,43.098
		s15.901-22.007,15.525-43.24c-3.952-1.929-7.36-4.357-10.14-7.285c-0.781-0.822-1.506-1.687-2.192-2.583
		c4.042,20.014-3.359,35.679-3.359,35.679s2.684-27.023-4.236-53.767C171.029,206.086,167.959,213.018,162.883,218.362z"/>
	<path style="fill:#48914D;" d="M178.206,182.919c23.328-18.452,49.299-12.269,49.299-12.269s-17.261,1.89-36.827,8.929
		c1.043-0.096,2.083-0.162,3.116-0.162c11.363,0,20.63,5.674,27.868,13.02c13.863-9.843,22.864-25.548,22.864-25.548
		s-16.799-7.461-34.28-7.461c-14.914,0-30.322,5.429-36.23,25.551C175.415,184.208,176.812,183.53,178.206,182.919z"/>
	<path style="fill:#48914D;" d="M122.376,193.178c7.339-7.701,16.842-13.761,28.583-13.761h0.002l0,1.5l0,1.5v-3
		c0.315,0,0.632,0.026,0.948,0.035c-19.416-6.933-36.466-8.801-36.466-8.801s24.576-5.846,47.389,10.822
		c1.908,0.645,3.825,1.436,5.749,2.384c-6.147-19.195-21.247-24.429-35.878-24.428c-17.481,0.001-34.28,7.461-34.28,7.461
		S107.901,183.406,122.376,193.178z"/>
	<path style="fill:#48914D;" d="M169.418,187.672c-6.68-3.7-12.833-5.256-18.458-5.256c-29.757,0.002-44.741,43.54-44.741,43.54
		s8.756,2.041,19.754,2.041C145.163,227.997,171.18,221.783,169.418,187.672L169.418,187.672
		c-26.992,9.5-48.853,28.386-48.853,28.386S135.598,189.529,169.418,187.672z"/>
	<path style="fill:#48914D;" d="M218.781,227.997c10.998,0,19.754-2.041,19.754-2.041s-14.984-43.54-44.741-43.54
		c-5.626,0-11.778,1.555-18.458,5.256c33.82,1.857,48.852,28.386,48.852,28.386s-21.861-18.886-48.853-28.386
		C173.574,221.783,199.591,227.997,218.781,227.997z"/>
</g>
</svg>
