<?xml version="1.0" encoding="utf-8"?>
<!-- Generator: Adobe Illustrator 27.5.0, SVG Export Plug-In . SVG Version: 6.00 Build 0)  -->
<svg version="1.1" id="Layer_1" xmlns="http://www.w3.org/2000/svg" xmlns:xlink="http://www.w3.org/1999/xlink" x="0px" y="0px"
	 viewBox="0 0 1030.262 1584" style="enable-background:new 0 0 1030.262 1584;" xml:space="preserve">
<path style="fill:#FEFDFE;" d="M281.987,626.958c20.013-7.46,42.574-9.461,63.133-3.275c4.73,2.001,12.372,1.092,14.555,6.914
	c-32.385,0.546-66.043,3.093-95.336,18.376c-5.276,2.729-10.37,6.186-16.01,8.369C254.697,643.15,267.978,632.962,281.987,626.958z"
	/>
<path style="fill:#FEFDFE;" d="M690.438,626.594c6.186-1.274,12.554-0.546,18.74,0.182c23.106,2.365,45.484,10.552,64.406,24.016
	c13.827,9.825,24.198,24.38,28.382,40.754c0.728,1.819,0.546,3.639-0.546,5.458c-22.015-34.75-59.858-57.128-99.52-65.68
	C697.715,630.233,692.985,630.233,690.438,626.594z"/>
<path style="fill:#FEFDFE;" d="M372.592,682.631c0.546-15.101,14.737-30.747,30.566-27.655c9.279,5.458,13.827,16.374,13.1,26.927
	c-3.639,13.827-18.74,22.924-32.567,19.103C376.595,697.914,371.501,690.272,372.592,682.631z"/>
<path style="fill:#FEFDFE;" d="M663.693,689.727c-4.003-16.92,10.552-36.751,28.564-35.114c9.461,4.73,14.555,15.465,14.009,26.017
	c-2.001,14.555-17.648,24.198-31.475,20.559C669.515,699.187,665.512,694.821,663.693,689.727z"/>
<path style="fill:#FEFDFE;" d="M363.677,708.466c6.914-0.546,16.011-0.546,20.195,6.004c3.275,7.823-0.364,20.377-9.825,21.833
	C364.769,730.844,362.95,718.291,363.677,708.466z"/>
<path style="fill:#FEFDFE;" d="M654.232,708.102c6.914-0.182,15.465-0.182,19.831,6.004c3.275,7.459,0.728,18.012-7.096,21.651
	c-3.093,1.637-5.822-1.274-7.459-3.639C654.596,725.023,653.141,716.289,654.232,708.102z"/>
<g>
	<path style="fill:#FEFDFE;" d="M694.622,1331.057c2.547,6.368-3.093,12.19-6.368,17.102c7.823,5.458,13.281,14.009,15.283,23.47
		c-3.275,3.457-6.914,6.732-10.552,9.825c2.365,0.91,4.549,2.001,6.914,3.093c-1.092,2.365-2.001,4.548-2.911,7.096
		c-2.911,4.185,2.365,6.732,4.003,10.007c-3.457,0-6.914,0-10.37-0.182c-14.373,9.643-34.932,7.459-47.304-4.367
		c2.911-2.365,6.004-4.548,9.279-6.914c-4.548-0.91-9.097-1.819-13.645-2.911c-0.182-10.552,1.819-21.469,8.733-29.838
		c-3.639-5.276-9.097-9.279-12.372-14.737c0.364-0.728,1.274-2.001,1.637-2.729c5.276,2.729,10.007,12.372,16.738,7.459
		c9.097-7.278,22.014-7.823,32.385-3.093C689.346,1340.336,692.803,1336.152,694.622,1331.057z M685.344,1377.452
		c4.185,0.91,8.915-2.911,7.46-7.277c-0.182-3.457-3.093-5.458-5.64-7.096C681.523,1365.262,679.703,1374.359,685.344,1377.452z
		 M645.317,1371.448c-1.819,3.821-2.911,7.823-3.275,12.008c4.185,1.274,8.915,2.001,12.736-0.728
		C653.686,1377.815,651.503,1371.448,645.317,1371.448z M668.605,1382.546c-4.73,2.001-5.458,7.459-6.914,11.826
		c4.73,2.183,9.825-1.092,14.737,0.182c4.003-2.365,5.276-6.55,5.094-10.916C677.338,1382.364,672.79,1380.363,668.605,1382.546z"/>
</g>
<path style="fill:#FEFDFE;" d="M670.425,1386.185c1.637-0.182,3.275-0.546,4.912-0.728c0,0.91-0.182,2.911-0.364,4.003
	c-1.819,0-3.639,0-5.458,0.182C669.697,1388.55,670.243,1386.912,670.425,1386.185z"/>
<g>
	<g>
		<path style="fill:#0C0526;" d="M458.467,0c10.189,21.105,23.652,41.118,42.21,55.855c19.649,16.192,43.119,27.291,67.317,34.75
			c21.105,6.914,43.483,8.551,64.588,15.101c43.847,13.1,85.329,36.751,115.894,71.138c3.275-17.466,3.093-35.296,2.365-53.126
			c26.927,26.199,48.032,59.494,56.219,96.427c4.367,21.105,5.458,43.847-2.001,64.406c12.19-8.187,25.835-14.737,40.39-17.284
			c10.916-2.183,23.288,1.092,30.384,10.007c7.641,9.279,9.461,21.651,10.189,33.113c-14.009-5.094-28.2-10.916-43.301-11.644
			c5.094,3.275,11.098,4.912,16.374,7.823c41.482,20.923,67.863,67.499,65.316,113.711c-2.365,61.131-13.463,121.716-25.107,181.574
			c-4.367,23.652-11.098,46.758-12.918,70.956c18.74-3.639,38.571,3.457,52.216,16.374c16.01,14.555,24.38,35.66,27.836,56.583
			c4.185,28.564-0.546,58.038-11.462,84.601c-8.187,19.285-20.923,37.661-39.662,48.032c-15.465,8.551-34.386,10.006-51.306,5.64
			c-15.829,67.135-61.495,125.355-119.715,161.561c-11.826,6.914-23.47,14.373-36.57,18.194
			c20.013,1.456,40.208,5.276,58.038,14.555c25.653,13.464,45.666,36.569,57.128,63.132c4.73,11.462,8.005,24.926,2.729,36.751
			c22.742,38.389,42.755,78.415,61.677,118.805c21.833,47.304,41.664,96.063,50.579,147.552c1.819,14.009,3.275,28.019,1.819,42.028
			c-1.092,8.187-5.822,17.648-14.555,19.285c-39.299,4.912-78.597,10.734-118.078,15.101
			c-55.127,6.186-110.254,11.098-165.564,14.555c-62.951,3.639-126.265,4.548-189.215,2.729
			c-75.322-2.001-150.463-8.551-225.421-16.556c-40.754-4.366-81.326-10.552-122.08-15.647
			c-9.097-1.637-14.191-11.098-15.465-19.467c-2.001-14.009,0-28.2,2.001-42.028c12.554-68.591,42.574-132.451,73.503-194.492
			c12.372-24.562,25.289-48.941,39.117-72.775c-4.912-14.191-0.364-29.292,6.004-42.21c14.009-28.928,38.571-53.854,69.682-63.86
			c13.463-5.094,27.837-6.186,42.028-7.823c-8.005-2.001-15.283-6.004-22.56-9.825c-65.862-34.568-118.26-97.155-134.634-170.476
			c-20.741,6.186-44.757,2.547-61.677-11.462c-21.469-17.102-32.931-43.483-38.571-69.682c-7.278-33.295-5.458-70.592,13.827-99.702
			c13.827-21.469,40.208-34.568,65.679-30.384c-0.728-19.285-5.458-38.207-9.097-57.128c-9.279-45.485-16.01-91.515-22.014-137.363
			c-23.288,5.094-46.94,7.277-70.774,8.551c-2.365-49.487,12.554-99.156,40.026-140.274c5.276-7.823,10.552-15.647,17.648-22.014
			c-14.555,1.092-28.928,3.457-43.483,3.093c-18.376,0.182-36.751-2.001-54.945-4.548c32.203-28.928,64.406-57.856,98.428-84.419
			c50.033-39.299,104.978-73.503,165.745-93.698c50.215-16.556,103.887-24.562,156.83-18.194
			c-6.186-33.84-0.728-70.046,16.92-99.884C444.276,16.92,451.371,8.551,458.467,0z M456.466,40.208
			c-3.275,6.186-6.186,12.736-8.551,19.467c-7.46,22.196-7.823,46.576-3.639,69.5c3.821,3.639,10.007,3.275,14.737,5.094
			c21.651,6.732,43.483,14.009,63.132,25.653c13.645,8.187,28.564,14.919,40.026,26.199c-5.094-0.728-10.188-2.365-14.919-4.185
			c-28.382-10.188-57.674-18.012-86.603-26.381c-15.101-4.003-30.384-6.55-45.848-8.551c-58.038-5.822-116.622,6.55-170.112,28.746
			c-17.648,7.823-35.478,15.283-51.67,25.835c-1.819,0.364-3.275,1.274-4.912,2.001c-23.106,14.009-45.303,29.292-66.771,45.666
			c-23.288,18.194-46.576,36.57-68.045,56.947c23.106-0.364,46.03-3.639,68.409-8.915c10.007-2.729,18.012-9.825,26.563-15.465
			c12.372-8.915,26.017-15.829,39.662-22.014c46.758-20.377,97.337-30.384,147.916-35.114
			c-15.647,6.004-31.111,12.372-46.758,18.194c-35.296,12.19-71.138,23.47-104.25,40.936c-30.202,15.465-57.674,36.569-77.869,63.86
			c-24.38,33.295-40.572,72.957-43.119,114.257c20.559-0.182,40.754-4.548,60.403-9.825c22.196-5.822,38.571-22.742,54.945-37.661
			c22.014-19.467,43.301-39.481,66.771-57.128c34.568-25.653,72.593-48.032,114.257-59.858
			c33.477-9.825,69.318-10.734,103.159-3.093c31.475,6.914,62.405,18.74,89.331,36.751c23.106,13.827,43.665,31.293,66.589,45.121
			c-9.097-18.012-21.651-34.386-35.842-48.759c-19.103-19.649-43.483-35.66-71.32-38.935c5.094-2.729,10.916-4.185,16.556-2.911
			c21.287,3.821,39.117,16.92,55.491,30.384c22.56,20.013,42.028,44.029,54.763,71.502c10.552-1.092,18.012-10.734,22.196-19.649
			c8.005-18.74,6.732-41.118-1.819-59.494c-6.55-14.555-19.285-25.107-32.567-33.295c16.556,1.456,29.838,14.191,37.479,28.018
			c11.462,20.741,14.737,46.394,6.914,68.954c14.737-10.37,26.927-24.562,35.114-40.572c-8.187-27.655-24.926-52.216-44.029-73.685
			c-15.829-16.738-33.477-32.931-55.491-40.936c-4.185-1.819-9.279-1.819-12.918-4.548c10.37-3.821,21.651-1.638,31.293,2.729
			c20.377,9.097,37.297,24.016,52.216,40.208c15.283,16.193,27.473,34.75,37.843,54.4c4.549-17.466,7.278-35.478,5.276-53.49
			c-1.637-13.099-8.733-24.743-15.465-35.842l-0.546-0.182c-6.004-9.279-13.1-17.83-20.377-26.017
			c-6.368-7.277-14.737-12.736-21.105-20.013c28.382,8.369,51.125,30.929,64.224,57.128c14.191,34.204,12.008,76.232-9.461,106.979
			c14.191-8.005,29.656-16.192,38.935-30.202c9.461-19.467,8.733-42.573,2.547-62.95l-0.728-0.364
			c-6.368-19.467-13.1-40.208-28.2-54.945c-30.929-35.114-74.413-57.129-119.533-67.681c-17.83-3.639-35.842-6.914-53.126-12.554
			C517.961,97.701,480.845,74.413,456.466,40.208z M769.581,184.485c-2.729,11.098-2.729,24.743-12.918,32.021
			c13.281,27.473,24.198,59.858,13.281,89.877c7.823-6.004,11.644-15.465,14.737-24.562c7.46-22.742,6.732-47.85-1.455-70.228
			C779.587,202.133,776.676,191.944,769.581,184.485z M346.757,320.211c-42.937,16.192-81.508,41.846-116.986,70.592
			c-19.467,15.647-37.661,32.931-57.31,48.396c-7.641,6.004-15.829,11.28-23.106,17.83c5.276-0.546,10.552-2.001,15.829-3.639
			c34.022-10.37,68.227-19.831,101.885-31.111c34.204-10.916,68.409-21.833,103.523-29.474
			c49.123-10.734,100.248-10.552,149.735-2.365c34.568,6.004,70.228,12.554,105.16,5.822
			c-46.576-24.016-85.511-61.677-135.908-78.233C443.548,302.563,392.242,303.109,346.757,320.211z M770.49,321.848
			c15.465-0.91,31.657-1.092,45.848,5.822c18.194,8.187,29.656,26.927,34.022,45.848c2.547,17.648,0.546,37.297-10.916,51.67
			c0-19.649,1.092-40.208-7.278-58.402c-7.459-17.466-26.199-28.746-44.939-29.11c-20.559-1.819-40.572,4.367-60.585,7.823
			c17.648,0.364,36.024,2.547,52.034,10.916c23.288,12.554,38.389,38.207,38.753,64.406c-0.546,6.368-0.546,13.463-4.548,18.74
			c-3.639-24.926-14.919-50.033-36.024-64.77c-17.466-11.462-38.571-14.191-58.22-20.195c-3.093-0.728-7.46-3.093-9.279,0.91
			c-5.822,8.005-12.736,15.283-20.741,21.105c26.745,0.546,48.941,18.012,65.498,37.297c24.38,28.564,38.207,64.042,52.216,98.428
			h0.546c1.456,4.367,3.093,8.551,4.912,12.736l0.728,0.182c0.91,5.64,2.911,10.916,5.458,16.193
			c12.554,32.021,24.38,64.406,41.664,94.244c1.456,3.639,5.276,4.912,8.915,5.094c8.915-33.477,14.373-67.681,20.923-101.521
			c1.092-4.73,1.819-9.643,1.819-14.373l0.728-0.182c1.456-10.371,3.093-20.559,4.912-30.93c0.728-4.73,1.092-9.461,1.456-14.191
			c0.546-6.368,1.455-12.736,2.183-18.922c2.001-12.736,2.183-25.653,3.275-38.389c2.911-33.841-12.736-68.954-40.572-88.786
			c-19.103-14.009-42.937-22.014-66.589-20.013C787.229,314.025,778.86,318.209,770.49,321.848z M637.312,405.176
			c-22.924,8.369-47.85,11.644-72.229,9.825c-18.194-1.456-36.206-4.366-54.4-6.732c-39.298-5.276-79.325-7.277-118.441,0
			c-2.729,0.546-5.458,1.456-8.005,2.729c-60.221,36.024-108.071,89.513-147.37,147.006c-18.922,26.927-34.568,56.037-50.943,84.419
			c2.547,0,5.276,0,7.823-0.182c9.279-20.923,29.474-34.568,50.397-42.028c12.372-3.457,24.925-6.55,37.661-8.551
			c-10.371-7.459-7.096-21.469-7.096-32.385c1.819-6.368,6.55-10.552,11.826-14.191c40.39-14.919,83.146-22.014,125.901-25.835
			c9.279-1.456,21.105,1.455,24.38,11.462c1.637,8.187,1.456,16.556,1.092,24.743c-0.546,8.551-8.733,14.373-16.738,15.101
			c-21.832,3.093-43.665,5.64-65.316,10.007c-11.462,2.365-23.288,4.003-34.204,8.369c14.373-1.274,28.928-0.91,43.483-0.364
			c18.376,0.91,36.933,2.183,54.763,6.732c25.471,6.55,48.395,24.198,59.494,48.214c12.372-1.456,24.562,1.274,36.752,1.092
			c11.644,0.728,23.288-2.183,34.932-1.274c9.279-16.374,22.742-30.202,39.117-39.48c15.829-8.733,34.022-11.462,51.852-13.645
			c22.378-2.365,44.757-2.911,67.135-1.455c-33.295-9.643-67.681-13.827-101.885-18.376c-7.823-0.91-14.373-7.459-14.919-15.283
			c-0.364-8.187-0.546-16.556,1.456-24.562c2.911-9.279,14.009-12.554,22.742-11.462c40.572,2.729,80.962,9.461,119.715,22.378
			c7.641,2.729,17.102,6.004,19.467,14.737c1.819,8.551,1.456,17.466-0.182,26.199c-0.91,4.548-5.094,7.096-8.369,9.825
			c20.013,2.911,39.844,7.641,57.856,16.738c12.736,8.005,24.38,18.922,30.384,32.931c1.274,0,4.003,0.182,5.276,0.182
			c-7.278-13.645-14.737-27.291-20.195-41.664c-16.556-41.3-30.93-83.51-48.759-124.264c-10.734-22.924-21.651-47.486-42.21-63.314
			c-18.376-14.555-42.937-18.194-65.68-16.92C654.05,396.443,646.045,402.083,637.312,405.176z M297.998,433.376
			c-22.378,8.187-45.303,14.191-67.863,21.287c-31.293,9.097-62.951,19.103-95.699,21.287c3.275,25.471,6.368,50.943,10.552,76.232
			c0.728,4.73,1.455,9.279,2.365,14.009c1.092,6.368,2.001,12.554,3.457,18.922c4.185,18.558,6.914,37.479,11.28,56.037
			c1.456-0.91,2.547-2.183,3.639-3.639c13.827-22.742,26.199-46.576,40.39-69.136l0.728-0.182
			c13.1-22.742,29.292-43.665,45.303-64.224c23.288-29.11,48.577-56.401,77.506-79.871
			C318.557,425.735,308.55,430.465,297.998,433.376z M265.977,618.225c-10.916,2.365-22.196,5.458-30.929,12.736
			c-9.461,8.187-15.829,20.013-18.012,32.203c-4.912,13.645-5.458,28.564-5.822,42.937c0,22.742,2.001,45.484,8.369,67.317
			c5.094,17.466,13.463,34.932,28.2,46.212c15.647,12.372,36.206,15.829,55.491,18.74c29.292,3.639,60.585,4.549,87.876-8.005
			c24.925-13.827,44.393-36.752,55.309-62.951c3.821-7.459,6.368-15.647,7.823-24.016c2.911-8.005,3.821-16.556,5.458-24.743
			c2.365-14.555,5.094-29.656,2.547-44.393c-4.003-22.014-18.74-42.028-38.935-52.034c-7.641-3.457-16.011-5.458-24.38-6.914
			c-23.288-3.639-46.758-3.639-70.228-3.275C307.823,613.131,286.718,614.222,265.977,618.225z M643.862,614.404
			c-14.737,2.001-30.384,4.548-42.937,13.099c-15.465,10.734-27.473,26.927-31.657,45.484c-3.275,20.741,0.91,41.846,5.822,62.041
			v-1.456c1.274,10.916,4.367,21.651,8.369,31.839c4.366,11.826,11.098,22.742,18.558,32.931
			c13.463,17.102,30.747,32.749,52.216,38.207c31.475,8.187,64.77,5.094,96.063-2.183c13.463-3.275,26.927-8.551,36.751-18.74
			c16.011-16.374,23.288-39.117,27.837-61.131c4.366-24.562,6.186-49.669,2.547-74.413c-2.183-13.281-5.458-26.927-12.918-38.389
			c-6.55-10.188-17.466-16.738-28.928-20.195c-17.466-5.458-36.024-7.096-54.217-8.187
			C695.714,612.039,669.697,611.493,643.862,614.404z M495.037,681.539c-10.916,12.19-11.462,29.292-14.373,44.575
			c-2.365,16.374-7.096,32.385-11.28,48.214c-4.912,9.461-8.551,19.831-14.919,28.382c-14.191,20.195-33.295,37.297-55.309,48.214
			c-21.287,10.188-45.121,11.826-68.409,11.644c-24.016-0.728-48.032-3.639-70.956-11.098
			c-23.834-7.823-43.301-25.835-53.854-48.396c-4.185-8.733-7.277-17.83-10.734-26.927c-8.551-31.111-12.918-63.314-12.372-95.699
			c-5.822-0.91-11.826-2.001-17.648-3.093c3.093,20.377,3.821,40.936,4.912,61.495c2.001,49.487,4.003,99.52,16.92,147.734
			c4.003,14.919,10.188,29.292,16.556,43.483c7.096-0.91,14.191-2.001,21.287-2.729c25.653-2.001,51.488-0.91,76.596,4.548
			c8.369,1.638,16.92,4.367,25.471,3.457c10.734-1.456,18.558-10.37,24.016-19.104c7.277-12.372,15.101-24.562,24.744-35.114
			c17.284-16.192,39.117-26.563,62.041-31.839c23.288-4.912,48.396-7.823,71.138,0.728c10.916,4.912,21.833-1.637,32.567-3.821
			c16.738-3.275,33.84,0.364,50.579,2.183l0.364,0.728c23.834,4.548,46.94,15.101,64.77,32.021
			c6.55,7.277,12.554,15.101,17.648,23.47c6.55,10.007,11.826,22.015,23.106,27.654c11.462,6.186,24.925,2.001,36.933-0.182
			c29.656-6.732,60.585-6.732,90.423-2.001c18.376-35.296,25.289-75.14,28.928-114.439c4.003-46.212,4.366-92.788,10.916-138.637
			c-6.004,1.638-12.008,2.729-18.012,3.639c0.364,33.477-4.003,67.135-13.645,99.338c-6.368,20.741-17.102,40.572-32.931,55.491
			c-10.371,7.641-21.469,14.191-33.84,17.83c-23.47,6.732-47.85,9.643-72.229,9.825c-21.469-0.364-43.483-2.183-62.951-11.644
			c-23.288-11.644-42.755-30.384-57.31-52.034c-4.367-6.55-6.914-13.827-10.734-20.559c0-1.819-0.728-3.457-1.274-5.094
			c-7.823-22.924-10.734-47.122-15.101-70.956c-2.547-14.555-12.736-28.2-27.291-32.203
			C510.137,668.622,501.223,674.99,495.037,681.539z M103.506,706.647c-14.555,14.191-20.195,35.296-21.469,55.127
			c-1.092,20.559,2.729,41.482,10.734,60.585c6.732,15.647,16.738,30.747,32.021,39.117c10.916,6.186,23.834,6.368,36.024,6.914
			c-6.732-34.932-8.733-70.41-10.734-105.706c-6.368,1.092-13.645,1.819-18.012,7.278c-5.094,7.278-5.094,16.556-6.186,24.925
			c-0.91,0-2.547,0-3.457,0c-3.639-10.37-5.094-22.56,0.182-32.567c5.458-9.097,17.466-10.552,27.109-9.825
			c0-1.637-0.182-5.094-0.182-6.914c-9.461-0.546-19.104-1.092-27.655-5.276c-6.368-2.911-12.372-7.823-14.191-14.737
			c1.819-1.456,3.275-3.275,4.73-5.094c10.916,7.096,22.924,12.554,35.842,15.101c0-14.555-2.001-28.928-2.365-43.483
			C130.615,691.364,114.786,695.731,103.506,706.647z M884.202,691.91c-1.819,14.373-2.911,28.928-3.821,43.483
			c10.734-1.637,20.923-5.822,30.202-11.28c2.729-1.092,6.368-4.185,9.097-1.092c1.819,2.911,1.819,6.914-0.91,9.279
			c-10.007,10.552-25.289,13.645-39.299,12.736c-0.182,1.819-0.364,5.64-0.364,7.459c7.823-0.728,16.556-0.728,22.924,4.367
			c6.914,5.094,8.005,14.191,8.005,22.196c-0.182,6.186,0.182,13.645-5.822,17.466c-2.729-8.915-1.274-19.285-7.641-26.745
			c-4.367-5.458-11.462-6.914-18.012-7.096c-0.91,20.741-1.819,41.3-4.184,61.859c-1.092,14.737-3.275,29.292-6.186,43.665
			c16.374-0.364,34.022-3.093,46.212-14.737c19.285-18.558,28.2-45.484,31.475-71.684c2.911-25.107-1.274-52.762-18.012-72.593
			C917.314,696.64,900.212,691.91,884.202,691.91z M434.815,857.837c-20.923,5.458-41.118,15.465-55.673,31.657
			c-10.007,10.552-16.374,23.652-24.562,35.478c-7.459,10.734-19.831,19.104-33.295,18.194c-13.463-1.092-26.563-5.458-40.026-7.096
			c-24.38-3.639-49.123-1.819-73.503,0.91c3.639,5.822,6.55,12.19,10.734,17.648c3.639,0.546,7.096-1.456,10.552-2.001
			c21.833-4.912,44.393-5.094,66.589-3.093c8.551,0.91,17.466,1.274,25.653,4.003c0.546,0.728,1.819,2.001,2.365,2.729
			c-14.191,0-28.2-1.819-42.391-2.001c-19.649,0.182-39.481,2.365-58.584,6.914c27.291,37.115,65.498,65.134,107.161,83.873
			c63.86,28.928,134.634,38.935,204.316,37.479c67.317-1.819,135.18-17.284,193.4-52.034c30.747-17.648,57.31-41.846,78.779-69.864
			c-31.293-9.643-64.406-6.914-96.427-3.457c0.728-2.183,2.183-3.457,4.366-3.639c31.475-7.277,64.588-7.096,96.063,0.364
			c3.639-5.276,7.096-10.734,10.371-16.192c-14.737-2.365-29.656-4.003-44.575-3.093c-20.923,0.546-41.118,7.096-61.859,8.733
			c-13.827,1.456-27.836-5.822-35.842-17.284c-8.733-12.008-15.101-25.835-25.471-36.57c-18.376-20.195-45.302-30.02-71.502-34.568
			c-14.555-2.001-29.656-4.003-43.847,0.182c-6.55,1.819-12.918,4.73-19.831,4.548c-8.187-0.728-15.647-4.366-23.652-5.64
			C474.478,850.378,454.101,852.925,434.815,857.837z M284.898,1085.987c-28.928,10.007-50.215,34.568-62.587,61.677
			c-5.276,9.825-5.276,23.106,2.183,31.839c13.281,15.101,32.567,22.742,51.125,28.928c19.831,6.368,39.48,13.645,59.857,18.74
			c36.024,9.643,72.411,18.376,109.709,20.741c22.56,0,45.302,0.91,67.681-2.183c-4.549,6.004-11.462,9.825-18.558,11.644
			c-14.737,3.821-30.202,3.093-45.303,3.275c6.55,38.025,11.462,76.414,15.647,114.803c1.092,10.734,2.911,21.469,2.183,32.385
			c-3.639-0.728-7.277-1.274-10.916-2.001c-5.822-48.577-11.28-97.337-19.285-145.732c-52.216-5.094-103.523-17.284-153.01-34.386
			c-24.016-7.641-49.305-15.101-68.045-32.749c-9.461,14.737-17.648,30.202-25.653,45.666
			c-20.741,39.844-40.39,80.234-56.219,122.262c-12.008,32.385-22.924,65.68-26.563,100.066
			c-1.092,11.098-1.819,23.106,3.093,33.295c1.637,4.548,7.278,4.548,11.098,5.458c46.03,6.55,92.243,13.464,138.455,17.284
			c-5.094-2.547-10.552-4.73-14.191-9.279c-6.004-6.55-7.823-15.465-9.097-24.016c-24.016,0.182-48.214-2.183-71.684-7.459
			c23.288-5.458,47.122-4.73,70.592-8.187c-0.182-39.481,5.094-79.143,15.647-117.168c7.459-29.656,19.649-57.674,32.203-85.329
			c1.273,6.368-0.364,12.736-1.456,18.922c-8.187,51.488-24.38,102.067-25.289,154.647c-0.546,22.378,0.91,45.303,9.825,66.043
			c2.001,4.185,3.093,9.643,6.55,12.918c18.194,3.275,36.933,3.275,55.309,5.276c24.38,1.819,48.759,4.003,73.321,4.73
			c19.649,2.001,39.48,0.728,58.948,2.729c38.571,0.728,77.324,0.91,115.895-0.182c16.92-1.819,33.84-0.364,50.761-2.365
			c44.757-1.819,89.331-6.55,133.906-10.007c5.094-11.28,9.461-23.106,11.826-35.478c4.73-25.289,2.729-51.125-0.364-76.414
			c-3.457-27.109-10.007-53.854-15.647-80.599c-3.093-16.374-7.641-32.567-7.641-49.305c2.183,2.911,4.367,5.64,6.004,8.915
			c25.289,54.218,40.572,113.711,40.208,173.933c0.182,2.547-0.364,6.186,2.729,7.459c17.102,1.819,34.022,3.457,51.124,6.004
			c13.281,2.183,26.927,2.365,40.026,5.458c-30.93,4.73-62.405,5.822-93.698,5.094c-1.456,7.641-2.183,16.01-7.278,22.378
			c-3.457,5.094-8.733,8.551-14.009,11.644c20.559-3.639,41.482-4.548,62.223-7.459c21.833-3.275,43.665-6.004,65.498-9.279
			c6.732-1.092,15.829-0.364,18.74-7.823c6.186-14.009,2.183-29.656,0.546-44.211c-8.369-50.215-27.291-97.701-48.396-143.731
			c-17.83-37.843-36.388-75.686-57.856-111.71c-17.466,15.465-39.662,23.652-61.677,30.566
			c-32.385,10.552-64.77,21.105-98.246,27.473c-20.559,5.094-41.664,6.732-62.405,9.461c-2.183,17.102-4.912,34.204-7.459,51.307
			c-4.549,31.293-7.096,62.769-11.098,94.244c-3.639,0.728-7.277,1.274-10.916,2.001c-0.546-16.375,2.365-32.749,4.003-49.123
			c4.185-32.749,8.005-65.498,12.918-98.065c-17.102-0.546-34.75,0-51.307-5.458c-4.548-1.455-8.187-4.548-11.462-7.641
			c16.556-1.819,33.113,0.728,49.669,0.182c21.832,0.91,43.301-3.275,64.77-6.368c47.85-8.915,94.608-22.378,140.092-39.662
			c14.555-6.004,29.292-14.191,37.661-28.019c4.912-8.369,2.547-18.74-1.456-27.109c-11.462-24.38-30.202-46.212-54.945-57.674
			c-26.017-12.736-55.673-10.188-83.51-9.279c0,0.364,0,1.092,0,1.456c18.376,1.092,37.843,3.821,53.672,14.009
			c12.008,7.641,20.195,22.924,15.829,37.115c-2.729,11.644-11.826,20.013-21.105,26.927c-17.648,12.19-36.388,22.742-56.219,30.929
			c-8.551,3.457-17.284,7.096-26.563,7.459c2.183-2.729,5.094-4.73,8.005-6.368c20.013-12.372,39.844-25.289,58.766-39.298
			c7.641-6.004,15.647-12.372,20.559-21.105c4.73-8.733-2.729-18.376-10.189-22.56c-20.741-12.372-45.484-13.281-68.773-16.374
			c-9.097-2.001-17.83,1.092-26.745,2.365c4.73,21.833,11.644,43.665,23.652,62.769c19.467-11.462,34.386-28.746,50.761-44.029
			c0.364,3.275-0.728,6.55-2.547,9.279c-14.555,23.106-35.66,41.3-58.038,56.765c-14.373,10.188-31.657,15.101-46.394,24.562
			c-14.373,8.733-25.653,21.105-38.389,31.839c-7.096,7.096-18.194,9.461-27.109,4.185h2.547
			c7.641-8.915,14.919-18.194,24.016-25.653c-19.831,3.457-40.754,4.185-60.403-0.546c9.097,7.641,17.83,16.01,23.288,26.745
			c-8.369,4.003-17.83,1.637-24.744-4.185c-8.369,12.736-25.471,10.007-38.389,10.189c-41.3-4.003-82.054-14.191-121.171-28.2
			c-6.914-2.729-14.373-4.912-19.467-10.734c4.003,0,8.005,0.728,11.826,1.819c28.382,7.823,57.31,13.645,86.057,19.467
			c26.017,4.548,52.762,10.37,79.325,6.004c-10.189-11.462-22.014-21.287-34.568-30.202c-10.37-7.277-22.56-11.28-33.477-17.284
			c-18.74-10.188-35.478-23.834-50.761-38.753c-8.733-9.643-18.194-19.467-22.197-32.021c6.732,3.275,10.734,9.643,16.193,14.373
			c10.007,8.915,20.195,17.83,31.475,25.107c12.554-18.74,19.649-40.754,24.38-62.587c-6.186-1.274-12.554-3.093-18.922-2.183
			c-22.196,3.275-45.121,3.639-66.043,12.19c-8.551,3.275-16.738,8.733-21.105,17.102c-2.365,4.367-0.91,9.825,2.001,13.464
			c7.641,10.007,17.83,17.648,28.2,24.562c14.555,10.552,29.656,20.013,45.121,29.292c5.276,3.275,11.28,5.64,15.829,10.188
			c-9.825,0.364-18.74-3.821-27.654-7.096c-19.467-7.278-37.661-17.466-54.945-28.928c-7.459-5.094-14.919-10.734-20.013-18.376
			c-6.368-9.279-7.277-21.833-3.093-32.021c6.186-12.736,19.467-20.377,32.567-24.38c11.462-3.821,24.016-3.639,35.478-7.096
			c-5.458-0.364-11.098-0.182-16.556-0.364C323.833,1077.8,303.638,1080.165,284.898,1085.987z M427.174,1115.279
			c-3.821,14.373-9.279,28.382-15.101,42.028c-1.092,3.093-2.729,6.914-0.364,9.825c8.187,11.28,22.378,15.647,35.114,19.831
			c42.574,11.098,88.058,11.644,130.813,1.455c11.462-3.275,23.47-6.732,33.295-14.009c4.367-3.457,9.643-8.915,6.732-14.919
			c-4.912-12.918-10.916-25.471-14.555-38.935c-2.183-7.459-4.003-15.283-6.004-22.742c-54.581,9.279-110.618,7.459-165.2-0.364
			C429.357,1102.543,429.357,1109.457,427.174,1115.279z"/>
	</g>
	<path style="fill:#0C0526;" d="M363.496,160.105c32.749-3.093,65.861,0.364,98.246,5.64c30.384,6.186,60.585,14.373,88.604,27.837
		c2.365,0.91,3.457,3.093,4.73,5.094c-4.912-0.364-9.643-1.092-14.191-2.911c-15.283-5.64-30.929-10.734-46.758-15.101
		c-51.306-14.191-105.342-17.83-157.922-10.916c-31.475,4.367-62.405,12.008-92.788,21.469c-4.367,1.456-8.915,2.729-13.645,3.457
		c-0.546-0.91-1.819-2.911-2.365-3.821c6.55-1.456,12.554-4.912,19.103-6.732C284.535,172.477,323.469,162.471,363.496,160.105z"/>
	<path style="fill:#0C0526;" d="M268.888,220.691c10.37-2.183,20.741-5.276,31.475-5.276c-4.912,5.276-12.19,6.368-18.558,8.369
		c-22.015,6.186-44.575,10.734-66.225,17.648c-36.751,11.28-72.229,26.017-106.252,43.301
		c-12.008,6.004-23.288,13.645-36.024,18.012c2.001-5.822,8.733-7.823,13.1-11.462C141.713,255.623,205.028,234.518,268.888,220.691
		z"/>
	<path style="fill:#0C0526;" d="M360.403,334.948c16.01-9.461,35.296-9.825,53.126-12.008c2.001,0.91,4.003,2.001,5.822,2.911
		c-1.092,0.182-3.093,0.728-4.185,1.092C396.972,328.762,378.778,332.219,360.403,334.948z"/>
	<path style="fill:#0C0526;" d="M237.594,342.407c6.004-2.729,12.008-6.55,18.74-5.276c-3.821,5.822-10.734,7.641-16.374,11.098
		c-13.1,6.55-25.289,14.737-37.843,22.378c-40.39,22.924-77.869,50.215-115.531,77.142c-2.911,2.183-6.004,3.821-9.461,4.73
		c9.279-12.19,22.196-21.105,34.204-30.566C151.538,392.44,192.838,364.24,237.594,342.407z"/>
	<path style="fill:#0C0526;" d="M282.897,444.11c7.096-2.365,14.009-6.732,21.833-6.004c-1.819,3.821-4.912,6.55-8.733,8.187
		c-30.384,14.555-62.587,24.925-94.972,34.204c-16.011,4.366-32.021,9.279-48.759,9.643c-5.64,0-11.826-2.183-14.191-7.823
		c17.83,1.455,35.478-2.001,52.398-7.096C221.766,465.761,252.695,456.118,282.897,444.11z"/>
	<g>
		<path style="fill:#0C0526;" d="M336.933,660.071c8.915-14.919,27.654-25.107,44.939-19.285
			c8.551,2.183,14.555,8.733,21.105,14.373c-15.829-2.911-30.02,12.554-30.566,27.655c-1.092,7.641,4.003,15.283,11.098,18.376
			c13.827,3.821,28.928-5.276,32.567-19.104c4.73,21.287,1.273,44.575-11.098,62.769c-7.277,10.734-19.103,19.285-32.567,19.467
			c-14.555,0.546-27.655-9.097-35.114-20.923C321.832,718.291,322.014,684.814,336.933,660.071z M363.677,708.466
			c-0.728,9.825,1.092,22.56,10.371,28.018c9.461-1.456,12.918-14.009,9.825-21.833C379.688,707.92,370.591,707.92,363.677,708.466z
			"/>
	</g>
	<g>
		<path style="fill:#0C0526;" d="M630.398,654.976c7.823-9.825,20.195-17.102,33.113-16.01c11.462,0.182,20.923,7.823,28.746,15.465
			c-18.012-1.637-32.567,18.194-28.564,35.114c1.819,5.094,5.822,9.461,10.916,11.28c13.827,3.639,29.656-6.004,31.475-20.559
			c5.276,20.923,1.819,44.029-10.007,62.223c-7.277,11.098-18.922,20.377-32.567,21.287c-10.552,0.91-21.105-3.639-28.564-10.916
			c-13.1-12.372-19.103-30.929-19.285-48.577C615.116,686.997,619.482,668.804,630.398,654.976z M654.232,708.102
			c-0.91,8.187,0.546,17.102,5.276,24.016c1.637,2.365,4.366,5.094,7.459,3.639c7.823-3.639,10.37-14.191,7.096-21.651
			C669.697,707.92,660.964,707.738,654.232,708.102z"/>
	</g>
	<path style="fill:#0C0526;" d="M134.072,815.81c5.276-1.456,7.823,6.55,4.912,10.006
		C136.983,822.541,135.164,819.266,134.072,815.81z"/>
	<g>
		<path style="fill:#0C0526;" d="M505.953,889.13c7.642-2.911,15.465,1.092,23.106,1.274c31.475,3.639,63.314,1.456,94.79,6.368
			c11.098,1.637,24.198,5.822,28.382,17.648c5.094,15.647,7.642,32.021,8.915,48.395c0.728,11.098,0.546,23.652-6.732,32.931
			c-8.005,10.916-20.741,16.193-32.567,21.833c-25.835,11.28-53.308,18.922-81.326,22.56c-40.39,4.73-81.326-4.003-118.987-18.74
			c-14.191-6.368-29.474-12.008-40.572-23.106c-8.369-8.187-10.189-20.559-9.643-31.657c1.092-17.284,3.457-34.568,8.369-51.125
			c1.819-6.914,6.732-12.918,13.463-15.647C429.175,885.492,468.837,897.136,505.953,889.13z M498.857,898.591
			c-26.745,3.821-53.854-1.637-80.599,3.457c-8.187,1.819-17.284,2.365-24.38,7.46c-8.187,7.096-8.915,18.74-11.098,28.746
			c-1.819,14.555-4.73,29.292-2.001,44.029c2.911,12.372,15.465,18.012,25.653,23.47c29.656,14.737,62.223,23.834,95.154,27.109
			c20.923,2.365,41.846-0.91,62.223-4.912c17.284-3.821,34.386-8.369,50.579-15.647c10.189-4.548,20.923-8.733,29.292-16.374
			c5.64-5.094,9.097-12.554,9.279-20.195c0.546-15.283-2.001-30.384-4.73-45.303c-2.001-7.459-3.275-16.92-10.734-21.105
			c-9.825-5.094-21.105-5.094-31.839-6.368c-29.838-2.183-59.857-1.819-89.695-6.186
			C510.137,895.862,504.497,898.045,498.857,898.591z"/>
	</g>
	<path style="fill:#0C0526;" d="M402.976,917.331c36.206,15.647,75.14,27.655,114.985,25.107
		c37.297-1.456,75.322-6.732,109.345-22.924c-27.109,16.375-56.583,30.202-88.24,34.75c-22.742,1.819-46.394,2.911-68.591-4.185
		C446.459,942.62,424.081,930.612,402.976,917.331z"/>
	<path style="fill:#0C0526;" d="M487.577,983.374c3.093-5.458,10.007-6.004,15.647-7.096c11.462-1.274,23.288-1.092,34.568,1.819
		c3.275,0.728,5.458,2.911,7.459,5.458c-9.643,1.092-19.467,0.182-29.11,0.546C506.681,983.92,497.038,985.557,487.577,983.374z"/>
	<path style="fill:#0C0526;" d="M703.719,1212.252c7.641-2.001,15.101-4.185,22.924-5.094c-7.096,7.096-16.92,9.643-26.017,13.099
		c-38.935,13.645-79.689,24.198-120.989,26.563c-11.462-0.728-28.564,2.365-33.84-11.098c4.548-0.364,9.097-0.364,13.827,0.182
		c14.737,1.819,29.292-0.546,43.847-2.547C637.13,1227.535,670.607,1220.439,703.719,1212.252z"/>
	<g>
		<path style="fill:#0C0526;" d="M681.523,1332.695c2.001-5.276,4.73-11.826,11.098-12.736c6.004-1.637,10.916,3.275,12.736,8.551
			c2.911,6.55-1.638,12.917-4.73,18.376c4.003,6.732,9.461,13.099,10.916,21.105c2.183,8.369-0.728,16.738-3.639,24.38
			c2.001,2.729,5.276,5.094,4.73,8.915c0.182,5.64-4.912,11.462-10.734,10.916c-4.367,0.182-8.915-2.729-13.1-0.546
			c-8.915,4.548-19.104,4.185-28.928,3.275c-11.644-2.001-24.198-8.187-28.382-20.013c-4.549-12.917-0.546-26.745,3.821-39.117
			c-4.912-4.367-10.916-9.279-10.37-16.556c0-6.732,7.278-11.644,13.463-9.825c4.548,1.456,7.459,5.822,10.552,9.097
			C659.145,1333.423,670.425,1332.331,681.523,1332.695z M694.622,1331.057c-1.819,5.094-5.276,9.279-8.915,13.281
			c-10.371-4.548-23.288-4.003-32.385,3.093c-6.732,4.912-11.28-4.73-16.738-7.459c-0.364,0.728-1.274,2.001-1.638,2.729
			c3.457,5.458,8.733,9.461,12.372,14.737c-6.914,8.187-8.915,19.285-8.733,29.838c0.728,3.457,2.183,6.914,4.003,10.007
			l0.364-0.364c12.372,11.826,32.931,14.191,47.304,4.367c3.457,0.182,6.914,0.182,10.37,0.182
			c-1.819-3.093-6.914-5.822-4.003-10.006c0.728,0.182,2.001,0.546,2.729,0.546c-1.637-3.639,2.183-6.186,2.911-9.279
			c1.637-3.639,1.456-7.641,0.91-11.462c-1.819-9.461-7.277-18.012-15.283-23.47C691.529,1343.247,697.17,1337.425,694.622,1331.057
			z"/>
	</g>
	<path style="fill:#0C0526;" d="M685.344,1377.452c-5.458-3.093-3.821-12.19,1.819-14.373c2.547,1.637,5.64,3.457,5.64,7.096
		C694.258,1374.723,689.528,1378.361,685.344,1377.452z"/>
	<path style="fill:#0C0526;" d="M645.317,1371.448c6.186,0,8.369,6.186,9.461,11.28c-4.003,2.729-8.551,2.001-12.736,0.728
		C642.406,1379.271,643.498,1375.268,645.317,1371.448z"/>
</g>
<g>
	<path style="fill:#846B6B;" d="M456.466,40.208c24.38,34.204,61.495,57.492,101.157,69.682c17.284,5.64,35.296,8.915,53.126,12.554
		c45.12,10.552,88.604,32.567,119.533,67.681c15.101,14.737,21.833,35.478,28.2,54.945c-10.552-4.367-20.195-10.552-31.293-13.645
		c-13.1-26.017-35.842-48.759-64.224-57.129c6.368,7.277,14.737,12.736,21.105,20.013c7.459,8.187,14.555,16.738,20.377,26.017
		c-15.101-4.366-29.292-11.28-43.665-17.466c-35.842-15.283-70.956-32.203-104.796-51.489
		c-27.109-15.828-51.852-35.114-75.14-56.037c-12.008-11.098-21.65-24.38-33.113-36.024
		C450.28,52.944,453.191,46.394,456.466,40.208z"/>
	<path style="fill:#846B6B;" d="M193.02,201.587c16.192-10.552,34.204-18.012,51.67-25.835c1.819,1.092,3.457,2.183,5.276,3.093
		c-1.092,1.819-2.365,3.457-3.457,5.276c-6.55,1.819-12.554,5.276-19.103,6.732C214.852,191.035,205.028,200.132,193.02,201.587z"/>
	<path style="fill:#846B6B;" d="M448.461,215.778c36.387,10.734,70.592,27.655,105.706,41.482
		c10.916,4.366,22.015,7.823,32.931,11.826c-10.552,0.182-20.741-2.365-30.929-4.548c-20.923-5.276-41.3-12.736-61.495-20.741
		c-18.74-6.914-38.389-13.827-58.766-12.372c-22.378,0.91-43.665,8.733-64.952,14.919c4.185-4.73,10.37-6.914,15.829-9.643
		c21.651-9.825,45.666-16.193,69.5-13.463C453.737,220.873,451.008,218.325,448.461,215.778z"/>
	<path style="fill:#846B6B;" d="M383.691,317.664c16.01-3.275,32.385-5.822,48.759-4.73c30.929,2.365,61.495,10.007,89.331,23.652
		c6.004,3.093,12.554,4.912,17.466,9.461c-3.275-0.364-6.732-0.91-9.825-2.365c-34.568-14.737-72.047-22.56-109.709-21.469
		c-1.456,0.182-4.548,0.546-6.004,0.728c-17.83,2.365-37.297,2.729-53.126,12.008c18.376-2.911,36.57-6.186,54.945-8.005
		c3.821,1.092,7.823,2.365,11.644,3.639c-20.559,2.365-41.118,4.003-61.131,9.279c-6.368,1.819-12.918,3.275-19.467,4.003
		c0.182-2.547,0.364-5.094,2.365-6.914C357.492,326.397,370.773,320.575,383.691,317.664z"/>
	<path style="fill:#846B6B;" d="M144.806,552.363c23.47-0.546,46.758-4.367,69.136-11.462
		c-20.559,12.372-43.119,22.014-66.953,25.471C146.262,561.642,145.534,556.912,144.806,552.363z"/>
	<path style="fill:#846B6B;" d="M150.446,585.112c19.649-0.364,37.115-10.552,55.309-16.738
		c-14.009,22.742-26.381,46.394-40.39,69.136c-1.092,1.274-2.365,2.547-3.639,3.639C157.36,622.773,154.449,603.852,150.446,585.112
		z"/>
	<path style="fill:#846B6B;" d="M634.401,911.691c3.093-0.91,4.185,0.182,3.457,3.093
		C634.947,915.693,633.855,914.602,634.401,911.691z"/>
</g>
<g>
	<g>
		<path style="fill:#5B4145;" d="M444.276,128.994c-4.185-22.924-3.821-47.122,3.639-69.5
			c11.462,11.644,21.105,25.107,33.113,36.024c23.288,20.923,48.032,40.208,75.14,56.037c33.84,19.285,68.954,36.206,104.796,51.488
			c14.373,6.004,28.564,13.099,43.665,17.466l0.546,0.182c6.732,11.098,13.645,22.742,15.465,35.842
			c2.001,18.012-0.728,36.024-5.276,53.49c-10.37-19.649-22.742-38.207-37.843-54.399c-14.919-16.193-32.021-31.293-52.216-40.208
			c-9.825-4.367-20.923-6.55-31.293-2.729c3.639,2.911,8.733,2.911,12.918,4.548c22.014,7.823,39.844,24.016,55.491,40.936
			c19.103,21.469,35.66,45.848,44.029,73.685c-8.187,16.011-20.559,30.202-35.114,40.572c8.005-22.56,4.548-48.214-6.914-68.954
			c-7.823-13.827-21.105-26.563-37.479-28.018c13.281,8.187,26.017,18.74,32.567,33.295c8.733,18.376,9.825,40.754,1.819,59.494
			c-4.185,8.915-11.644,18.558-22.196,19.649c-12.554-27.473-32.021-51.488-54.763-71.502
			c-16.374-13.281-34.204-26.563-55.491-30.384c-5.822-1.274-11.462,0.364-16.556,2.911c27.655,3.275,52.216,19.285,71.32,38.935
			c14.373,14.373,26.745,30.566,35.842,48.759c-22.924-13.827-43.483-31.293-66.589-45.121
			c-26.927-18.012-57.674-29.656-89.332-36.751c-34.022-7.641-69.864-6.732-103.159,3.093
			c-41.846,11.644-79.689,34.204-114.257,59.858c-23.47,17.648-44.939,37.843-66.771,57.129
			c-16.374,14.919-32.749,31.839-54.945,37.661c-19.649,5.276-39.844,9.643-60.403,9.825c2.729-41.3,18.74-81.144,43.119-114.257
			c20.377-27.291,47.85-48.396,77.869-63.86c33.113-17.466,68.954-28.564,104.25-40.936c15.647-6.004,31.111-12.19,46.758-18.194
			c-50.579,4.548-101.157,14.555-147.916,35.114c-13.827,6.186-27.473,13.1-39.662,22.014c-8.551,5.64-16.556,12.736-26.563,15.465
			c-22.378,5.276-45.484,8.551-68.409,8.915c21.287-20.741,44.575-38.935,67.863-57.31c21.469-16.374,43.847-31.657,66.771-45.666
			c1.456-0.91,3.093-1.637,4.912-2.001c12.19-1.456,21.833-10.552,34.386-10.552c0.546,0.91,1.819,2.911,2.365,3.821
			c4.548-0.91,9.097-2.183,13.645-3.457c30.384-9.461,61.313-17.102,92.788-21.469c52.762-6.732,106.798-3.093,157.922,10.916
			c15.829,4.367,31.293,9.461,46.758,15.101c4.549,1.638,9.461,2.547,14.191,2.911c-1.274-2.001-2.547-4.185-4.73-5.094
			c-28.018-13.463-58.22-21.651-88.604-27.837c-32.385-5.276-65.498-8.915-98.246-5.64c-39.844,2.365-78.961,12.19-116.986,24.016
			c1.092-1.819,2.365-3.457,3.457-5.276c-1.819-1.092-3.457-2.183-5.276-3.093c53.49-22.378,112.074-34.568,170.112-28.746
			c15.465,2.001,30.747,4.548,45.848,8.551c29.11,8.369,58.22,16.193,86.602,26.381c4.912,1.819,9.825,3.275,14.919,4.185
			c-11.644-11.28-26.381-18.012-40.026-26.199c-19.649-11.644-41.482-18.921-63.132-25.653
			C454.283,132.269,448.097,132.633,444.276,128.994z M268.888,220.691c-63.86,13.827-127.175,34.932-182.302,70.41
			c-4.367,3.639-11.098,5.64-13.1,11.462c12.736-4.185,24.016-12.008,36.024-18.012c34.022-17.284,69.5-32.021,105.888-43.119
			c21.833-6.914,44.211-11.462,66.225-17.648c6.55-2.001,13.827-3.093,18.558-8.369
			C289.447,215.233,279.258,218.507,268.888,220.691z M448.461,215.778c2.729,2.547,5.276,5.094,8.005,7.641
			c-23.834-2.729-48.032,3.457-69.5,13.463c-5.458,2.911-11.462,5.094-15.829,9.643c21.287-6.368,42.392-14.009,64.952-14.919
			c20.377-1.455,39.844,5.276,58.766,12.372c20.013,8.005,40.39,15.465,61.495,20.741c10.188,2.365,20.377,4.912,30.929,4.549
			c-10.916-4.185-22.014-7.641-32.931-11.826C518.87,243.433,484.848,226.513,448.461,215.778z M237.594,342.407
			c-44.757,21.833-86.239,50.033-126.265,79.507c-12.008,9.461-24.925,18.376-34.204,30.566c3.457-0.91,6.55-2.547,9.461-4.73
			c37.661-26.927,75.322-54.218,115.531-77.142c12.554-7.641,24.744-15.829,37.843-22.378c5.64-3.457,12.554-5.276,16.374-11.098
			C249.602,335.857,243.598,339.678,237.594,342.407z"/>
	</g>
	<path style="fill:#5B4145;" d="M769.581,184.485c7.277,7.277,10.188,17.648,13.645,27.109c8.187,22.378,8.915,47.486,1.455,70.228
		c-3.093,9.097-6.914,18.558-14.737,24.562c10.916-30.02,0-62.405-13.281-89.877C766.852,209.229,766.852,195.583,769.581,184.485z"
		/>
	<path style="fill:#5B4145;" d="M727.371,231.607c11.098,3.093,20.741,9.279,31.293,13.645l0.728,0.364
		c6.186,20.377,6.914,43.483-2.547,62.951c-9.279,13.827-24.744,22.014-38.935,30.202
		C739.197,307.839,741.38,265.811,727.371,231.607z"/>
	<g>
		<path style="fill:#5B4145;" d="M346.757,320.211c45.484-17.102,96.973-17.648,142.821-2.183
			c50.397,16.556,89.514,54.217,135.908,78.233c-34.932,6.914-70.592,0.182-105.16-5.822c-49.487-8.005-100.612-8.369-149.735,2.365
			c-35.114,7.459-69.318,18.558-103.523,29.474c-33.658,11.28-67.863,20.741-101.885,31.111c-5.094,1.637-10.37,2.911-15.829,3.639
			c7.278-6.55,15.465-11.644,23.106-17.83c19.649-15.647,37.843-32.749,57.31-48.396
			C265.249,362.056,303.82,336.403,346.757,320.211z M383.691,317.664c-13.1,2.911-26.199,8.733-34.932,19.285
			c-1.819,1.819-2.183,4.548-2.365,6.914c6.55-0.728,13.1-2.183,19.467-4.003c20.013-5.458,40.754-6.914,61.131-9.279
			c-3.821-1.274-7.823-2.547-11.644-3.639c1.092-0.182,3.093-0.728,4.185-1.092c-2.001-1.092-3.821-2.183-5.822-2.911
			c1.455-0.182,4.548-0.546,6.004-0.728c37.661-1.092,75.14,6.732,109.709,21.469c3.093,1.455,6.55,2.001,9.825,2.365
			c-5.094-4.366-11.644-6.368-17.466-9.461c-27.836-13.827-58.402-21.469-89.331-23.652
			C416.076,311.842,399.701,314.389,383.691,317.664z"/>
	</g>
	<path style="fill:#5B4145;" d="M770.49,321.848c8.187-3.639,16.556-7.823,25.835-8.187c23.652-2.001,47.668,6.186,66.589,20.013
		c27.836,19.831,43.483,54.945,40.572,88.786c-1.092,12.736-1.092,25.653-3.275,38.389c0.182-1.455,0.364-4.185,0.546-5.64
		c-23.47,8.733-49.123,9.461-73.867,7.823c22.924,8.551,47.122,13.281,71.32,16.92c-0.364,4.73-0.91,9.461-1.455,14.191
		c-28.018,12.554-58.948,21.469-89.877,18.558h-0.546c-14.009-34.386-27.836-69.864-52.216-98.428
		c-16.738-19.285-38.935-36.933-65.498-37.297c8.005-5.822,14.919-13.099,20.741-21.105c1.819-4.003,6.186-1.638,9.279-0.91
		c19.649,6.004,40.754,8.733,58.22,20.195c21.105,14.737,32.385,39.844,36.024,64.77c4.185-5.276,4.185-12.372,4.548-18.74
		c-0.364-26.199-15.647-51.852-38.753-64.406c-15.829-8.551-34.204-10.552-52.034-10.916c20.013-3.457,40.026-9.643,60.585-7.823
		c18.74,0.364,37.479,11.644,44.939,29.11c8.369,18.194,7.278,38.753,7.278,58.402c11.28-14.373,13.463-34.022,10.916-51.67
		c-4.366-18.922-15.829-37.479-34.022-45.848C802.148,320.757,785.955,320.938,770.49,321.848z"/>
	<g>
		<path style="fill:#5B4145;" d="M297.998,433.376c10.552-2.911,20.559-7.641,31.475-9.279
			c-28.928,23.47-54.399,50.761-77.688,79.871c-16.192,20.741-32.203,41.482-45.303,64.224l-0.728,0.182
			c-18.194,6.186-35.66,16.375-55.309,16.738c-1.273-6.186-2.365-12.554-3.457-18.922c23.834-3.457,46.394-13.1,66.953-25.471
			c-22.378,7.096-45.666,10.916-69.136,11.462c-4.185-25.289-7.278-50.761-10.552-76.232c32.749-2.183,64.406-12.19,95.699-21.287
			C252.695,447.567,275.62,441.563,297.998,433.376z M282.897,444.11c-30.202,12.008-61.313,21.651-92.424,30.929
			c-16.92,5.094-34.568,8.551-52.398,7.096c2.183,5.64,8.369,8.005,14.191,7.823c16.738-0.182,32.749-5.276,48.759-9.643
			c32.385-9.279,64.588-19.649,94.972-34.204c3.821-1.637,6.914-4.366,8.733-8.187C296.906,437.379,289.993,441.563,282.897,444.11z
			"/>
	</g>
	<path style="fill:#5B4145;" d="M812.518,525.437c25.835,5.64,52.762,5.276,78.597-0.364c0,4.912-0.728,9.643-1.819,14.373
		c-23.106,6.914-48.214,9.279-71.502,2.183C815.429,536.353,813.246,531.077,812.518,525.437z"/>
	<path style="fill:#5B4145;" d="M885.111,822.177c0.728-3.275,2.183-6.368,4.548-8.733c0.728,1.274,2.183,3.821,2.911,5.276
		c-0.728,1.455-1.456,2.911-2.001,4.366C889.296,822.723,886.567,822.359,885.111,822.177z"/>
	<g>
		<path style="fill:#5B4145;" d="M434.815,857.837c19.286-5.094,39.663-7.641,59.494-4.003c8.005,1.273,15.465,4.912,23.652,5.64
			c6.914,0,13.281-2.729,19.831-4.548c14.373-4.367,29.474-2.183,43.847-0.182c26.381,4.549,53.126,14.373,71.502,34.568
			c10.37,10.734,16.738,24.562,25.471,36.57c8.005,11.28,21.833,18.558,35.842,17.284c20.741-1.819,40.936-8.187,61.859-8.733
			c14.919-0.91,29.838,0.728,44.575,3.093c-3.275,5.458-6.732,10.916-10.37,16.193c-31.475-7.459-64.588-7.459-96.063-0.364
			c-2.365,0.182-3.821,1.456-4.366,3.639c32.021-3.457,65.134-6.004,96.427,3.457c-21.469,28.2-48.032,52.216-78.779,69.864
			c-58.22,34.568-126.265,50.033-193.4,52.034c-69.682,1.455-140.456-8.733-204.316-37.479
			c-41.846-18.74-80.053-46.94-107.161-83.873c19.285-4.548,38.935-6.732,58.584-6.914c14.191,0.182,28.2,2.183,42.391,2.001
			c-0.546-0.728-1.819-2.001-2.365-2.729c-8.187-2.729-17.102-3.093-25.653-4.003c-22.197-2.001-44.757-1.819-66.589,3.093
			c-3.457,0.546-7.096,2.729-10.552,2.001c-4.185-5.458-7.096-11.826-10.734-17.648c24.38-2.729,49.123-4.73,73.503-0.91
			c13.463,1.638,26.381,6.004,40.026,7.096c13.463,0.91,25.835-7.459,33.295-18.194c8.187-11.826,14.555-25.107,24.562-35.478
			C393.697,873.302,413.892,863.295,434.815,857.837z M505.953,889.13c-37.115,8.005-76.596-3.639-112.801,10.734
			c-6.732,2.547-11.644,8.733-13.463,15.647c-4.912,16.556-7.277,33.84-8.369,51.125c-0.728,11.098,1.274,23.47,9.643,31.657
			c11.098,11.098,26.381,16.738,40.572,23.106c37.661,14.555,78.597,23.47,118.987,18.74c28.018-3.639,55.491-11.28,81.326-22.56
			c11.826-5.64,24.744-10.916,32.567-21.833c7.278-9.279,7.278-21.833,6.732-32.931c-1.274-16.374-3.821-32.749-8.915-48.396
			c-4.185-11.826-17.102-16.01-28.382-17.648c-31.293-4.73-63.314-2.729-94.79-6.368
			C521.236,890.222,513.594,886.219,505.953,889.13z"/>
	</g>
</g>
<g>
	<path style="fill:#F4AB87;" d="M637.312,405.176c8.733-3.093,16.738-8.733,26.199-8.915c22.742-1.273,47.304,2.365,65.68,16.92
		c20.741,15.829,31.475,40.39,42.21,63.314c18.012,40.754,32.203,82.964,48.759,124.264c5.64,14.373,12.918,28.018,20.195,41.664
		c-1.274,0-4.003-0.182-5.276-0.182c-6.004-14.191-17.648-24.926-30.384-32.931c-8.733-20.559-14.919-42.21-23.106-62.951
		c-10.734-27.291-20.377-54.945-33.659-81.144c-9.461-18.74-28.746-30.02-48.577-35.114c-17.102-4.367-35.478-5.458-52.398-0.182
		c-21.287,6.368-43.301,9.643-65.498,8.733c-20.195,0.182-40.026-3.821-60.039-3.457c-63.496,0.728-127.357,20.013-178.481,58.038
		c-20.741,15.101-39.299,33.113-56.583,52.034c-5.094,3.639-10.007,8.005-11.826,14.191c-11.098,12.918-20.923,26.745-30.384,40.936
		c-20.923,7.459-41.118,21.105-50.397,42.028c-2.547,0-5.276,0-7.823,0.182c16.374-28.564,32.021-57.492,50.943-84.419
		c39.299-57.492,87.148-110.8,147.37-147.006c2.547-1.455,5.276-2.183,8.005-2.729c39.117-7.277,79.143-5.276,118.441,0
		c18.012,2.365,36.206,5.276,54.399,6.732C589.462,416.82,614.388,413.545,637.312,405.176z"/>
	<path style="fill:#F4AB87;" d="M165.365,677.537c5.822,1.092,11.644,2.183,17.648,3.093c-0.546,32.203,3.821,64.588,12.372,95.699
		c-1.274,25.289,0.91,50.761,4.549,75.686c3.639,25.653,13.1,50.579,28.2,71.684c-1.092,1.092-2.001,2.365-3.093,3.457
		c-7.096,0.91-14.191,2.001-21.287,2.729c-6.368-14.191-12.554-28.382-16.556-43.483c-12.918-48.032-14.919-98.246-16.92-147.734
		C169.186,718.291,168.458,697.732,165.365,677.537z"/>
	<path style="fill:#F4AB87;" d="M146.08,691.91c0.364,14.555,2.365,28.928,2.365,43.483c-12.918-2.365-24.925-7.823-35.842-15.101
		c4.912-7.641,12.372-12.736,19.649-17.83C136.983,699.187,143.351,697.368,146.08,691.91z"/>
	<g>
		<path style="fill:#F4AB87;" d="M82.22,761.592c6.368-13.463,14.373-26.381,25.653-36.206c1.819,7.095,7.823,11.826,14.191,14.737
			c8.551,4.185,18.376,4.549,27.655,5.276c0,1.638,0,5.094,0.182,6.914c-9.643-0.728-21.651,0.546-27.109,9.825
			c-5.458,10.007-4.003,22.196-0.182,32.567c0.91,0,2.547,0,3.457,0c1.092-8.551,1.092-17.648,6.186-24.925
			c4.367-5.458,11.644-6.186,18.012-7.278c2.001,35.478,4.003,70.956,10.734,105.706c-12.19-0.546-25.107-0.728-36.024-6.914
			c-15.101-8.369-25.289-23.47-32.021-39.117C84.767,803.074,81.128,782.151,82.22,761.592z M134.072,815.81
			c1.274,3.457,2.911,6.914,4.912,10.006C141.713,822.177,139.348,814.172,134.072,815.81z"/>
	</g>
	<path style="fill:#F4AB87;" d="M878.562,762.684c6.55,0.182,13.645,1.638,18.012,7.096c6.368,7.46,5.094,17.83,7.641,26.745
		c-6.004,6.004-6.732,15.283-11.644,22.014c-0.728-1.274-2.183-3.821-2.911-5.276c-2.365,2.547-3.821,5.458-4.548,8.733
		c1.455,0.182,4.185,0.546,5.458,0.728c-0.546,1.638-1.274,3.457-1.819,5.276c-4.912-0.728-9.825-2.001-14.373-3.639
		C876.56,803.984,877.652,783.243,878.562,762.684z"/>
	<path style="fill:#F4AB87;" d="M454.464,802.71c6.368-8.733,10.007-18.922,14.919-28.382c0.728,11.28-3.093,22.197-7.095,32.567
		c-6.004,15.283-15.101,28.928-24.38,42.21c-22.924,5.276-44.757,15.647-62.041,31.839c-29.11,3.457-58.948,3.639-87.694-3.093
		c-28.018-5.822-56.219-19.831-71.684-44.575c-6.55-9.825-12.554-20.013-16.01-31.475c1.819,0.546,3.639,0.91,5.458,1.455
		c10.552,22.56,30.02,40.572,53.854,48.396c22.924,7.46,46.94,10.552,70.956,11.098c23.106,0.364,47.122-1.456,68.409-11.644
		C421.17,840.007,440.273,822.905,454.464,802.71z"/>
	<path style="fill:#F4AB87;" d="M563.263,790.156c-1.456-3.639-0.546-7.641,0-11.462c3.821,6.732,6.368,14.191,10.734,20.559
		c14.555,21.469,34.022,40.208,57.31,52.034c19.649,9.461,41.664,11.28,62.951,11.644c24.38-0.182,48.759-3.275,72.229-9.825
		c12.372-3.457,23.47-10.188,33.841-17.83c-2.365,4.367-4.549,9.097-8.369,12.372c-12.372,11.462-26.745,20.377-42.573,26.381
		c-29.474,10.916-61.859,11.098-92.424,6.914c-17.83-16.92-40.754-27.291-64.77-32.021l-0.364-0.728
		c-3.093-6.732-8.005-12.19-11.826-18.376C572.542,817.447,567.448,803.802,563.263,790.156z"/>
	<path style="fill:#F4AB87;" d="M493.035,985.921c16.011-0.91,32.203-1.092,48.214-0.182l-1.092,2.547
		c-9.097,2.001-18.376,1.274-27.654,1.456c-6.186-0.182-12.372,0.546-18.558-0.91L493.035,985.921z"/>
	<path style="fill:#F4AB87;" d="M427.174,1115.279c2.183-5.822,2.001-12.736,5.094-17.83c54.581,7.823,110.618,9.643,165.2,0.364
		c2.001,7.641,3.821,15.283,6.004,22.742c-4.185,10.552-17.102,8.915-26.199,11.098c-16.556,3.457-33.477,2.911-50.033,4.185
		c-15.829-1.274-32.021-0.364-47.668-2.911c-15.283-2.183-30.747-4.367-45.484-9.461
		C429.721,1122.739,428.811,1118.554,427.174,1115.279z"/>
	<path style="fill:#F4AB87;" d="M692.803,1381.454c3.821-3.093,7.277-6.368,10.552-9.825c0.546,3.821,0.728,7.823-0.91,11.462
		c-0.91,3.093-4.549,5.64-2.911,9.279c-0.728-0.182-2.001-0.546-2.729-0.546c0.91-2.365,2.001-4.73,2.911-7.096
		C697.352,1383.456,695.168,1382.546,692.803,1381.454z"/>
	<path style="fill:#F4AB87;" d="M638.768,1387.276c4.548,0.91,9.097,2.001,13.645,2.911c-3.093,2.183-6.186,4.548-9.279,6.914
		l-0.364,0.364C640.951,1394.008,639.495,1390.733,638.768,1387.276z"/>
</g>
<g>
	<path style="fill:#FCD3B5;" d="M647.137,429.737c16.92-5.276,35.296-4.185,52.398,0.182c19.649,5.094,39.117,16.374,48.578,35.114
		c13.281,26.199,22.924,53.854,33.659,81.144c8.369,20.741,14.373,42.21,23.106,62.951c-18.012-9.279-38.025-13.827-57.856-16.738
		c3.275-2.729,7.641-5.276,8.369-9.825c1.456-8.551,1.819-17.466,0.182-26.199c-2.365-8.733-11.826-12.008-19.467-14.737
		c-38.571-12.918-79.143-19.649-119.715-22.378c-8.915-1.092-19.831,2.183-22.742,11.462c-1.819,8.005-1.637,16.374-1.456,24.562
		c0.546,7.823,7.096,14.555,14.919,15.283c34.204,4.549,68.772,8.733,101.885,18.376c-22.378-1.456-44.939-0.91-67.135,1.455
		c-17.83,2.001-36.024,4.73-51.852,13.645c-16.374,9.279-29.838,23.106-39.117,39.48c-11.644-0.91-23.288,2.001-34.932,1.274
		c-12.372,0.182-24.562-2.547-36.751-1.092c-11.098-24.016-34.204-41.664-59.494-48.214c-17.83-4.548-36.387-5.822-54.763-6.732
		c-14.555-0.546-28.928-0.91-43.483,0.364c10.916-4.367,22.742-6.004,34.204-8.369c21.651-4.366,43.483-6.914,65.316-10.007
		c8.005-0.728,16.193-6.55,16.738-15.101c0.364-8.187,0.546-16.738-1.092-24.743c-3.275-10.007-15.101-12.918-24.38-11.462
		c-42.755,3.821-85.511,10.916-125.901,25.835c17.284-18.921,35.842-36.933,56.583-52.034
		c51.124-38.025,114.985-57.129,178.481-58.038c20.195-0.364,40.026,3.639,60.039,3.457
		C603.835,439.38,626.032,436.105,647.137,429.737z"/>
	<path style="fill:#FCD3B5;" d="M244.326,600.213c9.461-14.191,19.285-28.018,30.384-40.936c0.182,10.916-3.275,24.743,7.096,32.385
		C269.252,593.845,256.698,596.938,244.326,600.213z"/>
	<g>
		<path style="fill:#FCD3B5;" d="M265.977,618.225c20.559-4.185,41.664-5.094,62.769-5.64c23.47-0.364,46.94-0.546,70.228,3.275
			c8.369,1.456,16.738,3.275,24.38,6.914c20.195,10.007,34.932,30.02,38.935,52.034c-4.73,22.742-5.64,46.03-8.005,69.136
			c-1.456,8.187-4.003,16.374-7.823,24.016c-26.745,17.284-48.759,42.937-80.235,52.398c-18.558,6.55-39.299,4.367-56.947-3.821
			c-18.376-8.733-37.661-16.556-52.398-30.929c-16.92-16.374-27.836-38.207-34.204-60.585c-4.366-16.01-6.368-32.931-4.73-49.487
			c0.364-4.003-0.364-8.005-0.91-12.008c2.183-12.19,8.369-24.016,18.012-32.203C243.78,623.683,255.061,620.59,265.977,618.225z
			 M281.987,626.958c-14.009,6.004-27.473,16.192-33.658,30.384c5.64-2.001,10.734-5.458,16.011-8.369
			c29.292-15.283,62.95-17.83,95.335-18.376c-2.001-5.822-9.643-4.912-14.555-6.914
			C324.561,617.497,302.182,619.498,281.987,626.958z M336.933,660.071c-15.101,24.925-15.101,58.402,0.364,83.146
			c7.459,11.826,20.559,21.469,35.114,20.923c13.463-0.182,25.289-8.733,32.567-19.467c12.372-18.194,15.829-41.482,11.098-62.768
			c0.728-10.552-3.821-21.469-13.1-26.927c-6.368-5.458-12.554-12.008-21.105-14.373
			C364.587,634.781,345.848,644.97,336.933,660.071z"/>
	</g>
	<g>
		<path style="fill:#FCD3B5;" d="M643.862,614.404c25.835-2.911,51.852-2.547,77.869-1.092c18.194,1.092,36.752,2.729,54.218,8.187
			c11.28,3.639,22.378,10.007,28.928,20.195c7.459,11.462,10.734,25.107,12.918,38.389c1.092,12.736-4.185,24.562-6.914,36.752
			c-7.277,24.562-18.012,48.941-36.206,67.499c-13.1,13.463-30.384,21.469-47.304,28.928c-9.643,4.003-19.285,8.187-29.656,10.189
			c-15.465,2.365-31.657-0.182-45.484-7.278c-13.463-7.096-26.017-16.01-37.661-25.835c-10.007-8.551-21.833-15.101-30.747-24.925
			c-4.185-10.189-7.278-20.923-8.369-31.839c0.546-10.37-1.637-20.559-1.819-30.93c-0.182-10.007-3.275-19.649-4.003-29.656
			c4.185-18.558,16.193-34.75,31.657-45.484C613.478,618.953,628.943,616.406,643.862,614.404z M690.438,626.594
			c2.729,3.639,7.459,3.639,11.462,4.73c39.662,8.551,77.324,31.111,99.52,65.68c1.092-1.637,1.274-3.457,0.546-5.458
			c-4.185-16.374-14.555-31.111-28.382-40.754c-18.922-13.463-41.482-21.651-64.406-24.016
			C702.81,626.048,696.624,625.32,690.438,626.594z M630.398,654.976c-11.098,13.827-15.283,32.021-14.737,49.487
			c0.364,17.648,6.186,36.206,19.285,48.577c7.46,7.278,18.012,11.826,28.564,10.916c13.645-0.91,25.289-10.189,32.567-21.287
			c11.826-18.194,15.101-41.3,10.007-62.223c0.546-10.37-4.366-21.105-14.009-26.017c-7.823-7.823-17.102-15.283-28.746-15.465
			C650.594,638.056,638.404,645.152,630.398,654.976z"/>
	</g>
	<path style="fill:#FCD3B5;" d="M495.037,681.539c6.368-6.55,15.283-13.099,24.743-11.098c14.555,3.821,24.744,17.648,27.291,32.203
		c4.367,23.834,7.278,48.032,15.101,70.956c0.546,1.637,1.274,3.275,1.274,5.094c-0.546,3.821-1.456,7.641,0,11.462
		c4.185,13.827,9.279,27.473,16.92,39.662c3.821,6.186,8.733,11.826,11.826,18.376c-16.738-1.819-33.841-5.458-50.579-2.183
		c-10.734,2.183-21.651,8.733-32.567,3.821c-22.742-8.733-47.85-5.64-71.138-0.728c9.461-13.282,18.376-26.927,24.38-42.21
		c4.003-10.37,7.823-21.287,7.095-32.567c4.366-15.829,8.915-31.839,11.28-48.214C483.574,710.831,483.938,693.729,495.037,681.539z
		"/>
	<path style="fill:#FCD3B5;" d="M847.086,680.448c6.004-0.91,12.008-1.819,18.012-3.639c-6.55,46.03-7.096,92.424-10.916,138.637
		c-3.821,39.117-10.552,79.143-28.928,114.439c-30.02-4.912-60.767-4.912-90.423,2.001c-12.008,2.183-25.289,6.368-36.933,0.182
		c-11.28-5.64-16.556-17.648-23.106-27.654c-5.094-8.369-11.098-16.193-17.648-23.47c30.747,4.185,63.132,4.003,92.424-6.914
		c15.647-6.004,30.202-14.919,42.573-26.381c3.821-3.457,6.186-8.005,8.369-12.372c15.829-15.101,26.563-34.75,32.931-55.491
		C843.084,747.583,847.45,713.924,847.086,680.448z"/>
	<path style="fill:#FCD3B5;" d="M103.506,706.647c11.28-10.916,27.109-15.101,42.392-14.737c-2.729,5.64-9.097,7.278-13.827,10.734
		c-7.278,5.094-14.919,10.188-19.649,17.83c-1.455,1.819-2.911,3.639-4.73,5.094c-11.28,9.825-19.285,22.742-25.653,36.206
		C83.311,741.761,88.951,720.838,103.506,706.647z"/>
	<path style="fill:#FCD3B5;" d="M884.202,691.91c16.01-0.182,32.931,4.73,43.665,17.284c16.738,19.831,20.923,47.486,18.012,72.593
		c-3.275,26.017-12.19,52.944-31.475,71.684c-12.19,11.826-29.838,14.555-46.212,14.737c2.729-14.373,5.094-28.928,6.186-43.665
		c4.73,1.637,9.461,2.911,14.373,3.639c0.546-1.819,1.092-3.457,1.819-5.276c0.546-1.456,1.274-2.911,2.001-4.367
		c5.094-6.732,5.64-16.01,11.644-22.015c6.004-3.639,5.64-11.28,5.822-17.466c0-7.823-1.092-17.102-8.005-22.196
		c-6.55-5.094-15.101-5.094-22.924-4.367c0.182-1.819,0.364-5.64,0.364-7.459c14.009,0.91,29.292-2.365,39.299-12.736
		c2.729-2.365,2.729-6.368,0.91-9.279c-2.729-3.093-6.186,0-9.097,1.092c-9.461,5.458-19.467,9.643-30.202,11.28
		C881.291,720.838,882.382,706.465,884.202,691.91z"/>
	<path style="fill:#FCD3B5;" d="M199.751,852.015c-3.639-25.107-5.822-50.397-4.548-75.686c3.275,9.097,6.368,18.194,10.734,26.927
		c-1.819-0.546-3.639-1.092-5.458-1.456c3.275,11.462,9.279,21.833,16.01,31.475c15.647,24.926,43.847,38.935,71.684,44.575
		c28.746,6.732,58.584,6.55,87.694,3.093c-9.643,10.552-17.466,22.742-24.744,35.114c-5.458,8.733-13.1,17.648-24.016,19.104
		c-8.733,0.91-17.102-1.819-25.471-3.457c-25.107-5.458-50.943-6.55-76.596-4.548c1.092-1.092,2.001-2.365,3.093-3.457
		C213.033,902.594,203.39,877.668,199.751,852.015z"/>
	<g>
		<path style="fill:#FCD3B5;" d="M498.857,898.591c5.64-0.728,11.28-2.729,17.102-2.001c29.656,4.367,59.676,4.003,89.695,6.186
			c10.734,1.274,22.015,1.456,31.839,6.368c7.641,4.185,8.915,13.463,10.734,21.105c2.729,14.919,5.276,30.202,4.73,45.302
			c-0.182,7.641-3.639,15.101-9.279,20.195c-8.369,7.641-19.104,11.826-29.292,16.374c-16.193,7.096-33.477,11.644-50.579,15.647
			c-20.377,4.185-41.3,7.277-62.223,4.912c-32.931-3.275-65.498-12.372-95.154-27.109c-10.189-5.458-22.56-11.098-25.653-23.47
			c-2.729-14.555,0.182-29.474,2.001-44.029c2.183-10.007,2.729-21.651,11.098-28.746c7.096-5.094,16.192-5.64,24.38-7.459
			C444.822,897.136,472.112,902.412,498.857,898.591z M634.401,911.691c-0.728,2.911,0.546,3.821,3.457,3.093
			C638.586,911.873,637.494,910.963,634.401,911.691z M402.976,917.331c21.105,13.463,43.483,25.289,67.499,32.749
			c22.196,7.096,45.666,6.004,68.591,4.185c31.657-4.549,61.131-18.376,88.24-34.75c-34.022,16.011-72.047,21.287-109.345,22.924
			C478.116,944.985,439.182,932.977,402.976,917.331z M487.577,983.374c9.279,2.183,19.104,0.546,28.564,0.728
			c9.825-0.364,19.467,0.546,29.11-0.546c-2.001-2.547-4.367-4.73-7.459-5.458c-11.28-2.911-23.106-3.093-34.568-1.819
			C497.584,977.37,490.852,977.916,487.577,983.374z M493.035,985.921l0.91,2.911c6.186,1.274,12.372,0.728,18.558,0.91
			c9.279-0.182,18.558,0.546,27.655-1.456l1.092-2.547C525.238,984.83,509.046,985.012,493.035,985.921z"/>
	</g>
	<path style="fill:#FCD3B5;" d="M427.174,1115.279c1.456,3.275,2.547,7.459,6.732,8.369c14.737,5.094,30.202,7.277,45.484,9.461
		c15.829,2.547,31.839,1.637,47.668,2.911c16.738-1.455,33.659-0.728,50.033-4.185c9.097-2.001,22.015-0.546,26.199-11.098
		c3.639,13.464,9.643,26.017,14.555,38.935c2.911,6.004-2.365,11.462-6.732,14.919c-9.825,7.278-21.833,10.552-33.295,14.009
		c-42.937,10.188-88.24,9.643-130.813-1.455c-12.736-4.003-26.927-8.369-35.114-19.831c-2.365-2.911-0.728-6.732,0.364-9.825
		C418.077,1143.48,423.353,1129.652,427.174,1115.279z"/>
</g>
<g>
	<path style="fill:#BBAFAC;" d="M826.891,463.032c24.744,1.637,50.397,0.91,73.867-7.823c-0.182,1.456-0.364,4.185-0.546,5.64
		c-0.546,6.368-1.455,12.736-2.183,18.922C874.013,476.313,849.997,471.583,826.891,463.032z"/>
	<path style="fill:#BBAFAC;" d="M806.878,512.519c30.929,2.911,61.859-6.004,89.877-18.558c-1.819,10.189-3.457,20.559-4.912,30.929
		l-0.728,0.182c-25.835,5.64-52.762,6.004-78.597,0.364l-0.728-0.182C809.789,521.07,808.152,516.704,806.878,512.519z"/>
	<path style="fill:#BBAFAC;" d="M817.794,541.447c23.288,7.278,48.395,4.73,71.501-2.183c-6.732,33.84-12.19,68.045-20.923,101.521
		c-3.639-0.182-7.46-1.456-8.915-5.094C842.356,606.035,830.348,573.468,817.794,541.447z"/>
	<path style="fill:#BBAFAC;" d="M211.395,706.283c0.364-14.373,0.91-29.292,5.822-42.937c0.546,4.003,1.092,8.005,0.91,12.008
		c-1.637,16.556,0.364,33.477,4.73,49.487c6.55,22.378,17.284,44.211,34.204,60.585c14.737,14.373,34.022,22.378,52.398,30.929
		c17.648,8.187,38.389,10.37,56.947,3.821c31.475-9.279,53.308-35.114,80.235-52.398c-10.916,26.199-30.566,49.123-55.309,62.951
		c-27.473,12.554-58.766,11.826-87.876,8.005c-19.285-2.911-39.662-6.368-55.491-18.74c-14.737-11.462-23.106-28.746-28.2-46.212
		C213.397,751.767,211.395,729.025,211.395,706.283z"/>
	<path style="fill:#BBAFAC;" d="M569.267,672.988c0.91,10.007,3.821,19.649,4.003,29.656c0.182,10.37,2.183,20.559,1.819,30.929
		v1.456C570.177,714.834,565.992,693.729,569.267,672.988z"/>
	<path style="fill:#BBAFAC;" d="M462.288,674.626c2.547,14.737-0.182,29.656-2.547,44.393c-1.637,8.187-2.547,16.738-5.458,24.744
		C456.648,720.656,457.557,697.368,462.288,674.626z"/>
	<path style="fill:#BBAFAC;" d="M817.612,680.084c3.639,24.744,2.001,49.851-2.547,74.413
		c-4.549,22.015-11.826,44.575-27.836,61.131c-9.643,10.188-23.288,15.465-36.752,18.74c-31.293,7.277-64.588,10.552-96.063,2.183
		c-21.651-5.458-38.753-21.105-52.216-38.207c-7.459-10.188-14.373-20.923-18.558-32.931c8.915,9.825,20.559,16.374,30.747,24.925
		c11.644,9.825,24.016,18.74,37.661,25.835c13.827,7.278,30.02,9.643,45.484,7.278c10.37-1.819,20.013-6.186,29.656-10.189
		c16.92-7.459,34.204-15.647,47.304-28.928c18.194-18.376,28.928-42.937,36.206-67.499
		C813.246,704.645,818.522,692.819,817.612,680.084z"/>
</g>
<g>
	<g>
		<path style="fill:#2D3854;" d="M284.898,1085.987c18.74-5.822,38.753-8.187,58.402-6.186c5.458,0.364,10.916,0.182,16.556,0.364
			c-11.644,3.457-24.016,3.275-35.478,7.096c-13.099,4.185-26.199,11.644-32.567,24.38c-4.185,10.188-3.275,22.924,3.093,32.021
			c4.912,7.641,12.372,13.281,20.013,18.376c17.284,11.462,35.478,21.651,54.945,28.928c8.915,3.275,18.012,7.278,27.655,7.096
			c-4.367-4.548-10.552-6.914-15.829-10.188c-15.283-9.279-30.566-18.922-45.121-29.292c-10.37-6.914-20.559-14.555-28.2-24.562
			c-2.911-3.639-4.367-9.097-2.001-13.464c4.367-8.369,12.554-13.827,21.105-17.102c20.923-8.551,44.029-8.915,66.043-12.19
			c6.368-0.728,12.736,1.092,18.922,2.183c-4.548,22.014-11.644,43.847-24.38,62.587c-11.28-7.278-21.469-16.193-31.475-25.107
			c-5.458-4.73-9.643-11.28-16.193-14.373c4.003,12.554,13.645,22.378,22.196,32.021c15.283,14.919,32.021,28.564,50.761,38.753
			c11.098,6.004,23.288,10.006,33.477,17.284c12.372,8.915,24.38,18.74,34.568,30.202c-26.563,4.548-53.126-1.274-79.325-6.004
			c-28.928-5.822-57.674-11.644-86.057-19.467c-3.821-1.092-7.823-1.819-11.826-1.819c5.094,5.822,12.554,7.823,19.467,10.734
			c39.117,14.009,79.871,24.016,121.171,28.2c13.099-0.182,30.202,2.365,38.389-10.189c6.914,5.822,16.374,8.187,24.744,4.185
			c3.457-0.546,7.095-0.728,10.552-0.546c8.733,5.276,20.013,2.729,27.109-4.185c5.276,13.463,22.378,10.37,33.84,11.098
			c41.3-2.365,81.872-12.918,120.989-26.563c9.097-3.457,18.922-6.186,26.017-13.1c-7.823,0.91-15.465,3.093-22.924,5.094
			c-33.113,8.187-66.589,15.283-100.066,21.287c-14.555,2.001-29.292,4.367-43.847,2.547c-4.549-0.546-9.279-0.546-13.827-0.182
			c12.736-10.734,24.198-23.106,38.389-31.839c14.737-9.461,32.021-14.555,46.394-24.562c22.378-15.465,43.301-33.659,58.038-56.765
			c1.819-2.729,2.911-6.004,2.547-9.279c-16.374,15.101-31.475,32.567-50.761,44.029c-12.008-19.103-18.74-40.936-23.652-62.769
			c8.915-1.274,17.83-4.367,26.745-2.365c23.288,3.093,48.032,4.184,68.773,16.374c7.641,4.184,14.919,13.827,10.189,22.56
			c-4.912,8.733-12.736,15.101-20.559,21.105c-18.922,14.009-38.753,26.745-58.766,39.298c-2.911,1.819-5.822,3.821-8.005,6.368
			c9.279-0.364,18.012-4.003,26.563-7.459c19.831-8.005,38.753-18.74,56.219-30.929c9.279-6.914,18.376-15.283,21.105-26.927
			c4.366-14.191-3.821-29.474-15.829-37.115c-15.829-10.189-35.296-12.918-53.672-14.009c0-0.364,0-1.092,0-1.455
			c28.018-0.728,57.674-3.457,83.509,9.279c24.744,11.462,43.483,33.295,54.945,57.674c3.821,8.369,6.186,18.558,1.456,27.109
			c-8.369,13.827-23.106,22.015-37.661,28.019c-45.484,17.284-92.424,30.565-140.092,39.662c-21.469,3.093-42.937,7.278-64.77,6.368
			c-16.556,0.546-33.113-2.183-49.669-0.182c3.457,3.093,7.096,6.186,11.462,7.641c16.556,5.64,34.204,4.912,51.307,5.458
			c-5.094,32.567-8.733,65.498-12.918,98.065c-1.637,16.374-4.548,32.749-4.003,49.123c3.639-0.728,7.278-1.455,10.916-2.001
			c3.821-31.293,6.368-62.95,11.098-94.244c2.547-17.102,5.276-34.204,7.459-51.307c20.923-2.911,41.846-4.548,62.405-9.461
			c33.477-6.368,65.862-16.92,98.247-27.473c21.832-6.914,44.211-15.101,61.677-30.566c21.469,36.024,40.026,73.685,57.856,111.71
			c21.105,46.03,40.026,93.516,48.396,143.731c1.637,14.555,5.458,30.384-0.546,44.211c-2.911,7.641-12.008,6.732-18.74,7.823
			c-21.833,3.275-43.665,6.004-65.498,9.279c-20.741,3.093-41.664,3.821-62.223,7.459c5.276-3.093,10.37-6.55,14.009-11.644
			c4.912-6.368,5.64-14.737,7.278-22.378c31.293,0.728,62.768-0.364,93.698-5.094c-13.1-3.093-26.563-3.457-40.026-5.458
			c-16.92-2.547-34.022-4.185-51.125-6.004c-3.093-1.092-2.365-4.912-2.729-7.459c0.364-60.04-14.919-119.533-40.208-173.932
			c-1.637-3.093-3.821-6.004-6.004-8.915c-0.182,16.738,4.548,32.931,7.641,49.305c5.822,26.745,12.19,53.308,15.647,80.598
			c3.093,25.289,5.094,51.125,0.364,76.414c-2.547,12.19-6.732,24.016-11.826,35.478c-44.575,3.457-89.149,8.187-133.906,10.007
			c-16.92,2.001-33.84,0.728-50.761,2.365c-38.571,1.092-77.324,0.91-115.894,0.182c-19.649-2.001-39.299-0.728-58.948-2.729
			c-24.38-0.91-48.759-2.911-73.321-4.73c-18.376-2.183-37.115-2.001-55.309-5.276c-3.457-3.275-4.548-8.551-6.55-12.917
			c-8.915-20.741-10.189-43.847-9.825-66.043c0.91-52.58,17.102-102.977,25.289-154.647c1.274-6.186,2.911-12.554,1.456-18.922
			c-12.554,27.655-24.744,55.673-32.203,85.329c-10.552,38.025-15.829,77.688-15.647,117.168
			c-23.47,3.457-47.486,2.729-70.592,8.187c23.652,5.094,47.668,7.641,71.684,7.459c1.092,8.551,3.093,17.466,9.097,24.016
			c3.639,4.548,9.097,6.732,14.191,9.279c-46.394-3.821-92.424-10.734-138.455-17.284c-4.003-0.91-9.461-0.91-11.098-5.458
			c-5.094-10.37-4.367-22.196-3.093-33.295c3.821-34.568,14.555-67.681,26.563-100.066c15.829-42.028,35.66-82.418,56.219-122.262
			c8.187-15.465,16.374-30.929,25.653-45.666c18.922,17.648,44.029,25.107,68.045,32.749
			c49.487,17.284,100.794,29.292,153.01,34.386c8.005,48.396,13.281,96.973,19.285,145.732c3.639,0.546,7.277,1.274,10.916,2.001
			c0.728-10.916-1.092-21.651-2.183-32.385c-4.367-38.389-9.279-76.596-15.647-114.803c15.101,0,30.566,0.546,45.303-3.275
			c7.278-1.819,14.191-5.64,18.558-11.644c-22.378,3.093-45.121,2.183-67.681,2.183c-37.297-2.365-73.685-11.28-109.709-20.741
			c-20.195-5.094-39.844-12.554-59.857-18.74c-18.558-6.368-38.025-13.827-51.125-28.928c-7.459-8.915-7.278-22.014-2.183-31.839
			C234.683,1120.555,256.152,1095.994,284.898,1085.987z M681.523,1332.695c-11.098-0.364-22.56,0.728-32.567,6.186
			c-3.275-3.275-6.004-7.641-10.552-9.097c-6.186-1.819-13.463,3.093-13.463,9.825c-0.546,7.278,5.458,12.372,10.37,16.556
			c-4.366,12.372-8.551,26.199-3.821,39.117c4.367,11.826,16.738,17.83,28.382,20.013c9.643,0.728,20.013,1.274,28.928-3.275
			c4.185-2.365,8.733,0.728,13.1,0.546c5.822,0.546,10.916-5.276,10.734-10.916c0.546-3.821-2.729-6.368-4.73-8.915
			c2.911-7.641,6.004-16.193,3.639-24.38c-1.456-8.005-6.732-14.373-10.916-21.105c2.911-5.458,7.641-12.008,4.73-18.376
			c-1.637-5.276-6.732-10.188-12.736-8.551C686.253,1320.869,683.706,1327.419,681.523,1332.695z"/>
	</g>
</g>
<g>
	<path style="fill:#C92748;" d="M485.03,1214.071c19.831,4.73,40.572,4.003,60.403,0.546c-9.097,7.459-16.374,16.738-24.016,25.653
		h-2.547c-3.639,0-7.096,0-10.552,0.546C502.86,1230.082,493.945,1221.713,485.03,1214.071z"/>
	<g>
		<path style="fill:#C92748;" d="M668.605,1382.546c4.185-2.183,8.915-0.182,12.918,0.91c0.182,4.366-1.092,8.733-5.094,10.916
			c-4.912-1.274-10.007,2.001-14.737-0.182C663.147,1390.187,663.875,1384.547,668.605,1382.546z M670.425,1386.185
			c-0.182,0.91-0.728,2.547-0.91,3.275c1.819,0,3.639,0,5.458-0.182c0-0.91,0.182-2.911,0.364-4.003
			C673.7,1385.639,672.062,1385.821,670.425,1386.185z"/>
	</g>
</g>
<g>
	<path style="fill:#CFCCCC;" d="M57.476,1453.502c11.28-3.275,22.196-8.005,34.022-8.551c-1.819,13.827-4.003,28.019-2.001,42.028
		c1.273,8.369,6.186,17.83,15.465,19.467c40.754,5.094,81.326,11.28,122.08,15.647c74.958,8.005,150.099,14.373,225.421,16.556
		c63.132,1.638,126.265,0.728,189.215-2.729c55.309-3.457,110.436-8.369,165.564-14.555c39.48-4.366,78.779-10.188,118.078-15.101
		c8.733-1.637,13.464-11.098,14.555-19.285c1.638-14.009,0-28.2-1.819-42.028c14.373,1.092,28.018,6.732,41.846,11.098
		c15.829,6.004,32.385,12.372,44.393,24.925c5.822,5.822,8.369,15.465,3.093,22.378c-10.552,14.919-28.564,21.469-44.939,27.836
		c-40.208,14.373-82.418,22.015-124.264,29.11c-96.973,14.919-195.037,21.105-292.92,23.288
		c-130.086,2.001-260.535-2.911-389.165-22.742c-29.292-4.548-58.584-10.188-87.512-17.284
		c-20.013-5.094-40.026-10.916-58.766-19.649c-10.552-5.094-21.287-11.28-27.654-21.469c-4.73-7.459-1.092-16.92,4.912-22.378
		C21.088,1466.419,39.646,1459.87,57.476,1453.502z"/>
</g>
</svg>
